<svg t="1602254737585" class="icon" viewBox="0 0 1024 1024" version="1.1" xmlns="http://www.w3.org/2000/svg" p-id="4833" width="200" height="200"><path d="M834.976 888.736C799.712 902.56 759.648 894.4 732.608 867.872L512.288 647.808 292.064 867.872C254.528 905.376 193.696 905.376 156.16 867.872 118.624 830.4 118.624 769.568 156.16 732.096L376.448 512 156.16 291.936C118.624 254.432 118.624 193.632 156.16 156.128 193.696 118.624 254.528 118.624 292.064 156.128L512.288 376.288 732.608 156.128C770.304 119.776 830.24 120.288 867.296 157.344 904.352 194.4 904.864 254.272 868.416 291.936L648.192 512 868.416 732.096C887.296 751.072 897.28 777.152 895.872 803.904 894.08 841.696 870.24 874.912 834.976 888.736" p-id="4834" fill="#1296db"></path></svg>