<?xml version="1.0" standalone="no"?><!DOCTYPE svg PUBLIC "-//W3C//DTD SVG 1.1//EN" "http://www.w3.org/Graphics/SVG/1.1/DTD/svg11.dtd"><svg t="1562576402250" class="icon" viewBox="0 0 1024 1024" version="1.1" xmlns="http://www.w3.org/2000/svg" p-id="3677" xmlns:xlink="http://www.w3.org/1999/xlink" width="64" height="64"><defs><style type="text/css"></style></defs><path d="M607.995331 64.021106l287.985994 287.985993H639.994116c-17.672498 0-31.998785-14.326287-31.998785-31.998785V64.021106zM288.010553 735.989447c-17.672498 0-31.998785 14.326287-31.998785 31.998785s14.326287 31.998785 31.998785 31.998785h383.981325c17.672498 0 31.998785-14.326287 31.998784-31.998785s-14.326287-31.998785-31.998784-31.998785H288.010553z m0-159.992901c-17.672498 0-31.998785 14.326287-31.998785 31.998785s14.326287 31.998785 31.998785 31.998785h191.990662c17.672498 0 31.998785-14.326287 31.998785-31.998785s-14.326287-31.998785-31.998785-31.998785H288.010553z m607.970772-159.991877v447.978894c0 53.016471-42.97886 95.995331-95.995332 95.995331H224.014007c-53.016471 0-95.995331-42.97886-95.995332-95.995331V160.016437c0-53.016471 42.97886-95.995331 95.995332-95.995331h319.984778v273.765107c0 43.198871 35.019585 78.218456 78.218456 78.218456h273.764084z" p-id="3678" fill="#FFA940"></path></svg>