<?xml version="1.0" standalone="no"?><!DOCTYPE svg PUBLIC "-//W3C//DTD SVG 1.1//EN" "http://www.w3.org/Graphics/SVG/1.1/DTD/svg11.dtd"><svg t="1562576538887" class="icon" viewBox="0 0 1024 1024" version="1.1" xmlns="http://www.w3.org/2000/svg" p-id="2055" xmlns:xlink="http://www.w3.org/1999/xlink" width="64" height="64"><defs><style type="text/css"></style></defs><path d="M431.4112 690.5856l-29.2864-85.4016h-1.024l-29.4912 85.4016h59.8016zM793.6 690.5856l-29.2864-85.4016h-1.024l-29.4912 85.4016h59.8016z" fill="#FF4D4F" p-id="2056"></path><path d="M1003.52 447.3856h-75.8784V245.76L688.64 0H154.4192a61.44 61.44 0 0 0-61.44 61.44v385.9456H20.48a20.48 20.48 0 0 0-20.48 20.48v404.48a20.48 20.48 0 0 0 20.48 20.48h72.704V962.56a61.44 61.44 0 0 0 61.44 61.44h711.5776a61.44 61.44 0 0 0 61.44-61.44v-69.7344H1003.52a20.48 20.48 0 0 0 20.48-20.48v-404.48a20.48 20.48 0 0 0-20.48-20.48zM164.6592 71.68H655.36v199.8848h200.6016v175.8208H164.6592z m687.616 693.8624H819.2L802.7136 716.8h-78.0288l-16.9984 48.8448h-32.5632l71.68-194.56h34.7136z m-185.0368-194.56l-66.2528 194.56H564.224l-66.2528-194.56h33.1776l51.2 158.8224h0.8192l51.2-158.8224z m-177.152 194.56h-32.5632L440.32 716.8h-77.824l-16.9984 48.8448h-32.5632l71.68-194.56h34.7136z m-261.9392-24.2688a26.0096 26.0096 0 0 0 22.4256-9.5232 51.2 51.2 0 0 0 7.0656-30.72V570.7776h30.72v131.7888a77.7216 77.7216 0 0 1-13.312 49.664 59.2896 59.2896 0 0 1-47.2064 17.2032 54.3744 54.3744 0 0 1-42.8032-16.384 64.4096 64.4096 0 0 1-14.848-45.056v-6.2464h30.72v6.0416q-0.4096 33.4848 27.2384 33.4848zM855.9616 952.32H164.6592v-59.4944h691.3024z" fill="#FF4D4F" p-id="2057"></path></svg>