<?xml version="1.0" standalone="no"?><!DOCTYPE svg PUBLIC "-//W3C//DTD SVG 1.1//EN" "http://www.w3.org/Graphics/SVG/1.1/DTD/svg11.dtd"><svg t="1562575867157" class="icon" viewBox="0 0 1024 1024" version="1.1" xmlns="http://www.w3.org/2000/svg" p-id="3219" xmlns:xlink="http://www.w3.org/1999/xlink" width="64" height="64"><defs><style type="text/css"></style></defs><path d="M513.796926 959.977871c-5.249561 0-10.530844-0.077771-15.780405-0.26606a455.752951 455.752951 0 0 1-33.561374-2.422165c-15.249309-1.672082-27.154453-13.890358-28.404933-29.139668-1.812275-21.686928-10.624988-41.575908-25.498744-57.497528-35.311227-37.904285-93.745081-41.091884-132.868123-7.233752-11.562337 9.999748-28.592198 10.406001-40.716331 0.952698-26.936489-21.171182-51.497884-45.51359-72.996524-72.324212-9.561773-11.952216-9.342786-28.998451 0.531096-40.685631 14.062274-16.60826 21.904892-36.872792 22.654976-58.637492 1.781576-51.825342-37.248346-95.354741-88.871074-99.088786-15.280008-1.109264-27.65485-12.921287-29.467125-28.138874a451.200262 451.200262 0 0 1-2.874467-69.105914c0.406253-11.343349 1.187035-22.530133 2.405793-33.592072 1.655709-15.249309 13.905708-27.154453 29.185716-28.420283 21.655206-1.781576 41.498136-10.593266 57.435107-25.468045 37.936007-35.341926 41.091884-93.714382 7.250124-132.899846-9.999748-11.593036-10.406001-28.670993-0.937348-40.71633 21.248953-26.967188 45.560662-51.528584 72.340585-72.964802 11.906168-9.593496 28.967752-9.343809 40.685631 0.546445 16.59291 14.045901 36.872792 21.874193 58.653865 22.639627 52.841485 2.437515 95.339392-37.263695 99.088786-88.901773 1.093914-15.280008 12.905938-27.624151 28.123524-29.451776a452.740338 452.740338 0 0 1 69.121264-2.859117 458.812637 458.812637 0 0 1 33.561373 2.405793c15.249309 1.655709 27.154453 13.905708 28.435633 29.185716 1.781576 21.670555 10.561543 41.545208 25.436322 57.465806 35.311227 37.904285 93.745081 41.076534 132.931568 7.218402 11.562337-9.999748 28.686343-10.406001 40.685631-0.921999 26.967188 21.201881 51.497884 45.528939 72.964802 72.308863 9.593496 11.952216 9.342786 29.013801-0.562818 40.70098-14.030551 16.57756-21.874193 36.842093-22.624277 58.622143-1.781576 51.809993 37.248346 95.339392 88.901773 99.088785 15.311731 1.124614 27.65485 12.921287 29.467125 28.138874 2.687202 22.654976 3.656273 45.904493 2.843768 69.090565-0.406253 11.343349-1.187035 22.545482-2.405793 33.607422-1.655709 15.217586-13.905708 27.139104-29.155017 28.404933-21.655206 1.796926-41.560558 10.608615-57.497529 25.468045-37.904285 35.341926-41.060161 93.729731-7.218401 132.899846 9.999748 11.593036 10.406001 28.65462 0.937348 40.700981-21.217231 26.951839-45.528939 51.513234-72.340585 72.981175-11.968589 9.578146-28.998451 9.342786-40.685631-0.562819-16.562211-14.030551-36.810371-21.842471-58.622142-22.607904-52.934606-2.28095-95.339392 37.248346-99.088786 88.886423-1.093914 15.280008-12.905938 27.6395-28.123524 29.451776a452.746478 452.746478 0 0 1-53.340859 3.14155z m-18.624173-64.433498c1.687432 0.077771 3.374864 0.156566 5.062296 0.202615a397.114436 397.114436 0 0 0 35.560913-0.374531c17.936511-72.136947 83.277682-123.30635 160.804383-120.838135 26.498514 0.937348 52.40351 8.514931 75.120908 21.764699a381.427152 381.427152 0 0 0 28.65462-28.888957c-38.34226-63.669088-28.030403-146.633638 28.28009-199.131293 19.374256-18.077727 43.060725-31.029714 68.527746-37.732369 0.062422-1.719154 0.156566-3.452635 0.218988-5.17179a395.750369 395.750369 0 0 0-0.37453-35.513842c-72.152297-17.905812-123.525338-83.871199-120.838136-160.789033 0.906649-26.498514 8.499581-52.41886 21.74935-75.15263a387.007241 387.007241 0 0 0-28.873608-28.639271c-63.684438 38.325887-146.618289 28.01403-199.146642-28.26474-18.374486-19.701714-31.18628-43.044352-37.811164-68.543096-1.687432-0.077771-3.343141-0.156566-5.030573-0.202615-11.842723-0.390903-23.780613-0.312108-35.560914 0.37453-17.905812 72.152297-82.777285 123.213229-160.804383 120.838136-26.936489-0.952698-52.497655-8.390088-75.215052-21.732977a392.163681 392.163681 0 0 0-28.592198 28.841885c38.34226 63.684438 28.030403 146.648988-28.280091 199.131293-19.374256 18.077727-43.060725 31.045063-68.527746 37.747719-0.062422 1.719154-0.156566 3.437286-0.218987 5.15644-0.406253 11.812023-0.249687 23.701818 0.406252 35.513842 72.121598 17.905812 123.493615 83.871199 120.806414 160.804383-0.906649 26.920116-8.343015 52.497655-21.717628 75.215052a389.053853 389.053853 0 0 0 28.841885 28.576849c63.71616-38.404682 146.618289-28.01403 199.146643 28.26474 18.374486 19.701714 31.18628 43.027979 37.811164 68.543096z m18.467607-191.553711c-105.870236 0-191.990662-86.120426-191.990662-191.990662s86.120426-191.990662 191.990662-191.990662 191.990662 86.120426 191.990662 191.990662-86.120426 191.990662-191.990662 191.990662z m0-319.984778c-70.590731 0-127.994116 57.418734-127.994116 127.994116s57.403385 127.994116 127.994116 127.994116 127.994116-57.418734 127.994116-127.994116-57.403385-127.994116-127.994116-127.994116z" p-id="3220" fill="#1890FF"></path></svg>