<?xml version="1.0" standalone="no"?><!DOCTYPE svg PUBLIC "-//W3C//DTD SVG 1.1//EN" "http://www.w3.org/Graphics/SVG/1.1/DTD/svg11.dtd"><svg t="1562816508671" class="icon" viewBox="0 0 1024 1024" version="1.1" xmlns="http://www.w3.org/2000/svg" p-id="2780" xmlns:xlink="http://www.w3.org/1999/xlink" width="64" height="64"><defs><style type="text/css"></style></defs><path d="M512 716.8a101.888 101.888 0 0 0-101.4272 102.4c0 56.5248 45.4144 102.4 101.4272 102.4a101.888 101.888 0 0 0 101.376-102.4c0-56.576-45.3632-102.4-101.376-102.4z m-215.04-114.7904l71.68 72.3968a201.3696 201.3696 0 0 1 286.7712 0l71.6288-72.3968a301.9776 301.9776 0 0 0-430.08 0zM153.6 457.1136l71.68 72.3968a402.6368 402.6368 0 0 1 573.3888 0L870.4 457.1136a503.3472 503.3472 0 0 0-716.8 0zM10.1888 312.32l71.68 72.3968a604.0064 604.0064 0 0 1 860.2112 0L1013.76 312.32a704.6656 704.6656 0 0 0-1003.5712 0z" fill="#FA8C16" p-id="2781"></path></svg>