<svg t="1602254810649" class="icon" viewBox="0 0 1024 1024" version="1.1" xmlns="http://www.w3.org/2000/svg" p-id="5751" width="200" height="200"><path d="M925.696 384q19.456 0 37.376 7.68t30.72 20.48 20.48 30.72 7.68 37.376q0 20.48-7.68 37.888t-20.48 30.208-30.72 20.48-37.376 7.68l-287.744 0 0 287.744q0 20.48-7.68 37.888t-20.48 30.208-30.72 20.48-37.376 7.68q-20.48 0-37.888-7.68t-30.208-20.48-20.48-30.208-7.68-37.888l0-287.744-287.744 0q-20.48 0-37.888-7.68t-30.208-20.48-20.48-30.208-7.68-37.888q0-19.456 7.68-37.376t20.48-30.72 30.208-20.48 37.888-7.68l287.744 0 0-287.744q0-19.456 7.68-37.376t20.48-30.72 30.208-20.48 37.888-7.68q39.936 0 68.096 28.16t28.16 68.096l0 287.744 287.744 0z" p-id="5752" fill="#1296db"></path></svg>