<svg t="1718869075082" class="icon" viewBox="0 0 1024 1024" version="1.1" xmlns="http://www.w3.org/2000/svg" p-id="13564" width="200" height="200"><path d="M274.344554 173.673875c16.429399 0 30.950568 8.00526 39.956484 20.338945a34.906655 34.906655 0 0 1 14.660796 15.754537l1.117013 2.815803 210.138065 597.927736c6.795162 19.268474-5.329083 40.817516-27.041022 48.147913-20.641469 6.95806-42.493035-1.419537-50.451753-18.803052l-1.117013-2.815803-54.477653-154.939008H134.997185L80.566074 837.039954c-6.771891 19.268474-29.856826 28.949253-51.568765 21.618855-20.641469-6.981331-32.602816-26.761769-27.925325-45.239025l0.861031-2.908888L212.047809 212.58316c4.025901-11.426112 13.799764-19.477914 25.598214-22.619512 9.029188-10.006575 22.107548-16.289773 36.67526-16.289773z m386.416675 169.460176c21.828295 0 39.723774 10.890876 41.469106 24.713912l0.116356 2.210755v461.652153c0 14.893506-18.616883 26.947938-41.585462 26.947938-21.805024 0-39.700503-10.890876-41.422565-24.737183l-0.162897-2.210755V370.081989c0-14.870235 18.616883-26.924667 41.585462-26.924667z m-389.697901-48.171184L163.620643 600.628812h214.88537l-107.442685-305.665945z m602.163076-206.181978a12.566396 12.566396 0 0 1 8.144887 8.051802l32.509731 99.041817 101.694723 36.07021a12.566396 12.566396 0 0 1-0.791218 23.922695l-99.53051 27.995137-30.857483 97.552467a12.566396 12.566396 0 0 1-23.899423 0.116355l-32.509732-99.018546-98.669479-31.322905a12.566396 12.566396 0 0 1-0.186169-23.876152l97.505924-32.812256 30.834212-97.529195a12.566396 12.566396 0 0 1 15.754537-8.191429zM649.544557 0.513593c2.676177 0.884302 4.770576 3.025243 5.608336 5.724692l18.523798 59.294772 60.970292 20.66474a8.796477 8.796477 0 0 1-0.325796 16.755194l-60.73758 18.058377-19.780438 59.550754a8.796477 8.796477 0 0 1-16.731924-0.162898l-18.523798-59.271501-59.062061-17.825665a8.796477 8.796477 0 0 1-0.395609-16.708653l59.574025-20.943993 19.780438-59.574025a8.796477 8.796477 0 0 1 11.100317-5.561794z" p-id="13565"></path></svg>