<svg xmlns="http://www.w3.org/2000/svg" width="24" height="24" viewBox="0 0 24 24" fill="none" stroke="currentColor" stroke-linecap="round" stroke-linejoin="round"><path d="M9.671 4.136a2.34 2.34 0 0 1 4.659 0a2.34 2.34 0 0 0 3.319 1.915a2.34 2.34 0 0 1 2.33 4.033a2.34 2.34 0 0 0 0 3.831a2.34 2.34 0 0 1-2.33 4.033a2.34 2.34 0 0 0-3.319 1.915a2.34 2.34 0 0 1-4.659 0a2.34 2.34 0 0 0-3.32-1.915a2.34 2.34 0 0 1-2.33-4.033a2.34 2.34 0 0 0 0-3.831A2.34 2.34 0 0 1 6.35 6.051a2.34 2.34 0 0 0 3.319-1.915"/><circle cx="12" cy="12" r="3"/></svg>
