<svg xmlns="http://www.w3.org/2000/svg" width="24" height="24" viewBox="0 0 24 24" fill="none" stroke="currentColor" stroke-linecap="round" stroke-linejoin="round"><path d="M15 8a1 1 0 0 1-1-1V2a2.4 2.4 0 0 1 1.704.706l3.588 3.588A2.4 2.4 0 0 1 20 8zm5 0v12a2 2 0 0 1-2 2h-4.182M3.305 19.53l.923-.382M4 10.592V4a2 2 0 0 1 2-2h8M4.228 16.852l-.924-.383m2.548-1.241l-.383-.923m.383 6.467l-.383.924m2.679-6.468l.383-.923m-.001 7.391l-.382-.924m1.625-3.92l.922-.383m-.922 2.679l.922.383"/><circle cx="7" cy="18" r="3"/></svg>
