<svg t="1702221805491" class="icon" viewBox="0 0 1024 1024" version="1.1" xmlns="http://www.w3.org/2000/svg" p-id="5932"><path d="M876.48 981.312H147.52a104.832 104.832 0 0 1-104.832-104.832V469.76a46.08 46.08 0 0 1 46.912-46.912 46.08 46.08 0 0 1 46.912 46.912v406.72c0 6.272 4.736 11.008 10.944 11.008h729.088a10.688 10.688 0 0 0 10.88-11.008V469.76a46.08 46.08 0 0 1 46.976-46.912 46.08 46.08 0 0 1 46.912 46.912v406.72c0 57.92-46.912 104.832-104.832 104.832z"  p-id="5933"></path><path d="M934.4 516.672a49.664 49.664 0 0 1-31.296-12.48L512 152.192l-391.104 352a46.784 46.784 0 0 1-65.728-3.2 48.64 48.64 0 0 1 3.2-67.2l422.4-378.624a47.616 47.616 0 0 1 62.528 0l422.4 378.624a46.784 46.784 0 0 1 3.136 65.664 46.08 46.08 0 0 1-34.432 17.28z" p-id="5934"></path><path d="M627.776 981.312H396.16a46.08 46.08 0 0 1-46.912-46.912V558.912A46.08 46.08 0 0 1 396.16 512h229.952a46.08 46.08 0 0 1 46.976 46.912V934.4a44.8 44.8 0 0 1-45.44 46.912z m-184.64-93.824h136.128v-281.6H443.136v281.6z" p-id="5935"></path></svg>
