<svg t="1722696508688" class="icon" viewBox="0 0 1024 1024" version="1.1" xmlns="http://www.w3.org/2000/svg" p-id="3155" width="48" height="48"><path d="M540.245333 645.888L426.410667 522.069333l1.365333-1.536a889.770667 889.770667 0 0 0 166.314667-322.048h131.413333V99.669333H411.562667V1.109333h-89.6v98.645334H7.850667v98.730666h500.906666a797.696 797.696 0 0 1-142.165333 263.936 778.581333 778.581333 0 0 1-103.594667-165.290666h-89.6c33.621333 82.176 78.677333 158.037333 133.546667 224.938666L78.848 769.706667l63.658667 69.973333 224.170666-246.613333 139.52 153.429333 34.133334-100.608z m252.501334-250.026667H703.061333l-201.813333 591.872h89.685333l50.261334-147.968h212.992l50.688 147.968h89.685333L792.746667 395.776zM675.242667 741.034667l72.618666-213.674667 72.704 213.674667H675.242667z" p-id="3156"></path></svg>
