<svg xmlns="http://www.w3.org/2000/svg" width="24" height="24" viewBox="0 0 24 24" fill="none" stroke="currentColor" stroke-linecap="round" stroke-linejoin="round"><path d="M15 21v-5a1 1 0 0 0-1-1h-4a1 1 0 0 0-1 1v5m8.774-10.69a1.12 1.12 0 0 0-1.549 0a2.5 2.5 0 0 1-3.451 0a1.12 1.12 0 0 0-1.548 0a2.5 2.5 0 0 1-3.452 0a1.12 1.12 0 0 0-1.549 0a2.5 2.5 0 0 1-3.77-3.248l2.889-4.184A2 2 0 0 1 7 2h10a2 2 0 0 1 1.653.873l2.895 4.192a2.5 2.5 0 0 1-3.774 3.244"/><path d="M4 10.95V19a2 2 0 0 0 2 2h12a2 2 0 0 0 2-2v-8.05"/></svg>
