<?xml version="1.0" encoding="utf-8"?>
<!-- Generator: Adobe Illustrator 21.0.0, SVG Export Plug-In . SVG Version: 6.00 Build 0)  -->
<svg version="1.1" id="图层_1" xmlns="http://www.w3.org/2000/svg" xmlns:xlink="http://www.w3.org/1999/xlink" x="0px" y="0px"
	 viewBox="0 0 92.5 92.5" style="enable-background:new 0 0 92.5 92.5;" xml:space="preserve">
<style type="text/css">
	.st0{fill:#E6F7F7;stroke:#5FD2D1;stroke-miterlimit:10;}
	.st1{fill:none;}
	.st2{fill:#13C2C2;}
</style>
<title>decision_1</title>
<g id="图层_2">
	<g id="图层_1-2">
		<path class="st0" d="M51,2.4l39.1,39.1c2.6,2.6,2.6,6.8,0,9.4L50.9,90.1c-2.6,2.6-6.8,2.6-9.4,0L2.4,51c-2.6-2.6-2.6-6.8,0-9.4
			L41.6,2.4C44.2-0.1,48.4-0.1,51,2.4z"/>
	</g>
</g>
<line class="st1" x1="31" y1="31" x2="62" y2="62"/>
<line class="st1" x1="144" y1="92" x2="178.5" y2="52.7"/>
<path class="st2" d="M49.6,46.2l15,15.2c0.7,0.7,0.7,1.8,0,2.5c-0.7,0.7-1.8,0.7-2.5,0L47,48.7l-15.2,15c-0.7,0.7-1.8,0.7-2.5,0
	c-0.7-0.7-0.7-1.8,0-2.5l15.2-15L29.5,31c-0.7-0.7-0.7-1.8,0-2.5c0.7-0.7,1.8-0.7,2.5,0l15,15.2l15.2-15c0.7-0.7,1.8-0.7,2.5,0
	c0.7,0.7,0.7,1.8,0,2.5L49.6,46.2L49.6,46.2z"/>
</svg>
