<?xml version="1.0" encoding="utf-8"?>
<!-- Generator: Adobe Illustrator 21.0.0, SVG Export Plug-In . SVG Version: 6.00 Build 0)  -->
<svg version="1.1" id="图层_1" xmlns="http://www.w3.org/2000/svg" xmlns:xlink="http://www.w3.org/1999/xlink" x="0px" y="0px"
	 viewBox="0 0 107 61" style="enable-background:new 0 0 107 61;" xml:space="preserve">
<style type="text/css">
	.st0{fill:#FFF1F0;stroke:#FF4D4F;stroke-miterlimit:10;}
	.st1{fill:#FF4D4F;}
</style>
<title>task_1</title>
<g id="图层_1-2">
	<path class="st0" d="M8.9,0.5h89.2c4.6,0,8.4,3.8,8.4,8.4v43.2c0,4.6-3.8,8.4-8.4,8.4H8.9c-4.6,0-8.4-3.8-8.4-8.4V8.9
		C0.5,4.3,4.3,0.5,8.9,0.5z"/>
	<path class="st1" d="M49.7,36.7l-0.8-2.5l0,0L48,36.7H49.7z M60.6,36.7l-0.8-2.5l0,0l-0.8,2.5H60.6z"/>
	<path class="st1" d="M67.1,28.9h-2.4v-6.1l-7.2-7.4H41.4c-1,0-1.8,0.8-1.8,1.9l0,0v11.7h-2.2c-0.3,0-0.7,0.3-0.7,0.7l0,0v12.4
		c0,0.3,0.3,0.7,0.7,0.7h2.2v2c0,1,0.8,1.9,1.8,1.9l0,0h21.5c1,0,1.8-0.8,1.8-1.9l0,0v-2.2h2.4c0.3,0,0.7-0.3,0.7-0.7V29.4
		C67.6,29.2,67.4,28.9,67.1,28.9z M41.7,17.6h14.8v6.1h6.1v5.4H41.7V17.6z M62.4,38.7h-1L61,37.2h-2.4l-0.5,1.5h-1l2.2-5.9h1
		L62.4,38.7z M56.8,32.8l-2,5.9h-1.2l-1.8-5.9h1l1.5,4.9l0,0l1.5-4.9H56.8z M51.4,38.7h-1l-0.5-1.5h-2.4l-0.5,1.5h-1l2.2-5.9h1
		L51.4,38.7z M43.5,37.9c0.3,0,0.5-0.2,0.7-0.3c0.2-0.3,0.2-0.7,0.2-1v-3.7h1v4.1c0,0.5-0.2,1-0.3,1.5c-0.3,0.3-0.8,0.5-1.3,0.5
		c-0.5,0-1-0.2-1.3-0.5C42,38,41.9,37.5,41.9,37v-0.2h1V37C42.7,37.5,43,37.9,43.5,37.9z M62.5,44.3H41.7v-1.9h20.8V44.3z"/>
</g>
</svg>
