<?xml version="1.0" encoding="utf-8"?>
<!-- Generator: Adobe Illustrator 21.0.0, SVG Export Plug-In . SVG Version: 6.00 Build 0)  -->
<svg version="1.1" id="图层_1" xmlns="http://www.w3.org/2000/svg" xmlns:xlink="http://www.w3.org/1999/xlink" x="0px" y="0px"
	 viewBox="0 0 107 61" style="enable-background:new 0 0 107 61;" xml:space="preserve">
<style type="text/css">
	.st0{fill:#F6FFED;stroke:#73D13D;stroke-miterlimit:10;}
	.st1{fill:#73D13D;}
</style>
<title>task_1</title>
<g id="图层_1-2">
	<path class="st0" d="M8.9,0.5h89.2c4.6,0,8.4,3.8,8.4,8.4v43.2c0,4.6-3.8,8.4-8.4,8.4H8.9c-4.6,0-8.4-3.8-8.4-8.4V8.9
		C0.5,4.3,4.3,0.5,8.9,0.5z"/>
	<path class="st1" d="M66.2,18.6H40.8c-1.7,0-3,1.3-3,3v17.9c0,1.7,1.3,3,3,3h25.3c1.7,0,3-1.3,3-3V21.6
		C69.1,19.9,67.8,18.6,66.2,18.6z M65.1,24.2L55.6,33c-1.1,1.1-2.8,1.1-4.1,0l-9.4-8.8c-0.4-0.4-0.4-0.9,0-1.5
		c0.4-0.4,0.9-0.4,1.5,0l9.4,8.8c0.4,0.4,0.9,0.4,1.3,0l9.4-8.8c0.4-0.4,1.1-0.4,1.5,0C65.4,23.3,65.4,23.8,65.1,24.2z"/>
</g>
</svg>
