<?xml version="1.0" encoding="utf-8"?>
<!-- Generator: Adobe Illustrator 21.0.0, SVG Export Plug-In . SVG Version: 6.00 Build 0)  -->
<svg version="1.1" id="图层_1" xmlns="http://www.w3.org/2000/svg" xmlns:xlink="http://www.w3.org/1999/xlink" x="0px" y="0px"
	 viewBox="0 0 68 68" style="enable-background:new 0 0 68 68;" xml:space="preserve">
<style type="text/css">
	.st0{fill:#FCF1E8;}
	.st1{fill:#F9AA68;}
	.st2{fill:#FA8C16;}
</style>
<title>start_1</title>
<g id="图层_2">
	<g id="图层_1-2">
		<path class="st0" d="M34,67.5c-18.5,0-33.5-15-33.5-33.5S15.5,0.5,34,0.5s33.5,15,33.5,33.5S52.5,67.5,34,67.5z"/>
		<path class="st1" d="M34,1c18.2,0,33,14.8,33,33S52.2,67,34,67S1,52.2,1,34S15.8,1,34,1 M34,0C15.2,0,0,15.2,0,34s15.2,34,34,34
			s34-15.2,34-34S52.8,0,34,0z"/>
	</g>
</g>
<path class="st2" d="M27,34.2h15.4c0.6,0,1.1,0.5,1.1,1.1c0,0.6-0.5,1.1-1.1,1.1H27c-0.6,0-1.1-0.5-1.1-1.1
	C25.9,34.7,26.4,34.2,27,34.2z M27,27.9h15.4c0.6,0,1.1,0.5,1.1,1.1S43.1,30,42.5,30H27c-0.6,0-1.1-0.5-1.1-1.1S26.4,27.9,27,27.9z
	 M27.5,47l6.5-4.9c0.3-0.3,0.8-0.5,1.4-0.5h12.1c0.6,0,1.1-0.5,1.1-1.1v-17c0-0.6-0.5-1.1-1.1-1.1H22c-0.6,0-1.1,0.5-1.1,1.1v17
	c0,0.6,0.5,1.1,1.1,1.1h3.3c1.3,0,2.2,0.9,2.2,2.1V47L27.5,47z M35.2,43.8L28,49.3c-0.8,0.6-1.7,0.5-2.4-0.3
	c-0.2-0.3-0.3-0.6-0.3-0.9v-4.3H22c-1.9,0-3.3-1.4-3.3-3.2v-17c0-1.8,1.4-3.2,3.3-3.2h25.4c1.9,0,3.3,1.4,3.3,3.2v17
	c0,1.8-1.4,3.2-3.3,3.2C47.5,43.8,35.2,43.8,35.2,43.8z"/>
</svg>
