<?xml version="1.0" encoding="utf-8"?>
<!-- Generator: Adobe Illustrator 21.0.0, SVG Export Plug-In . SVG Version: 6.00 Build 0)  -->
<svg version="1.1" id="图层_1" xmlns="http://www.w3.org/2000/svg" xmlns:xlink="http://www.w3.org/1999/xlink" x="0px" y="0px"
	 viewBox="0 0 92.5 56" style="enable-background:new 0 0 92.5 56;" xml:space="preserve">
<style type="text/css">
	.st0{fill:#FEF7E8;stroke:#FA8C16;stroke-miterlimit:10;}
	.st1{fill:#FA8C16;}
</style>
<polygon class="st0" points="46.2,56 91.2,1.4 1.1,1.4 "/>
<path class="st1" d="M39.3,18.9h14c0.6,0,1,0.4,1,1s-0.4,1-1,1h-14c-0.6,0-1-0.4-1-1S38.7,18.9,39.3,18.9z M39.3,12.9h14
	c0.6,0,1,0.4,1,1s-0.4,1-1,1h-14c-0.6,0-1-0.4-1-1S38.7,12.9,39.3,12.9z M39.8,30.8l5.8-4.5c0.4-0.3,0.8-0.4,1.2-0.4h11
	c0.6,0,1-0.4,1-1v-16c0-0.6-0.4-1-1-1h-23c-0.6,0-1,0.4-1,1v16c0,0.6,0.4,1,1,1h3c1.1,0,2,0.9,2,2V30.8L39.8,30.8z M46.8,27.9
	L40.2,33c-0.7,0.5-1.6,0.4-2.1-0.3c-0.2-0.3-0.3-0.6-0.3-0.9v-3.9h-3c-1.7,0-3-1.3-3-3v-16c0-1.7,1.3-3,3-3h23c1.7,0,3,1.3,3,3v16
	c0,1.7-1.3,3-3,3C57.8,27.9,46.8,27.9,46.8,27.9z"/>
</svg>
