<?xml version="1.0" encoding="utf-8"?>
<!-- Generator: Adobe Illustrator 21.0.0, SVG Export Plug-In . SVG Version: 6.00 Build 0)  -->
<svg version="1.1" id="图层_1" xmlns="http://www.w3.org/2000/svg" xmlns:xlink="http://www.w3.org/1999/xlink" x="0px" y="0px"
	 viewBox="0 0 92.5 92.5" style="enable-background:new 0 0 92.5 92.5;" xml:space="preserve">
<style type="text/css">
	.st0{fill:#E6F7F7;stroke:#5FD2D1;stroke-miterlimit:10;}
	.st1{fill:none;}
	.st2{fill:#13C2C2;}
</style>
<title>decision_1</title>
<g id="图层_2">
	<g id="图层_1-2">
		<path class="st0" d="M51,2.4l39.1,39.1c2.6,2.6,2.6,6.8,0,9.4L50.9,90.1c-2.6,2.6-6.8,2.6-9.4,0L2.4,51c-2.6-2.6-2.6-6.8,0-9.4
			L41.6,2.4C44.2-0.1,48.4-0.1,51,2.4z"/>
	</g>
</g>
<line class="st1" x1="31" y1="31" x2="62" y2="62"/>
<line class="st1" x1="144" y1="92" x2="178.5" y2="52.7"/>
<path class="st2" d="M48.9,48l0.3,21.4c0,1-0.7,1.8-1.7,1.8c-1,0-1.8-0.7-1.8-1.7L45.3,48l-21.4,0.3c-1,0-1.8-0.7-1.8-1.7
	c0-1,0.7-1.8,1.7-1.8l21.4-0.3l-0.3-21.4c0-1,0.7-1.8,1.7-1.8c1,0,1.8,0.7,1.8,1.7l0.3,21.4l21.4-0.3c1,0,1.8,0.7,1.8,1.7
	c0,1-0.7,1.8-1.7,1.8L48.9,48L48.9,48z"/>
</svg>
