<?xml version="1.0" encoding="utf-8"?>
<!-- Generator: Adobe Illustrator 21.0.0, SVG Export Plug-In . SVG Version: 6.00 Build 0)  -->
<svg version="1.1" id="图层_1" xmlns="http://www.w3.org/2000/svg" xmlns:xlink="http://www.w3.org/1999/xlink" x="0px" y="0px"
	 viewBox="0 0 107 61" style="enable-background:new 0 0 107 61;" xml:space="preserve">
<style type="text/css">
	.st0{fill:#FFF0F6;stroke:#FF85C0;stroke-miterlimit:10;}
	.st1{fill:#FF85C0;}
</style>
<title>task_1</title>
<g id="图层_1-2">
	<path class="st0" d="M8.9,0.5h89.2c4.6,0,8.4,3.8,8.4,8.4v43.2c0,4.6-3.8,8.4-8.4,8.4H8.9c-4.6,0-8.4-3.8-8.4-8.4V8.9
		C0.5,4.3,4.3,0.5,8.9,0.5z"/>
	<path class="st1" d="M47.2,23h8.6c0.7,0,1.2,0.5,1.2,1.2c0,0.7-0.5,1.2-1.2,1.2h-8.6c-0.7,0-1.2-0.5-1.2-1.2
		C46.2,23.5,46.7,23,47.2,23z M47.2,18.7h4.3c0.7,0,1.2,0.5,1.2,1.2c0,0.7-0.5,1.2-1.2,1.2h-4.3c-0.7,0-1.2-0.5-1.2-1.2
		C46.1,19.2,46.7,18.7,47.2,18.7z M44.1,29.4c3.3,1.3,7.4,2.2,9.8,2.2s6.5-0.8,9.8-2.2V17.5c-0.2-0.5-0.7-1-1.2-1H45.1
		c-0.5,0-1,0.5-1,1V29.4L44.1,29.4z M66.3,28.3c0.3-0.3,0.5-0.7,0.5-1s-0.3-1-1.2-1.5v2.6C65.9,28.4,66.1,28.3,66.3,28.3z
		 M38.6,27.3c0-1.5,1.2-3,3.3-4v-5.8c0-1.8,1.5-3.3,3.3-3.3h17.2c1.8,0,3.3,1.5,3.3,3.3v5.8c2,1.2,3.3,2.5,3.3,4v14.1
		c0,1.8-1.5,3.3-3.3,3.3H41.9c-1.8,0-3.3-1.5-3.3-3.3V27.3z M41.3,28.3c0.2,0.2,0.3,0.2,0.7,0.3V26c-0.7,0.5-1.2,1-1.2,1.5
		C40.8,27.6,41,27.9,41.3,28.3z"/>
</g>
</svg>
