<?xml version="1.0" encoding="utf-8"?>
<!-- Generator: Adobe Illustrator 21.0.0, SVG Export Plug-In . SVG Version: 6.00 Build 0)  -->
<svg version="1.1" id="图层_1" xmlns="http://www.w3.org/2000/svg" xmlns:xlink="http://www.w3.org/1999/xlink" x="0px" y="0px"
	 viewBox="0 0 68 68" style="enable-background:new 0 0 68 68;" xml:space="preserve">
<style type="text/css">
	.st0{fill:#FCF1E8;}
	.st1{fill:#F9AA68;}
	.st2{fill:#FA8C16;}
</style>
<title>start_1</title>
<g id="图层_2">
	<g id="图层_1-2">
		<path class="st0" d="M34,67.5c-18.5,0-33.5-15-33.5-33.5S15.5,0.5,34,0.5s33.5,15,33.5,33.5S52.5,67.5,34,67.5z"/>
		<path class="st1" d="M34,1c18.2,0,33,14.8,33,33S52.2,67,34,67S1,52.2,1,34S15.8,1,34,1 M34,0C15.2,0,0,15.2,0,34s15.2,34,34,34
			s34-15.2,34-34S52.8,0,34,0z"/>
	</g>
</g>
<path class="st2" d="M34.4,40c-1.8,0-3.3,1.5-3.3,3.4l0,0c0,1.9,1.5,3.4,3.3,3.4c1.8,0,3.3-1.5,3.3-3.4l0,0
	C37.8,41.5,36.3,40,34.4,40z M27.4,36.1l2.4,2.4c2.5-2.7,6.7-2.7,9.3,0l0,0l2.4-2.4C37.6,32.3,31.4,32.3,27.4,36.1L27.4,36.1z
	 M22.7,31.4l2.4,2.4c5.2-5.2,13.5-5.2,18.7-0.1l0.1,0.1l2.4-2.4c-6.4-6.4-16.9-6.5-23.4-0.1C22.8,31.4,22.8,31.4,22.7,31.4z
	 M18.1,26.6l2.4,2.4c7.7-7.9,20.2-7.9,28-0.1l0.1,0.1l2.4-2.4c-8.9-9-23.6-9.2-32.6-0.3C18.2,26.5,18.1,26.6,18.1,26.6z"/>
</svg>
