<?xml version="1.0" encoding="utf-8"?>
<!-- Generator: Adobe Illustrator 21.0.0, SVG Export Plug-In . SVG Version: 6.00 Build 0)  -->
<svg version="1.1" id="图层_1" xmlns="http://www.w3.org/2000/svg" xmlns:xlink="http://www.w3.org/1999/xlink" x="0px" y="0px"
	 viewBox="0 0 92.5 56" style="enable-background:new 0 0 92.5 56;" xml:space="preserve">
<style type="text/css">
	.st0{fill:#FEF7E8;stroke:#FA8C16;stroke-miterlimit:10;}
	.st1{fill:#FA8C16;}
</style>
<polygon class="st0" points="46.2,56 91.2,1.4 1.1,1.4 "/>
<path class="st1" d="M46.3,25.7c-1.7,0-3,1.4-3,3.1l0,0c0,1.7,1.4,3.1,3,3.1c1.7,0,3-1.4,3-3.1l0,0C49.4,27.1,48,25.7,46.3,25.7z
	 M39.9,22.3l2.1,2.2c2.3-2.4,6.1-2.4,8.5-0.1c0,0,0,0,0.1,0.1l2.1-2.2C49.3,18.7,43.6,18.7,39.9,22.3C40,22.2,39.9,22.2,39.9,22.3z
	 M35.6,17.9l2.1,2.2c4.7-4.7,12.3-4.8,17-0.1l0.1,0.1l2.1-2.2c-5.8-5.9-15.4-6-21.3-0.1C35.7,17.8,35.7,17.9,35.6,17.9z M31.3,13.6
	l2.1,2.2c7-7.1,18.4-7.2,25.6-0.2c0.1,0.1,0.1,0.1,0.2,0.2l2.1-2.2c-8.2-8.3-21.5-8.4-29.8-0.2C31.5,13.5,31.4,13.5,31.3,13.6z"/>
</svg>
