<?xml version="1.0" encoding="utf-8"?>
<!-- Generator: Adobe Illustrator 21.0.0, SVG Export Plug-In . SVG Version: 6.00 Build 0)  -->
<svg version="1.1" id="图层_1" xmlns="http://www.w3.org/2000/svg" xmlns:xlink="http://www.w3.org/1999/xlink" x="0px" y="0px"
	 viewBox="0 0 92.5 56" style="enable-background:new 0 0 92.5 56;" xml:space="preserve">
<style type="text/css">
	.st0{fill:#FEF7E8;stroke:#FA8C16;stroke-miterlimit:10;}
	.st1{fill:#FA8C16;}
</style>
<polygon class="st0" points="46.2,56 91.2,1.4 1.1,1.4 "/>
<path class="st1" d="M46.3,6.2c-7.4,0-13.4,6-13.4,13.4S38.9,33,46.3,33s13.4-6,13.4-13.4S53.7,6.2,46.3,6.2z M46.3,30.4
	c-6,0-10.8-4.8-10.8-10.8S40.3,8.8,46.3,8.8s10.8,4.8,10.8,10.8S52.2,30.4,46.3,30.4z M49.6,24.7L45,21.4c-0.2-0.1-0.3-0.3-0.3-0.5
	V12c0-0.4,0.3-0.6,0.6-0.6H47c0.4,0,0.6,0.3,0.6,0.6v7.6l3.6,2.6c0.3,0.2,0.4,0.6,0.1,0.9l-1,1.4C50.3,24.9,49.9,24.9,49.6,24.7z"/>
</svg>
