<?xml version="1.0" encoding="utf-8"?>
<!-- Generator: Adobe Illustrator 21.0.0, SVG Export Plug-In . SVG Version: 6.00 Build 0)  -->
<svg version="1.1" id="图层_1" xmlns="http://www.w3.org/2000/svg" xmlns:xlink="http://www.w3.org/1999/xlink" x="0px" y="0px"
	 viewBox="0 0 107 61" style="enable-background:new 0 0 107 61;" xml:space="preserve">
<style type="text/css">
	.st0{fill:#E6F2FC;stroke:#5CAFFB;stroke-miterlimit:10;}
	.st1{fill:#1890FF;}
</style>
<title>task_1</title>
<g id="图层_2">
	<g id="图层_1-2">
		<path class="st0" d="M8.9,0.5h89.2c4.6,0,8.4,3.8,8.4,8.4v43.2c0,4.6-3.8,8.4-8.4,8.4H8.9c-4.6,0-8.4-3.8-8.4-8.4V8.9
			C0.5,4.3,4.3,0.5,8.9,0.5z"/>
	</g>
</g>
<path class="st1" d="M47.3,21.5c0-3.3,0.3-5.8,3.5-7.4c0.7-0.3,2.2-0.5,2.8-0.5c0.8,0,0-0.7,1.8-0.7s4.1,0.8,5.3,3.1s1.3,5,1.3,5.6
	c0,0.7,0.7,0.3,0.7,1.3c0,1-0.3,2.8-1.3,4c-1,1.3-1.3,1.5-2,2.5c-0.7,1-1,2-1,2.8c0,3.1,5.3,3.3,8.4,5.3c1.2,0.8,2,1.8,2.5,3
	c0.5,1.2-0.2,2.3-1.2,2.6c-0.2,0.2-0.5,0.2-0.8,0.2H41.9c-1.2,0-2.2-1-2.2-2.2c0-0.3,0-0.5,0.2-0.8c0.5-1.2,1.3-2.2,2.5-3
	c3.1-2,8.4-2.2,8.4-5.3c0-0.8-0.3-1.8-1-2.8s-1-1.3-2-2.5c-1-1.3-1.3-3.1-1.3-4C46.5,22,47.3,22.2,47.3,21.5z"/>
</svg>
