<svg xmlns="http://www.w3.org/2000/svg" xmlns:xlink="http://www.w3.org/1999/xlink" viewBox="0 0 900 600">
<rect width="900" height="600" fill="#000"/>
<rect width="900" height="400" fill="#fff"/>
<rect width="900" height="200" fill="#ce1126"/>
<g fill="#fff" stroke="#c09300">
<path stroke-width="1.2703" stroke-linejoin="round" d="m450.81,302.4,68.488,63.579-4.8759-115.47c-0.71638-17.5-15.924-13.485-26.971-7.1723-11.191,7.1723-23.958,7.1723-37.446,2.437-13.485,4.7353-26.253,4.7353-37.444-2.437-11.046-6.3123-26.252-10.328-26.97,7.1723l-4.8789,115.47,70.098-63.579z"/>
<g id="w" fill="#c09300" stroke="none">
<path d="m393.47,246.49-4.7342,112.32-8.0347,7.168,4.8784-115.47c2.2949-1.5782,6.3132-4.0171,7.8905-4.0171z"/>
<path d="m403.09,254.53-4.0171,93.955-8.0323,8.2204,4.8772-108.49c1.5791,1.577,6.3138,5.4498,7.1721,6.3104z"/>
<path d="m411.84,261.7-3.1545,78.362-6.4556,6.3092,4.0177-89.405c1.5748,1.5782,4.7311,3.8734,5.5924,4.7334z"/>
<path d="m421.31,265.72-3.1563,66.787-6.3132,5.1193,3.1563-74.344c1.5791,0.71638,4.7348,2.4376,6.3132,2.4376z"/>
<path d="m430.06,265.72-2.2974,55.657-6.4544,6.3129,2.4392-61.252c1.576-0.00061,5.5937-0.00061,6.3126-0.7182z"/>
</g>
<use xlink:href="#w" transform="matrix(-1,0,0,1,900,0)"/>
<path fill="#c09300" stroke-width="1.0739" d="m453.16,315.06,9.6126,43.755-3.1575,3.1552-3.2993-2.4388-5.4518-39.018,2.2955,39.018-3.1569,4.0158-3.1563-4.0158,2.2962-39.018-5.4506,39.018-3.3024,2.4388-3.1545-3.1552,9.6113-43.755h6.3138z"/>
<g id="b" fill="none" stroke-width="1.2705" stroke-linejoin="round">
<path fill="#fff" stroke-width="1.1888" d="m428.48,295.84-19.08,67.705,26.255,4.0177,11.188-50.924-18.363-20.799z"/>
<path d="m422.17,318.94,2.2955,5.5928,12.405-11.848"/>
<path d="m430.76,304.92,2.5957,24.346,7.8905-10.328"/>
<path d="m438.09,322.95,4.31,14.875"/>
<path d="m444.09,332.36-8.7177,13.241m2.7189,13.216-2.7902-13.198-2.4356-13.423-5.8406,7.9091-2.5613-9.1191-8.1747,8.3847,4.1575,15.251,5.7375-9.4349,3.1557,9.6123,5.8903-9.1621"/>
<path d="m414.99,361.97,5.2997-7.4437,3.4528,11.457,4.7342-8.0323,3.1575,9.6136"/>
</g>
<use xlink:href="#b" transform="matrix(-1,0,0,1,900,0)"/>
<g stroke-width="1.2705" stroke-linejoin="round" stroke-linecap="round">
<path stroke-width="2.3777" stroke-linejoin="round" d="m450,393.81c19.943,0,39.024-1.5776,50.213-4.734,4.7354-0.8588,4.7354-3.2976,4.7354-6.4553,4.7354-1.5776,2.2949-7.1704,5.5943-7.1704-3.2994,0.86244-4.0158-5.5941-8.0329-4.7316,0-5.5965-5.5955-6.3129-10.33-4.7377-9.4695,3.1576-26.255,3.8752-42.18,3.8752-15.924-0.71758-32.567-0.71758-42.179-3.8752-4.7342-1.5752-10.327-0.85881-10.327,4.7377-4.0183-0.86245-4.7354,5.5941-8.0341,4.7316,3.2988,0,0.85954,5.5928,5.5943,7.1704,0,3.1576,0,5.5965,4.8778,6.4553,11.045,3.1564,30.128,4.734,50.068,4.734z"/>
<path d="m422.89,363.54c6.4544,0.86123,13.628,1.5776,19.225,0.86123,3.1533,0,5.4494,5.4504-0.86257,6.3129-5.5931,0.71515-14.345,0-19.08-0.86245-4.0171-0.71759-12.768-2.2946-18.364-3.8752-5.5949-2.4364-1.576-7.168,1.5772-6.4522,4.879,1.577,11.192,3.1564,17.505,4.0158z"/>
<path d="m477.12,363.54c-6.4569,0.86123-13.628,1.5776-19.081,0.86123-3.3006,0-5.5961,5.4504,0.71711,6.3129,5.5955,0.71515,14.347,0,19.078-0.86245,4.0189-0.71759,12.769-2.2946,18.364-3.8752,5.5967-2.4364,1.5803-7.168-1.5772-6.4522-4.8778,1.577-11.19,3.1564-17.501,4.0158z"/>
<path d="m403.09,360.39c-4.8771-0.86123-7.1723,4.7316-5.5928,7.8868,0.71637-1.5776,4.0164-1.5776,4.7346-3.1552,0.8582-2.437-0.7182-2.437,0.8582-4.7316z"/>
<path d="m422.17,375.06c0-3.1528,3.1545-2.7651,3.1545-5.9215,0-1.577-0.85893-4.0171-2.4368-4.0171-1.5785,0-3.1575,1.5776-3.1575,3.1552-0.7177,3.157,2.4398,3.6312,2.4398,6.7834z"/>
<path d="m444.88,365.98c4.7305,0,4.2618,6.3141,1.9656,9.4699,0-2.2952-4.0164-3.1558-4.0164-4.7316,0-2.4419,3.6262-2.4419,2.0508-4.7383z"/>
<path d="m496.91,360.39c4.8777-0.86123,7.1741,4.7316,5.5953,7.8868-0.71819-1.5776-4.017-1.5776-4.734-3.1552-0.86124-2.437,0.71759-2.437-0.86124-4.7316z"/>
<path d="m477.83,375.06c0-3.1528-3.1532-2.7651-3.1532-5.9215,0-1.577,0.85953-4.0171,2.438-4.0171,1.5772,0,3.1563,1.5776,3.1563,3.1552,0.71771,3.157-2.441,3.6312-2.441,6.7834z"/>
<path d="m455.12,365.98c-4.7323,0-4.263,6.3141-1.9674,9.4699,0-2.2952,4.0158-3.1558,4.0158-4.7316,0.00061-2.4419-3.6262-2.4419-2.0484-4.7383z"/>
<g stroke-width="0.8915">
<path d="m404.67,361.97c1.58,0,4.0177,0.71758,4.7353,1.577l-4.74-1.58z"/>
<path d="m412.55,364.41c0.86184,0,4.0183,0.71639,5.5959,1.5752l-5.6-1.58z"/>
<path d="m441.25,367.56c-1.5776,0-4.734,0-5.5928,0.71516l5.59-0.72z"/>
<path d="m432.5,367.56c-0.8588-0.86245-4.0165-0.86245-5.5935,0h5.59z"/>
<path d="m495.34,361.97c-1.5776,0-3.8746,0.71758-4.7353,1.577l4.7353-1.577z"/>
<path d="m487.45,364.41c-0.86002,0-4.0171,0.71639-5.5953,1.5752l5.6-1.58z"/>
<path d="m458.75,367.56c1.5794,0,4.7352,0,5.5953,0.71516l-5.6-0.72z"/>
<path d="m467.5,367.56c0.86002-0.86245,4.0183-0.86245,5.5953,0h-5.6z"/>
</g>
<g fill="#c09300" stroke="none">
<path d="m403.34,374.58c-0.53406-0.10208-0.81452-0.52459-0.68011-1.0246,0.16371-0.609,0.65161-0.95739,1.1126-0.79442,0.29312,0.10362,0.82973,0.64469,0.83184,0.83874,0.003,0.22275-0.28059,0.75257-0.40266,0.75379-0.0527,0.00053-0.1342,0.0465-0.18122,0.10201-0.10001,0.11816-0.41341,0.17549-0.68041,0.12446z"/>
<path d="m458.27,378.5c-0.19869-0.0736-0.51521-0.5185-0.51485-0.72377,0.002-0.38717,0.57418-1.0178,0.92881-1.0214,0.17516-0.001,0.65475,0.2481,0.83411,0.43462,0.32504,0.33789,0.25419,0.89278-0.15423,1.2079-0.20096,0.15505-0.80025,0.21125-1.0938,0.1026z"/>
<path d="m458.63,380.98c-0.42018-0.14209-0.57388-0.34776-0.60803-0.8136-0.0355-0.4854,0.0116-0.56097,0.52453-0.84064l0.36556-0.19931,0.34646,0.1545c0.47988,0.21397,0.69338,0.44463,0.71031,0.76742,0.0182,0.34768-0.2397,0.70345-0.64012,0.8829-0.35162,0.15758-0.37253,0.15904-0.69871,0.0488z"/>
<path d="m407.75,370.09c-0.34619-0.0109-0.82136,0.30729-1.0938,0.46875-0.64912,0.15215-1.4047,0.5511-2.0312,0.125-0.61719-0.19079-1.438-0.0404-1.5312,0.71875,0.15839,0.65179,1.0715,1.0243,1.625,0.59375,0.4106-0.53758,1.5312-0.8528,1.6562,0.0625-0.45705,0.69215-0.40489,1.6089-0.78125,2.3438-0.0612,0.45773-0.25176,0.8924-0.5,1.2812-0.4621,0.0464-0.95375-0.008-1.3438,0.28125-0.62601,0.0342-1.2647,0.34537-1.625,0.875-0.40338,0.57818-0.78869,1.1654-0.90625,1.875,0.10725,0.72494,0.93754,0.93275,1.5625,0.96875,0.66694,0.18359,1.3344,0.42433,2,0.625,1.0853,0.24303,2.102,0.63539,3.1875,0.875,1.5844,0.47758,3.2479,0.69739,4.8438,1.125,0.16722,0.0555,0.32405,0.1038,0.5,0.125,0.66233,0.13773,1.0079-0.58289,1.0625-1.125,0.32864-1.1596,0.57948-2.3391,0.90625-3.5,0.22487-0.46559,0.49645-1.5172-0.40625-1.2812-0.51485,0.30872-0.95182,0.7734-1.5938,0.8125-0.87392,0.0509-0.37513,0.94518-0.0312,1.3125,0.0759,0.5872-0.10989,1.2888-0.5,1.75-0.51994,0.32957-1.1716-0.0561-1.7188-0.1875-0.57469,0.01-1.7234-0.28325-1.1875-1.0625,0.19033-0.57691,0.20718-1.2083,0.4375-1.7812,0.29353-0.61455,0.33553-1.2851,0.46875-1.9375-0.36122-0.77733-0.97856,0.25585-1.4688,0.34375-0.33769,0.23455-1.6054,0.33418-0.9375,0.9375,0.57518,0.43696,0.1343,1.1967,0.0312,1.75-0.0369,0.77025-0.83781,0.95394-1.4688,0.78125-0.62768-0.0303-1.5013-0.49748-0.96875-1.1875,0.12115-0.57512,0.322-1.1402,0.4375-1.7188,0.2374-0.69777,0.43732-1.3628,0.6875-2.0625,0.10851-0.61996,0.33113-1.2079,0.625-1.75,0.0173-0.68543,0.47775-1.2752,0.46875-1.9688-0.0469-0.33876-0.19853-0.4622-0.40625-0.46875zm-3.5938,7.25c0.0817-0.0141,0.1399-0.002,0.21875,0.0312,0.24971,0.10625,0.25708,0.30938,0,0.53125-0.11238,0.097-0.23995,0.1905-0.28125,0.1875-0.46771-0.0402-0.6056-0.10974-0.625-0.28125-0.0172-0.15117,0.0307-0.19455,0.34375-0.34375,0.15556-0.0742,0.26207-0.11086,0.34375-0.125z"/>
<path d="m403.12,382.36c-0.49596-0.46627-0.41621-0.80642,0.31729-1.3532,0.31384-0.23393,0.50421-0.20747,0.8631,0.11997,0.55237,0.50393,0.57448,0.82295,0.0869,1.2548-0.24101,0.21344-0.34645,0.25721-0.62697,0.26001-0.29347,0.003-0.3766-0.0334-0.64036-0.28155z"/>
<path d="m406.17,383.28c-0.48488-0.11955-0.76441-0.60787-0.62254-1.0876,0.12852-0.43459,0.20285-0.47736,0.84026-0.48378,0.71478-0.007,0.85352,0.11244,0.86039,0.74185,0.004,0.35432-0.0235,0.43652-0.19971,0.60041-0.2071,0.19261-0.6052,0.29644-0.8784,0.22908z"/>
<path d="m495.28,383.36c-0.22701-0.18894-0.27272-0.27435-0.27532-0.51479-0.003-0.41064,0.23349-0.71172,0.74605-0.94382,0.68183-0.30882,0.95981-0.26636,1.2166,0.18575,0.34158,0.60129,0.32512,0.84675-0.0839,1.252-0.22578,0.22366-0.26805,0.2367-0.78493,0.2419-0.50756,0.003-0.56562-0.0105-0.8185-0.22102z"/>
<path d="m410.22,384.51c-0.36389-0.0971-0.5525-0.37016-0.55726-0.80675-0.004-0.33383,0.0201-0.38706,0.25362-0.56985,0.15122-0.11834,0.39018-0.21971,0.57856-0.24541,0.2669-0.0365,0.36442-0.0132,0.57916,0.13775,0.55052,0.38698,0.66746,0.76972,0.3487,1.1412-0.33953,0.39572-0.66141,0.48753-1.2028,0.34303z"/>
<path d="m432.14,385.49c-0.0807-0.10062-0.25916-0.16012-0.2775-0.287,0.032-0.55487,0.0585-1.1167,0.23525-1.6482,0.0962-0.52301,0.012-1.0692,0.19432-1.5787,0.18698-0.92682,0.18682-1.8826,0.40217-2.8036,0.01-0.47427,0.0549-0.949,0.19241-1.4054,0.15774-0.72168,0.0136-1.4762,0.22606-2.1894-0.0228-0.26786,0.28574-0.98321,0.55658-0.55944,0.39321,0.57645,0.91139,1.0451,1.4208,1.5153,0.43771,0.25252,0.0359,0.62445-0.26658,0.74975-0.41521,0.16364-0.51613,0.62086-0.48666,1.0222-0.0582,0.41455-0.22464,0.80685-0.24153,1.23-0.0878,0.62242-0.0706,1.2546-0.15153,1.8765-0.18211,0.60901-0.11244,1.2597-0.17323,1.8875,0.008,0.39859-0.18142,0.7606-0.15525,1.1604-0.0484,0.40592-0.0665,0.89432-0.40713,1.1724-0.32888,0.16605-0.80429,0.13737-1.0682-0.14228z"/>
<path d="m461.84,375.69c-0.48222,0.36463-0.91353,0.79527-1.3438,1.2188-0.59251,0.4489,0.48677,0.70998,0.625,1.0938,0.15716,0.58638,0.1478,1.2106,0.1875,1.8125,0.17923,0.55142,0.25835,1.1384,0.21875,1.7188-0.0519,0.6223-0.86338,0.49115-1.2188,0.84375-0.49176,0.20722-0.68789,0.69047-1.0625,1.0312-0.24625,0.48275-0.31215,1.0763-0.34375,1.625,0.0353,0.44788-0.30248,0.94931,0,1.3438,0.039,0.0557,0.0852,0.132,0.125,0.1875,0.10115,0.1452,0.3425,0.0292,0.5,0.0625,0.50368-0.0282,1.0285,0.0473,1.5-0.15625,1.21-0.20943,2.4311-0.22605,3.6562-0.28125,0.74925,0.0239,1.4701-0.23695,2.2188-0.21875,0.58681,0.12974,0.85075-0.50626,0.84375-0.96875-0.33224-0.65359-0.045-1.4285-0.3125-2.0938-0.23494-0.67246-0.14236-1.428-0.25-2.125-0.0148-0.54835-0.71068-0.75172-1.0625-0.34375-0.34144,0.34514-0.89289,0.41403-1.1562,0.84375-0.29659,0.60239,0.62745,0.60317,0.78125,1.0625,0.17589,0.4642,0.11825,0.98059,0.15625,1.4688,0.11422,0.59237-0.52919,0.6262-0.9375,0.6875-0.53675,0.20112-1.29,0.33589-1.5938-0.3125-0.1909-0.47948-0.16475-0.99286-0.21875-1.5-0.0131-0.89182-0.22755-1.7684-0.28125-2.6562-0.0514-1.0968-0.2407-2.1866-0.3125-3.2812-0.01-0.45549-0.0706-1.198-0.71875-1.0625zm-0.625,8.25,0.3125,0.0312,0.0312,0.375,0.0312,0.375-0.40625,0.125c-0.21512,0.0636-0.40325,0.0943-0.40625,0.0937-0.003-0.00085-0.088-0.0531-0.1875-0.125-0.21959-0.1586-0.16345-0.38503,0.125-0.6875,0.1626-0.17028,0.23879-0.2033,0.5-0.1875z"/>
<path d="m431.25,374.66c-0.38018,0.13504-0.86245,0.69313-1.25,0.6875-0.88,0.0623-0.75718,0.91919-0.125,1.2188,0.0833,0.25988,0.005,0.58789,0.0312,0.875,0.12288,0.7896-0.37535,1.4249-0.28125,2.2188-0.0442,0.87031-0.30695,1.7177-0.34375,2.5938-0.24704,0.90327-0.24984,1.8321-0.40625,2.75-0.10431,0.82323-0.69963,0.53271-1.2188,0.3125-0.004-0.35689-0.0272-0.70562-0.0312-1.0625,0.21637-0.81711-0.44101-1.0556-1.0938-1.1562-0.68611,0.0649-1.0228-0.52316-0.875-1.125,0.29488-0.35103,1.036-0.2534,1.5-0.3125,0.9813,0.20342,0.9416-1.1118,0.4375-1.5625-0.34472-0.63567-1.1982-0.90926-1.4375-1.5625,0.0956-0.86642-0.47971-1.7322-1.1875-2.1562-1.0885-0.0764-1.9104,0.86306-2.3125,1.7812-0.4525,0.13085-0.90391,0.26657-1.3438,0.4375-0.70889,0.17748-1.7197,1.407-0.75,1.875,0.54424,0.14988,2.2002,0.52782,1.4688,1.2812-0.41224,0.7071-1.201,0.71914-1.9062,0.53125-0.72365,0.00063-1.5294-0.35207-1.5-1.1875-0.14765-0.74985-0.12337-1.5579-0.46875-2.25-0.14847-0.83929-1.1008-0.64297-1.1562,0.125-0.73341,0.53403-0.6357,1.3978-0.125,2.0312,0.31876,0.72891,0.003,1.5776-0.3125,2.25-0.19091,0.87497-1.1559,0.90473-1.8438,1.1875-0.33751,0.13104-1.6285-0.0779-1.1562,0.65625,0.75312,0.26578,1.6525,0.50493,2.4375,0.3125,0.82295-0.10214,1.5375-0.66484,1.9375-1.375,0.55266-0.56003,1.502-0.26685,2.2188-0.28125,0.7728-0.002,1.5626,0.54243,2.3125,0.1875,0.21739-0.56438,1.2219-1.4958,1.5312-0.53125-0.0526,0.86265,0.70932,1.3257,1.5,1.2188,0.86375-0.0494,0.54445,0.61096,0.53125,1.125,0.0571,0.93448,0.65972,1.4247,1.4375,1.8125,0.26491,0.0715,0.545,0.0474,0.8125,0,0.74793-0.23513,1.5536-0.5689,1.7812-1.4062,0.30361-0.68071,0.31071-1.4507,0.53125-2.1562,0.17722-1.1299,0.406-2.26,0.4375-3.4062,0.27617-1.0383,0.19684-2.136,0.40625-3.1875,0.13231-0.7818,0.2308-1.5634,0.3125-2.3438-0.0917-0.41735-0.27189-0.48727-0.5-0.40625zm-6.7812,4.1562c0.15144,0.0185,0.2356,0.20409,0.25,0.53125,0.016,0.36409,0.20628,0.66075,0.4375,0.71875,0.18245,0.0457,0.16681,0.23882-0.0312,0.375-0.11507,0.0791-0.3209,0.127-0.6875,0.125-0.57804-0.003-0.93643-0.15276-1.25-0.46875l-0.1875-0.1875,0.28125-0.1875c0.14178-0.10831,0.39834-0.33259,0.5625-0.5,0.28494-0.29065,0.47356-0.42473,0.625-0.40625z"/>
<path d="m490.5,370.94c-0.56713,0.026-1.1373,0.11796-1.6562,0.25-1.0402-0.0647-1.5624,1.0271-0.5625,1.5625,0.60166,1.5343,1.5404-0.31684,2.5-0.1875,1.4375,0.27956,1.559,1.8323,1.7812,3,0.0809,1.1567,0.41439,2.2816,0.75,3.375,0.96222,1.0695-0.72072,1.7402-1.4375,0.90625-0.61128-0.66434-1.9204-1.4795-2.6562-0.5625-0.9036,0.38266-0.94069,1.5903-1.6875,1.9375-1.2091,0.36803-1.3613-1.1188-2-1.75-0.58724-0.82427-1.7103-0.89646-2.625-1.1875-0.42913-0.86865-0.20548-2.3456-1.0938-2.9375-0.7458,0.30425-2.1131,1.7022-0.96875,2.3438,1.1177,0.96067-0.48782,1.4011-1,2.0625-0.73158,0.81456-0.84849,1.936-0.96875,2.9688-1.2593,0.69566-1.5044-0.78769-1.6562-1.7188-0.0981-1.1115-1.0358-0.78521-1.6875-0.375-0.95249,0.38586-1.4281,1.2903-2.0938,2-0.0799,0.64767,0.0372,1.3567,0.0312,2.0312,0.21646,0.81142,1.2024,0.4303,1.8125,0.375,0.9788-0.40937,1.3795,0.62745,0.59375,1.2188-0.53181,0.67603-2.2198,0.32293-2.0625,1.4062,0.54395,0.0636,1.1105,0.0432,1.6562,0,1.0905-0.29799,2.2614-1.0673,2.375-2.2812,0.1436-1.0582,1.6676-0.86544,2.5-1.0938,1.0408-0.30002,2.2948-0.37704,2.5312,0.9375,0.70943,0.74499,2.2486,1.584,3.0312,0.5625,0.79451-0.48523,1.1764-1.3376,1.125-2.25-0.16203-0.78461,1.2688-0.81314,1.625-0.375,0.52141,0.85796,2.151,0.60478,2.9375,0.125,0.8361-0.61721,1.0176-1.705,2.2188-1.7188,1.7823-0.53352,3.6342-0.84122,5.375-1.5,1.4104-0.3073-0.2099-1.1977-0.5625-1.7188-1.0737-0.53098-2.0081,1.6419-3.2188,0.5625-0.93564-0.71605-0.87212-2.0766-1.2188-3.125-0.23714-1.3573-0.17721-2.9227-1.1562-4-0.67242-0.71491-1.586-0.887-2.5312-0.84375zm-6.8125,9.4688c0.12573-0.003,0.26757,0.0593,0.5,0.1875,0.43841,0.24193,0.75063,0.64294,0.75,0.96875-0.00043,0.21261-0.0545,0.22697-0.375,0.375-0.19719,0.091-0.4214,0.1885-0.5,0.1875-0.18098-0.002-0.62438-0.35688-0.625-0.5-0.00065-0.0594-0.0581-0.28649-0.125-0.46875-0.11761-0.32068-0.0994-0.31643,0.0625-0.53125,0.10347-0.13744,0.18677-0.21532,0.3125-0.21875zm6.5312,0.34375c0.37229-0.0244,0.59356,0.0918,0.75,0.375,0.18178,0.32896,0.0582,0.58095-0.40625,0.78125-0.20349,0.0878-0.407,0.15925-0.4375,0.15625-0.0306-0.003-0.19844-0.10253-0.375-0.21875-0.27012-0.17777-0.3095-0.26387-0.3125-0.46875-0.003-0.31541,0.34928-0.5967,0.78125-0.625zm-8.9375,0.0937c0.10904-0.017,0.20831,0.04,0.34375,0.15625,0.17999,0.15456,0.23685,0.27887,0.28125,0.59375,0.0314,0.21884,0.0265,0.50184,0,0.625-0.0486,0.2261-0.0532,0.21575-0.5625,0.21875-0.64029,0.006-0.6997-0.0639-0.6875-0.65625,0.008-0.37682,0.0118-0.4782,0.21875-0.6875,0.16044-0.16228,0.29721-0.23305,0.40625-0.25zm-5.5,1.4375c0.19951,0.0469,0.3879,0.19761,0.4375,0.4375,0.0656,0.3175,0.008,0.46223-0.25,0.59375-0.2221,0.1131-0.73401,0.1508-0.875,0.0625-0.0457-0.0286-0.1399-0.103-0.1875-0.1875-0.068-0.12114-0.0555-0.1794,0.0312-0.25,0.0605-0.0492,0.12539-0.11985,0.125-0.15625-0.0004-0.0364,0.0673-0.16316,0.15625-0.28125,0.14608-0.1939,0.36299-0.26563,0.5625-0.21875zm9.25,1.1875c0.17794-0.001,0.32863,0.0609,0.4375,0.15625,0.18526,0.16231,0.179,0.40039-0.0312,0.5625-0.13509,0.1044-0.87165,0.0948-1.125,0-0.11272-0.0421-0.15563-0.0987-0.15625-0.21875-0.002-0.14091,0.0375-0.22767,0.28125-0.34375,0.20425-0.0976,0.41581-0.15507,0.59375-0.15625z"/>
<path d="m467.86,388.29c-0.0958-0.0625-0.23767-0.11699-0.0948-0.22157,0.17277-0.30247,0.51785-0.40716,0.82434-0.51974,0.54779-0.23732,1.0207-0.64036,1.3737-1.1184,0.05-0.33298,0.42384-0.51355,0.42219-0.86174,0.003-0.47487,0.0311-0.9616-0.0846-1.426-0.12837-0.4257-0.45147-0.75199-0.82649-0.97395-0.25667-0.20149-0.674-0.25712-0.76877-0.61402-0.0525-0.34279,0.25343-0.60401,0.36053-0.90935,0.22325-0.42151,0.41109-0.86364,0.6509-1.275,0.25912-0.2878,0.65892-0.0156,0.79298,0.26239,0.18915,0.27771,0.35679,0.57593,0.45076,0.89748,0.30225,0.33175,0.57024,0.72087,0.679,1.1618,0.14839,0.31056,0.38316,0.60234,0.36929,0.96609,0.0003,0.4164,0.23509,0.78738,0.22034,1.2063,0.0133,0.56042,0.0131,1.1449-0.19184,1.6741-0.14001,0.29344-0.42058,0.46964-0.60639,0.73256-0.31897,0.29554-0.67037,0.57899-1.0797,0.73615-0.28928,0.092-0.45706,0.42565-0.81934,0.34466-0.51458,0.009-1.0366,0.079-1.5472-0.004,0.0323,0.0542-0.15633-0.0915-0.12493-0.0573z"/>
<path d="m461.01,388.74c-0.24268-0.24958-0.2952-0.35543-0.29788-0.60032-0.003-0.24747,0.0446-0.34567,0.2822-0.58569,0.43829-0.44275,0.65248-0.45344,1.4091-0.0705,0.72304,0.36598,0.9675,0.39912,1.0322,0.14002,0.0625-0.25022,0.47885-0.47916,0.87435-0.4808,0.25006-0.002,0.39157,0.0477,0.59183,0.20368,0.25136,0.19583,0.26349,0.22634,0.26989,0.67935,0.004,0.46299-0.002,0.48055-0.29042,0.73591-0.27723,0.24409-0.32183,0.25915-0.66541,0.22476-0.43718-0.0439-0.69954-0.24407-0.77073-0.58844-0.0516-0.25001-0.13942-0.3097-0.20523-0.1397-0.0209,0.0546-0.12864,0.12185-0.23894,0.1496-0.20352,0.0514-0.5488,0.26862-0.79415,0.50006-0.0927,0.0874-0.25526,0.12855-0.51863,0.13122-0.35563,0.003-0.40513-0.0183-0.67826-0.29915z"/>
<path d="m441.19,379.84c-0.66466,0.007-1.3805,0.5662-1.4688,1.2188,0.15206,0.75226,0.77698,1.4895,0.375,2.2812,0.27756,1.0131-0.76147,1.3974-1.4688,0.8125-0.4271-0.97134-0.64349-2.0358-1.2812-2.9062-0.80411-0.22762-1.1545,1.0569-1.7188,1.5,0.27975,0.75505,1.0958,1.4324,1.1875,2.375,0.1952,0.91482-0.36128,1.9306-1.1562,2.4062-0.68584,0.65472-1.6254,0.42074-2.4688,0.5625-1.0242,0.59857,0.75182,0.81755,1.2188,0.84375,1.0477,0.10646,2.1354-0.0317,2.9062-0.8125,0.76911-0.36708,0.70971-1.6972,1.625-1.8438,1.5884-0.0709,3.1626,0.24355,4.75,0.28125,0.84936,0.20336,2.1635-0.10098,2.75,0.53125,0.002,1.1075,0.94078,1.7905,1.8438,2.2188,0.4987,0.13872,1.0241-0.47928,1.5312-0.59375,0.96531-0.30764,0.67182-1.502,1.25-1.9688,1.6504-0.0893,3.3163-0.0704,4.9688-0.0937,0.31463,0.008,0.40734-0.43988,0.625-0.625-0.0363-0.63881-0.0593-1.2726-0.15625-1.9062-0.31819-0.80653,0.0513-1.8446-0.53125-2.5312-0.83011-0.22606-1.5362,0.53355-2.375,0.59375-0.92616,0.41246-1.7065,1.2677-1.75,2.3125-0.54833,0.89658-1.4277-0.15958-1.125-0.90625-0.0346-0.32541,0.0704-0.70429-0.0312-1-0.50698-0.60814-1.3947-0.4094-2.0938-0.5-1.0184,0.0406-2.0127-0.17955-3.0312-0.15625-0.89293-0.0674-1.822,0.0777-2.6875-0.15625-1.0317-0.0293-0.88959-1.0382-1.0625-1.75-0.18299-0.13571-0.40345-0.18973-0.625-0.1875zm2,3.6875c0.34308,0.007,0.66656,0.052,1,0.0937,0.43082,0.0709,0.8899-0.14816,1.3125,0,0.97651,0.16608,1.9536,0.12685,2.9375,0.21875,0.25985-0.004,0.44579,0.18471,0.625,0.34375,0.002,0.68357,0.00066,1.3789,0,2.0625-0.0299,0.25767,0.0763,0.5982-0.15625,0.78125-0.0747,0.0513-0.1583,0.1072-0.25,0.125-0.27065-0.07-0.55731-0.2479-0.6875-0.5-0.0414-0.35742,0.0179-0.70404,0.0312-1.0625-0.007-0.0927,0.0404-0.237,0-0.3125-0.21278-0.15067-0.45387-0.249-0.71875-0.25-0.84945-0.0291-1.682-0.0916-2.5312-0.125-0.7069-0.0446-1.4333,0.0604-2.125-0.125-0.26845-0.0976-0.61789-0.0641-0.78125-0.34375-0.23417-0.27227,0.10362-0.59695,0.34375-0.71875,0.31827-0.1447,0.65692-0.19411,1-0.1875zm11.281,0.25c0.15866-0.002,0.20935,0.05,0.28125,0.34375,0.0459,0.18765,0.0996,0.4172,0.125,0.5,0.0363,0.11811-0.0218,0.15625-0.1875,0.21875-0.494,0.18646-0.98566,0.16797-1.1562-0.0625-0.0774-0.10454,0.0129-0.43451,0.15625-0.5625,0.28946-0.25851,0.60992-0.43691,0.78125-0.4375z"/>
</g>
</g>
<path stroke-width="1.1502" d="m449.98,327.23c32.642-25.106,29.843-61.883,29.843-61.883-0.8613,0.17223-1.6795,0.25835-2.5408,0.25835-6.8471,0-23.178-3.9171-26.988-8.8926-4.0812,4.5034-20.77,8.8926-27.574,8.8926-0.86129,0-1.7225-0.0861-2.5407-0.25835,0,0-2.8422,36.776,29.8,61.883z"/>
<path stroke-width="0.9157" d="m477.22,268.04c-0.28097,0.0176-0.5633,0.0264-0.8477,0.0264-6.2055,0-20.619-3.1838-26.175-7.9572-5.8195,4.4095-20.471,7.9572-26.576,7.9572-0.28635,0-0.56925-0.035-0.84965-0.0865-0.0142,1.3908,0.0581,2.8324,0.14448,4.1436,0.323,4.9008,1.1826,9.819,2.4876,14.552,4.1081,14.895,12.516,27.553,24.572,37.155,12.066-9.61,20.484-22.28,24.601-37.186,1.3071-4.7319,2.1694-9.6497,2.4955-14.55,0.0853-1.2845,0.15716-2.6918,0.14745-4.0545z"/>
<path fill="#c09300" stroke="none" d="m439.38,265.03c-5.8724,1.8448-12.229,3.0312-15.75,3.0312-0.28633,0-0.56336-0.0423-0.84375-0.0937-0.0142,1.3907,0.0699,2.8451,0.15625,4.1562,0.32298,4.9006,1.1638,9.7995,2.4688,14.531,2.765,10.025,7.5063,19.032,13.969,26.781v-48.406z"/>
<path fill="#c09300" stroke="none" d="m460,264.94,0,49.25c6.794-7.9213,11.733-17.206,14.594-27.562,1.307-4.7317,2.1427-9.6313,2.4688-14.531,0.0853-1.2844,0.16596-2.6999,0.15625-4.0625-0.28095,0.0176-0.55937,0.0312-0.84375,0.0312-3.7302,0-10.42-1.1704-16.375-3.125z"/>
<g stroke-width="1.2704">
<path stroke-width="1.2179" d="m462.31,253.09c0.66655,0.0392-0.90178-3.568-0.90178-3.568,1.7643,1.8036,8.4297,2.2349,8.4297,2.2349-3.999-1.7656-7.9979-15.096-7.528-25.721,0.4319-10.664-1.5284-14.859-3.0971-16.428-1.9995-1.9995-8.4298-3.7639-12.664-3.9991-2.3922-0.11761-1.9995,1.8036-1.9995,1.8036-4.4308-1.137-8.8606-1.5684-10.861-0.2353-1.882,1.2547-2.274,7.5278-0.90178,6.43,3.3326-2.6661,6.2341-0.23524,8.2335,2.6661,1.7644,2.5485,1.6467,9.7627-0.90178,18.192-2.6661,8.8609-9.9588,17.722-9.9588,17.722,3.96,0,9.5276-3.5287,9.5276-3.5287l-1.3331,5.5283c4.1951-1.9996,7.5278-5.0969,7.5278-5.0969l3.9992,4.1951c1.333-1.7643,3.9991-4.1951,3.9991-4.1951s3.3328,3.5286,8.4297,3.9992z"/>
<path fill="none" d="m446.12,227.57s-2.2349,16.428-6.43,21.094"/>
<path fill="none" d="m449.65,227.14s-0.86252,16.623-3.7639,21.956"/>
<path fill="none" d="m452.78,227.81s0,18.192,1.0978,21.289"/>
<path fill="none" d="m456.74,228.71s0.90178,15.291,4.6657,20.819"/>
<path fill="#c09300" stroke-width="0.3542" d="m442.08,219.61c-0.19598-1.4508-0.54888-2.5878-1.0586-3.3328-1.9996-2.9013-4.9009-5.3321-8.2335-2.6661,0,0,1.137-3.5287,3.5678-3.6463,1.882-0.11767,6.1556,1.4115,9.9196,7.8415,0,0-2.7837-0.62739-3.4502-0.0393-1.2546,1.0979-0.74495,1.8428-0.74495,1.8428z"/>
<path fill="#c09300" stroke-width="0.3542" d="m432.44,209.26c0.27439-0.90178,0.7057-1.7251,1.2546-2.078,1.9996-1.333,6.43-0.90177,10.86,0.23524,0,0-0.39205-1.9212,1.9996-1.8036,4.2344,0.23523,10.665,1.9996,12.664,3.9992,0.47046,0.50973,1.0194,1.2547,1.4899,2.3916h-0.0784c-0.98015-1.3721-3.764-1.2937-4.4308-1.2154-1.0586,0.11756-1.7251,0.0784-3.1365,0.4312-0.66655,0.15693-1.686,0.3529-2.2349,0.78422-0.43131,0.3529-0.7841,1.6467-1.4506,1.6467-1.0586,0-0.98019-0.27449-1.2547-0.58814-0.35279-0.43131-0.54888-1.0586-0.90178-1.0194-1.0978,0.19608-2.8621-0.66644-5.0969-2.4308-2.2344-1.7644-3.0971-2.1956-5.9984-1.9996-2.8622,0.23524-3.7639,1.8427-3.7639,1.8427l0.0784-0.19598z"/>
<circle cx="448.824" cy="210.672" r="1.176" stroke="none"/>
</g>
</g>
</svg>
