<svg width="40" height="40" viewBox="0 0 40 40" fill="none" xmlns="http://www.w3.org/2000/svg">
<path d="M20 38C10.075 38 2 29.7007 2 19.5C2 9.29928 10.075 1 20 1C29.925 1 38 9.29928 38 19.5C38 29.7007 29.925 38 20 38ZM20 3.71732C11.5347 3.71732 4.64609 10.7973 4.64609 19.4977C4.64609 28.1981 11.5347 35.2781 20 35.2781C28.4653 35.2781 35.3539 28.1981 35.3539 19.4977C35.3539 10.7973 28.4675 3.71732 20 3.71732Z" fill="url(#paint0_linear_72_3674)"/>
<path d="M25.6549 18.5123H13.3429C12.808 18.5123 12.3245 18.1838 12.1119 17.677C12.0075 17.4292 11.9753 17.1553 12.0195 16.8888C12.0636 16.6224 12.1821 16.3752 12.3603 16.1775L15.7287 12.4426C15.8489 12.309 15.9933 12.2012 16.1537 12.1254C16.3142 12.0496 16.4875 12.0073 16.6638 12.0009C16.8401 11.9944 17.0159 12.024 17.1811 12.0879C17.3463 12.1517 17.4977 12.2487 17.6267 12.3731C18.1683 12.8961 18.1996 13.7755 17.6938 14.3355L16.4315 15.7355H25.6571C26.3979 15.7355 27 16.358 27 17.1239C27 17.8899 26.3979 18.5123 25.6549 18.5123ZM22.2865 28C21.9575 28 21.6307 27.8774 21.3711 27.6274C20.8295 27.1045 20.7981 26.2251 21.3039 25.6651L22.5662 24.2651H13.3429C12.6021 24.2651 12 23.6426 12 22.8767C12 22.1107 12.6021 21.4882 13.3429 21.4882H25.6571C26.192 21.4882 26.6755 21.8168 26.8881 22.3236C27.1007 22.8304 27.0045 23.4205 26.6397 23.8231L23.2713 27.558C23.1453 27.6977 22.9928 27.809 22.8234 27.8851C22.654 27.9611 22.4712 28.0002 22.2865 28Z" fill="url(#paint1_linear_72_3674)"/>
<defs>
<linearGradient id="paint0_linear_72_3674" x1="20" y1="1" x2="20" y2="38" gradientUnits="userSpaceOnUse">
<stop stop-color="#F6F022"/>
<stop offset="1" stop-color="#95FA31"/>
</linearGradient>
<linearGradient id="paint1_linear_72_3674" x1="19.5" y1="12" x2="19.5" y2="28" gradientUnits="userSpaceOnUse">
<stop stop-color="#F6F022"/>
<stop offset="1" stop-color="#95FA31"/>
</linearGradient>
</defs>
</svg>
