<svg width="351" height="249" viewBox="0 0 351 249" fill="none" xmlns="http://www.w3.org/2000/svg">
<g filter="url(#filter0_b_1981_3841)">
<mask id="path-1-inside-1_1981_3841" fill="white">
<path fill-rule="evenodd" clip-rule="evenodd" d="M91.0328 0C91.0111 0.330524 91 0.663971 91 1C91 9.28427 97.7157 16 106 16H244C252.284 16 259 9.28427 259 1C259 0.663971 258.989 0.330524 258.967 0H331C342.046 0 351 8.9543 351 20V229C351 240.046 342.046 249 331 249H20C8.95431 249 0 240.046 0 229V20C0 8.95431 8.95431 0 20 0H91.0328Z"/>
</mask>
<path fill-rule="evenodd" clip-rule="evenodd" d="M91.0328 0C91.0111 0.330524 91 0.663971 91 1C91 9.28427 97.7157 16 106 16H244C252.284 16 259 9.28427 259 1C259 0.663971 258.989 0.330524 258.967 0H331C342.046 0 351 8.9543 351 20V229C351 240.046 342.046 249 331 249H20C8.95431 249 0 240.046 0 229V20C0 8.95431 8.95431 0 20 0H91.0328Z" fill="#391C8C" fill-opacity="0.4"/>
<path d="M91.0328 0L92.0306 0.0656669L92.1008 -1H91.0328V0ZM258.967 0V-1H257.899L257.969 0.0656898L258.967 0ZM92 1C92 0.685911 92.0103 0.374363 92.0306 0.0656669L90.035 -0.0656669C90.0118 0.286684 90 0.642032 90 1H92ZM106 15C98.268 15 92 8.73199 92 1H90C90 9.83656 97.1634 17 106 17V15ZM244 15H106V17H244V15ZM258 1C258 8.73199 251.732 15 244 15V17C252.837 17 260 9.83656 260 1H258ZM257.969 0.0656898C257.99 0.374356 258 0.685895 258 1H260C260 0.642048 259.988 0.286691 259.965 -0.0656898L257.969 0.0656898ZM258.967 1H331V-1H258.967V1ZM331 1C341.493 1 350 9.50659 350 20H352C352 8.40202 342.598 -1 331 -1V1ZM350 20V229H352V20H350ZM350 229C350 239.493 341.493 248 331 248V250C342.598 250 352 240.598 352 229H350ZM331 248H20V250H331V248ZM20 248C9.5066 248 1 239.493 1 229H-1C-1 240.598 8.40203 250 20 250V248ZM1 229V20H-1V229H1ZM1 20C1 9.5066 9.50659 1 20 1V-1C8.40202 -1 -1 8.40203 -1 20H1ZM20 1H91.0328V-1H20V1Z" fill="url(#paint0_linear_1981_3841)" mask="url(#path-1-inside-1_1981_3841)"/>
</g>
<mask id="mask0_1981_3841" style="mask-type:alpha" maskUnits="userSpaceOnUse" x="0" y="0" width="351" height="249">
<mask id="path-3-inside-2_1981_3841" fill="white">
<path fill-rule="evenodd" clip-rule="evenodd" d="M91.029 0C91.0098 0.291845 91 0.586271 91 0.882977C91 8.19781 96.9299 14.1277 104.245 14.1277H245.755C253.07 14.1277 259 8.19781 259 0.882977C259 0.586271 258.99 0.291845 258.971 0L331 0C342.046 0 351 8.9543 351 20V229C351 240.046 342.046 249 331 249H20C8.95431 249 0 240.046 0 229V20C0 8.95431 8.95431 0 20 0L91.029 0Z"/>
</mask>
<path fill-rule="evenodd" clip-rule="evenodd" d="M91.029 0C91.0098 0.291845 91 0.586271 91 0.882977C91 8.19781 96.9299 14.1277 104.245 14.1277H245.755C253.07 14.1277 259 8.19781 259 0.882977C259 0.586271 258.99 0.291845 258.971 0L331 0C342.046 0 351 8.9543 351 20V229C351 240.046 342.046 249 331 249H20C8.95431 249 0 240.046 0 229V20C0 8.95431 8.95431 0 20 0L91.029 0Z" fill="#391C8C" fill-opacity="0.4"/>
<path d="M91.029 0L92.0268 0.0656833L92.097 -1H91.029V0ZM258.971 0V-1H257.903L257.973 0.0656314L258.971 0ZM92 0.882977C92 0.608203 92.009 0.335682 92.0268 0.0656833L90.0311 -0.0656833C90.0105 0.248007 90 0.56434 90 0.882977H92ZM104.245 13.1277C97.4821 13.1277 92 7.64553 92 0.882977H90C90 8.7501 96.3776 15.1277 104.245 15.1277V13.1277ZM245.755 13.1277H104.245V15.1277H245.755V13.1277ZM258 0.882977C258 7.64553 252.518 13.1277 245.755 13.1277V15.1277C253.622 15.1277 260 8.7501 260 0.882977H258ZM257.973 0.0656314C257.991 0.335682 258 0.60822 258 0.882977H260C260 0.564322 259.99 0.248007 259.969 -0.0656314L257.973 0.0656314ZM258.971 1H331V-1H258.971V1ZM331 1C341.493 1 350 9.50659 350 20H352C352 8.40202 342.598 -1 331 -1V1ZM350 20V229H352V20H350ZM350 229C350 239.493 341.493 248 331 248V250C342.598 250 352 240.598 352 229H350ZM331 248H20V250H331V248ZM20 248C9.5066 248 1 239.493 1 229H-1C-1 240.598 8.40203 250 20 250V248ZM1 229V20H-1V229H1ZM1 20C1 9.5066 9.50659 1 20 1V-1C8.40202 -1 -1 8.40203 -1 20H1ZM20 1H91.029V-1H20V1Z" fill="url(#paint1_linear_1981_3841)" mask="url(#path-3-inside-2_1981_3841)"/>
</mask>
<g mask="url(#mask0_1981_3841)">
<path opacity="0.2" d="M0 6C0 2.68629 2.68629 0 6 0H345C348.314 0 351 2.68629 351 6V91H0V6Z" fill="url(#paint2_linear_1981_3841)"/>
<g opacity="0.5" filter="url(#filter1_f_1981_3841)">
<circle cx="325" cy="33" r="77" fill="#5E14DF"/>
</g>
</g>
<defs>
<filter id="filter0_b_1981_3841" x="-3" y="-3" width="357" height="255" filterUnits="userSpaceOnUse" color-interpolation-filters="sRGB">
<feFlood flood-opacity="0" result="BackgroundImageFix"/>
<feGaussianBlur in="BackgroundImageFix" stdDeviation="1.5"/>
<feComposite in2="SourceAlpha" operator="in" result="effect1_backgroundBlur_1981_3841"/>
<feBlend mode="normal" in="SourceGraphic" in2="effect1_backgroundBlur_1981_3841" result="shape"/>
</filter>
<filter id="filter1_f_1981_3841" x="188" y="-104" width="274" height="274" filterUnits="userSpaceOnUse" color-interpolation-filters="sRGB">
<feFlood flood-opacity="0" result="BackgroundImageFix"/>
<feBlend mode="normal" in="SourceGraphic" in2="BackgroundImageFix" result="shape"/>
<feGaussianBlur stdDeviation="30" result="effect1_foregroundBlur_1981_3841"/>
</filter>
<linearGradient id="paint0_linear_1981_3841" x1="18.5" y1="-15.9696" x2="380.701" y2="108.299" gradientUnits="userSpaceOnUse">
<stop stop-color="white" stop-opacity="0.2"/>
<stop offset="1" stop-color="#6833FF" stop-opacity="0.1"/>
</linearGradient>
<linearGradient id="paint1_linear_1981_3841" x1="18.5" y1="-14.1008" x2="370.232" y2="122.569" gradientUnits="userSpaceOnUse">
<stop stop-color="white" stop-opacity="0.2"/>
<stop offset="1" stop-color="#6833FF" stop-opacity="0.1"/>
</linearGradient>
<linearGradient id="paint2_linear_1981_3841" x1="181" y1="0" x2="181" y2="91" gradientUnits="userSpaceOnUse">
<stop stop-color="#9664FF"/>
<stop offset="1" stop-color="#180C39" stop-opacity="0"/>
</linearGradient>
</defs>
</svg>
