<svg width="58" height="66" viewBox="0 0 58 66" fill="none" xmlns="http://www.w3.org/2000/svg">
<g opacity="0.4" clip-path="url(#clip0_2376_2101)">
<path fill-rule="evenodd" clip-rule="evenodd" d="M30.9763 3.38985H27.0232V3.39027C26.4425 3.39027 25.951 2.89626 25.951 2.31254V1.07772C25.951 0.471272 26.4203 0 27.0232 0H30.9763C31.5797 0 32.0485 0.471685 32.0485 1.07772V2.31213C32.0485 2.91858 31.5792 3.38985 30.9763 3.38985ZM29.748 5.99383V4.87146H28.2518V5.99383C28.4973 5.97151 28.7432 5.97151 29.011 5.97151C29.1337 5.97151 29.2566 5.97709 29.3795 5.98267L29.3795 5.98267C29.5024 5.98825 29.6252 5.99383 29.748 5.99383ZM28.2517 7.49777V21.8426C27.4699 21.91 26.7107 22.1118 25.9959 22.4487L18.8715 10.0344C21.6858 8.50811 24.8793 7.63254 28.2517 7.49777ZM29.7479 21.8426C30.5519 21.9323 31.2889 22.1345 31.9811 22.4487L39.1055 10.0567C36.2916 8.55275 33.1203 7.65485 29.7253 7.52008L29.7475 21.8426H29.7479ZM33.2993 23.1676L40.4237 10.7756C43.171 12.5263 45.5383 14.8835 47.3026 17.6673L34.9522 24.8286C34.8852 24.75 34.8293 24.6771 34.7735 24.6041L34.7734 24.604C34.7176 24.5311 34.6618 24.4582 34.5948 24.3796C34.1926 23.9084 33.7682 23.5045 33.2993 23.1676ZM36.2695 28.3979H50.5183C50.3843 25.008 49.5132 21.798 47.9948 18.9691L35.6666 26.1304C36.0018 26.8489 36.2025 27.612 36.2695 28.3979ZM21.7302 28.3979C21.8194 27.5897 22.0205 26.8489 22.3331 26.1531L9.98312 18.9695C8.48692 21.798 7.59364 24.9857 7.45957 28.3983H21.7306L21.7302 28.3979ZM4.86855 28.3978V29.9018H5.98514C5.96293 29.655 5.96293 29.4078 5.96293 29.1387V29.1387V29.1386C5.96293 28.8918 5.96293 28.6446 5.98514 28.3755L4.86855 28.3978ZM33.8351 51.0491V51.0268L30.5968 36.3227C30.5075 36.345 30.3957 36.3677 30.3064 36.3677C30.2622 36.3788 30.2179 36.3844 30.1736 36.39H30.1736C30.1285 36.3956 30.0835 36.4013 30.0383 36.4128H30.0161C30.0013 36.4128 29.9863 36.4202 29.9712 36.4351H29.882C29.8598 36.4351 29.8372 36.4351 29.815 36.4574H29.7701C29.75 36.4574 29.7299 36.4619 29.7078 36.4669L29.7078 36.4669C29.6808 36.473 29.6507 36.4798 29.6138 36.4798H29.4354C29.3905 36.4798 29.3013 36.4798 29.2569 36.5021H29.0113H29.0113C28.8772 36.5021 28.7432 36.5021 28.5869 36.4798C28.5534 36.4798 28.5199 36.4742 28.4863 36.4686C28.4528 36.463 28.4193 36.4574 28.3858 36.4574H28.3636C28.3301 36.4574 28.2965 36.4519 28.263 36.4463C28.2295 36.4407 28.196 36.4351 28.1625 36.4351C28.0954 36.4128 28.0284 36.4128 27.9614 36.4128C27.8943 36.3905 27.8273 36.3905 27.7603 36.3905C27.727 36.3794 27.6938 36.3738 27.6606 36.3682C27.6268 36.3626 27.593 36.3569 27.5591 36.3454C27.526 36.3344 27.4928 36.3288 27.4596 36.3232L27.4595 36.3232C27.4257 36.3175 27.3919 36.3118 27.358 36.3003L24.1197 51.0044V51.0268L22.0202 60.5675H35.8894L33.8347 51.0491H33.8351ZM33.2769 35.0879C33.4332 34.9978 33.5673 34.8857 33.7236 34.751V34.7514C34.1924 34.3694 34.5946 33.9204 34.9072 33.4492L47.2576 40.6104C45.5381 43.3715 43.193 45.751 40.4013 47.5022L33.2769 35.0879ZM32.0484 35.963L32.0485 35.9637L32.0484 35.9634V35.963ZM32.0485 35.9637L39.1058 48.2653C37.8329 48.961 36.5152 49.5224 35.1082 49.9263L32.0485 35.9637ZM22.8693 49.9263C21.4624 49.5001 20.1225 48.9387 18.8718 48.2653V48.2649L25.9292 35.963L22.8693 49.9263ZM7.48166 29.8795H21.7301H21.7305C21.8197 30.6877 22.0208 31.4512 22.3334 32.1469L9.983 39.3082C8.4868 36.457 7.59353 33.247 7.48166 29.8795ZM17.5765 47.5245L17.5766 47.5243L17.5769 47.5245H17.5765ZM17.5766 47.5243L24.7009 35.1102C24.0757 34.6389 23.5172 34.0998 23.0484 33.4715L10.698 40.6328C12.4401 43.3937 14.785 45.7508 17.5766 47.5243ZM35.6666 32.1242C35.9792 31.4285 36.1803 30.6877 36.2695 29.8795V29.8791L50.5183 29.8567C50.4065 33.2466 49.5132 36.4343 48.017 39.2855L35.6666 32.1242ZM41.7188 8.5081L40.4233 7.74497L39.8648 8.71025C40.3114 8.93473 40.7359 9.18152 41.1603 9.47338L41.7188 8.5081ZM41.8081 6.80201L40.1108 5.83673H40.1112C39.5753 5.54487 39.3964 4.87145 39.7316 4.33279L40.3345 3.2778C40.4686 3.00827 40.7141 2.82886 40.9822 2.76147C41.0715 2.73874 41.1834 2.71641 41.2726 2.71641C41.4733 2.71641 41.6522 2.7838 41.8085 2.8735L45.2253 4.87145C45.4708 5.00622 45.6719 5.25301 45.739 5.52255C45.8056 5.81441 45.7612 6.10626 45.6271 6.35306L45.0242 7.40805C44.8901 7.65485 44.6446 7.857 44.3764 7.92438C44.0861 7.99135 43.7957 7.94671 43.5502 7.81194L41.8529 6.82433L41.8081 6.80201ZM50.2727 17.6673L49.5135 16.3651L48.5532 16.9265C48.8213 17.3531 49.0669 17.7798 49.3124 18.2287L50.2727 17.6673ZM52.1706 17.9815L51.1881 16.2531L50.183 14.5693C50.0263 14.3225 49.9818 14.0083 50.0711 13.7388C50.1603 13.4693 50.3392 13.2225 50.5848 13.0877L51.6343 12.4817C51.7906 12.3696 51.9917 12.3246 52.1702 12.3246C52.5498 12.3246 52.9072 12.5263 53.1083 12.8632L55.096 16.2977C55.2527 16.5445 55.2971 16.8587 55.2078 17.1282C55.1186 17.3978 54.9397 17.6446 54.6942 17.7793L53.6446 18.3854C53.3991 18.5429 53.0865 18.5875 52.8184 18.4978C52.5502 18.4081 52.3047 18.2283 52.1706 17.9815ZM53.1311 29.8791V28.3979H52.0145C52.0367 28.6447 52.0367 28.8919 52.0367 29.161C52.0367 29.4078 52.0367 29.655 52.0145 29.9241L53.1311 29.8791ZM55.6992 26.0634H56.9277C57.5084 26.0634 57.9999 26.5574 57.9999 27.1411V31.1147C57.9999 31.7212 57.5306 32.1924 56.9277 32.1924H55.6992C55.0959 32.1924 54.6271 31.7207 54.6271 31.1147V27.1411C54.6271 26.5347 55.0963 26.0634 55.6992 26.0634ZM49.3123 40.0713C49.089 40.5203 48.8434 40.9469 48.5753 41.3735L49.5356 41.9122L50.2948 40.61L49.3123 40.0713ZM53.6674 39.892L54.7169 40.498C54.9625 40.6551 55.1409 40.8796 55.2528 41.1491C55.2754 41.2388 55.2976 41.3512 55.2976 41.441C55.2976 41.6427 55.2306 41.8225 55.1414 41.9796L53.1537 45.4141C52.8633 45.9528 52.1934 46.1098 51.6797 45.818L50.6301 45.212C50.3846 45.0772 50.1835 44.8304 50.1165 44.5609C50.0498 44.269 50.0943 43.9771 50.2283 43.7303L51.2109 42.0019L52.1934 40.2735C52.3945 39.937 52.7519 39.7349 53.1315 39.7349C53.31 39.7349 53.5111 39.8022 53.6674 39.892ZM41.7188 49.7692L41.1603 48.8263C40.7359 49.0958 40.3114 49.3426 39.8648 49.5671L40.4233 50.5324L41.7188 49.7692ZM44.3541 50.3306C44.6223 50.4203 44.8678 50.6002 45.0019 50.847V50.8465L45.6048 51.9015C45.8951 52.4179 45.7167 53.0913 45.203 53.3831L41.7862 55.3811C41.2725 55.6729 40.6025 55.4935 40.3122 54.9772L39.7093 53.9222C39.5526 53.6754 39.5081 53.3612 39.5974 53.0917C39.6866 52.8222 39.8655 52.5754 40.1111 52.4406L43.5279 50.4426C43.6842 50.3306 43.8627 50.2856 44.0638 50.2856C44.153 50.2856 44.2649 50.3083 44.3541 50.3306ZM16.2808 49.7692L17.5763 50.5324L18.1122 49.5894C17.6655 49.3649 17.2411 49.1181 16.8167 48.8486L16.2808 49.7688V49.7692ZM16.1696 51.453L17.8891 52.4406C18.425 52.7325 18.6039 53.4059 18.2687 53.8999L17.6658 54.9549C17.5317 55.2017 17.2862 55.4038 17.018 55.4712C16.9288 55.4939 16.8169 55.5163 16.7277 55.5163C16.527 55.5163 16.3481 55.4712 16.1918 55.3815L12.775 53.3836C12.5294 53.2488 12.3283 53.002 12.2613 52.7325C12.1947 52.4406 12.2391 52.1487 12.3731 51.9019L12.9761 50.847C13.1772 50.5104 13.5346 50.3083 13.9142 50.3083C14.0927 50.3083 14.2938 50.3757 14.4501 50.4654L16.1696 51.453ZM7.7272 40.61L8.4864 41.9122L9.44671 41.3735C9.17856 40.9469 8.93304 40.5203 8.70972 40.0713L7.7272 40.61ZM5.82924 40.2958L6.81177 42.0242V42.0238L7.81691 43.7299C7.9736 43.9767 8.01802 44.2909 7.92877 44.5604C7.83953 44.83 7.66062 45.0768 7.4151 45.2115L6.36554 45.8176C6.12001 45.9751 5.80745 46.0197 5.5393 45.93C5.27115 45.8403 5.02563 45.6605 4.89155 45.4137L2.90389 41.9792C2.7472 41.7324 2.70278 41.4182 2.79202 41.1487C2.88127 40.8791 3.06017 40.6323 3.3057 40.4976L4.35526 39.8915C4.51154 39.7795 4.69003 39.7344 4.89114 39.7344C4.98039 39.7344 5.09225 39.7572 5.1815 39.7795C5.44964 39.8692 5.69517 40.049 5.82924 40.2958ZM3.3724 31.1366V27.1631C3.3724 26.557 2.90356 26.0853 2.30023 26.0853H1.07218C0.469258 26.0853 0 26.5566 0 27.1631V31.1366C0 31.7427 0.468846 32.2144 1.07218 32.2144H2.30064C2.90356 32.2144 3.37282 31.7203 3.37282 31.1366H3.3724ZM9.44671 16.9038C9.15636 17.3304 8.91083 17.757 8.68751 18.206L7.7272 17.6446L8.4864 16.3424L9.44671 16.9038ZM3.28304 17.757L4.33259 18.3631C4.84627 18.6549 5.51622 18.4978 5.80658 17.9592L6.7891 16.2308L7.77162 14.5023C8.06198 13.986 7.9057 13.3126 7.36981 13.0207L6.32025 12.4147C6.16397 12.325 5.96286 12.2576 5.78437 12.2576C5.40477 12.2576 5.04738 12.4598 4.84627 12.7963L2.85861 16.2308C2.76936 16.3878 2.70232 16.5677 2.70232 16.7694C2.70232 16.8591 2.72453 16.9716 2.74715 17.0613C2.85902 17.3982 3.03751 17.6227 3.28304 17.757ZM17.5987 10.7756L24.7231 23.1899C24.098 23.6388 23.5395 24.2002 23.0929 24.8286L10.7425 17.6673C12.462 14.8839 14.8292 12.5267 17.5987 10.7756ZM16.2808 8.5081L16.8393 9.47338C17.2637 9.20385 17.6881 8.95705 18.1348 8.71025L17.5763 7.74497L16.2808 8.5081ZM13.646 7.94713C13.3779 7.85742 13.1323 7.67759 12.9983 7.43079V7.43121L12.4398 6.39854C12.1494 5.88221 12.3279 5.20879 12.8416 4.91693L16.2584 2.91899C16.5039 2.76148 16.8165 2.71683 17.0846 2.80654C17.3528 2.89625 17.5983 3.07608 17.7324 3.32287L18.3353 4.37786C18.492 4.62466 18.5364 4.93884 18.4472 5.20837C18.3579 5.47791 18.179 5.72471 17.9335 5.85947L16.214 6.84708H16.1918L14.4723 7.83468C14.2267 7.99219 13.9142 8.03683 13.646 7.94713ZM34.0361 32.1019C34.0361 32.0796 34.0583 32.0796 34.0583 32.0796C34.0583 32.0572 34.0805 32.0572 34.0805 32.0572C34.0805 32.0572 34.0805 32.0349 34.1027 32.0349C34.5045 31.3164 34.7505 30.4859 34.8175 29.6331C34.9068 28.421 34.6612 27.2536 34.0583 26.2209C33.8798 25.9291 33.6787 25.6372 33.4554 25.3677C33.0088 24.8513 32.5173 24.4247 31.9366 24.0882C31.9366 24.0882 31.9144 24.0882 31.9144 24.0659C31.1774 23.6393 30.3511 23.3701 29.4801 23.3027C29.3238 23.2804 29.1675 23.2804 29.0112 23.2804C26.8895 23.2804 25.0137 24.4255 23.9863 26.1986L23.9641 26.2209C23.5397 26.9394 23.272 27.7699 23.2049 28.6455C23.1827 28.8026 23.1827 28.9373 23.1827 29.0944V29.1618C23.1827 30.2168 23.4731 31.2048 23.9645 32.0577C24.4782 32.9332 25.193 33.674 26.0641 34.168C26.0641 34.168 26.0863 34.168 26.0863 34.1904C26.0863 34.1904 26.1085 34.1904 26.1085 34.2127C26.1307 34.2127 26.1307 34.235 26.1307 34.235L26.1529 34.2573C26.4433 34.4144 26.7784 34.5715 27.091 34.684C27.1058 34.684 27.1132 34.6914 27.1132 34.7063C27.1354 34.7063 27.1354 34.7286 27.1354 34.7286C27.1604 34.741 27.1852 34.7465 27.2139 34.7529C27.2367 34.758 27.262 34.7636 27.2917 34.7737C27.3065 34.7737 27.3139 34.7811 27.3139 34.796C27.3587 34.8183 27.448 34.8411 27.4924 34.8411C27.5035 34.8411 27.509 34.8466 27.5146 34.8521C27.5202 34.8578 27.5259 34.8634 27.5372 34.8634H27.5594C27.5705 34.8634 27.5761 34.8689 27.5816 34.8745C27.5873 34.8801 27.5929 34.8857 27.6043 34.8857C27.6491 34.908 27.6935 34.908 27.7383 34.908H27.7606C27.7754 34.908 27.7903 34.9155 27.8054 34.9304C27.8202 34.9304 27.8351 34.9378 27.8502 34.9527C27.865 34.9527 27.88 34.9601 27.895 34.975C27.9283 34.9861 27.9615 34.9916 27.9947 34.9972C28.0285 35.0029 28.0623 35.0086 28.0962 35.0201C28.141 35.0424 28.1854 35.0424 28.2524 35.0424H28.2524H28.4535C28.4798 35.0424 28.5058 35.05 28.5275 35.0564C28.5429 35.0609 28.556 35.0647 28.5654 35.0647C28.5878 35.0647 28.6101 35.0703 28.6324 35.0759L28.6324 35.0759C28.6548 35.0814 28.6771 35.087 28.6995 35.087H29.2802C29.3281 35.087 29.3697 35.0806 29.4082 35.0746C29.4416 35.0695 29.4726 35.0647 29.5035 35.0647C29.5259 35.0647 29.5427 35.0591 29.5594 35.0535C29.5762 35.048 29.593 35.0424 29.6154 35.0424C29.6378 35.0424 29.6601 35.0368 29.6824 35.0312C29.7047 35.0256 29.727 35.0201 29.7495 35.0201H29.7721C30.0846 34.975 30.3972 34.9076 30.7098 34.8179C30.799 34.7956 30.866 34.7729 30.9331 34.7282H30.9553C30.9701 34.7282 30.9775 34.7208 30.9775 34.7059C31.2886 34.594 31.5997 34.4378 31.9112 34.2815L31.9112 34.2815L31.9156 34.2793C31.9378 34.2793 31.9378 34.2569 31.9378 34.2569C31.96 34.2569 31.96 34.2346 31.96 34.2346C31.96 34.2346 31.9822 34.2346 31.9822 34.2123C32.2726 34.0552 32.5407 33.853 32.7863 33.6286C33.2773 33.1796 33.6795 32.6633 34.0365 32.1019H34.0361ZM20.1225 62.0715H37.8995H37.9C38.9717 62.0715 39.865 62.9471 39.8428 64.0471V65.9103C39.8428 65.955 39.7984 66 39.7535 66H18.2462C18.2018 66 18.157 65.9554 18.157 65.9103V64.0471C18.157 63.5308 18.3581 63.0368 18.7377 62.6552C19.1173 62.2737 19.6088 62.0715 20.1225 62.0715Z" fill="url(#paint0_linear_2376_2101)"/>
</g>
<defs>
<linearGradient id="paint0_linear_2376_2101" x1="28.9999" y1="0" x2="28.9999" y2="66" gradientUnits="userSpaceOnUse">
<stop stop-color="white"/>
<stop offset="1" stop-color="white" stop-opacity="0.28"/>
</linearGradient>
<clipPath id="clip0_2376_2101">
<rect width="58" height="66" fill="white"/>
</clipPath>
</defs>
</svg>
