<svg width="112" height="111" viewBox="0 0 112 111" fill="none" xmlns="http://www.w3.org/2000/svg">
<g filter="url(#filter0_d_1965_98)">
<mask id="mask0_1965_98" style="mask-type:alpha" maskUnits="userSpaceOnUse" x="0" y="0" width="111" height="111">
<rect x="26.7038" width="88.0956" height="88.0956" transform="rotate(17.6453 26.7038 0)" fill="#D9D9D9"/>
</mask>
<g mask="url(#mask0_1965_98)">
<path d="M39.0099 43.323C31.9317 51.3456 23.4693 71.8399 21.5691 79.8155C22.3896 80.9752 25.1856 83.3777 31.97 89.9973C43.4087 98.8052 64.0856 94.444 79.2864 77.2151C94.4872 59.9863 95.7618 40.3551 86.9421 30.4606C82.3966 25.3614 80.171 22.6826 78.491 21.0277C69.2615 22.9607 47.2092 34.0298 39.0099 43.323Z" fill="url(#paint0_linear_1965_98)"/>
<path d="M31.3701 34.4785C23.8258 43.0294 18.9602 52.2991 17.4089 60.6839C15.858 69.0667 17.6206 76.5498 23.3094 81.5689C28.9977 86.5876 37.2398 87.524 45.9656 85.0567C54.6898 82.5898 63.8761 76.7245 71.417 68.1774C78.9542 59.6346 82.898 49.8525 83.9215 41.296C84.9461 32.7302 83.0419 25.4287 78.9352 21.8055C73.2102 16.7545 65.1016 15.6415 56.5225 17.9365C47.9439 20.2313 38.9111 25.9315 31.3701 34.4785Z" fill="url(#paint1_linear_1965_98)" stroke="url(#paint2_linear_1965_98)" stroke-width="0.3"/>
<path d="M33.4708 36.3076C20.0426 51.5274 16.123 69.3347 26.3211 78.3323C36.5192 87.33 55.8213 81.6429 69.2496 66.4232C82.6778 51.2034 83.3102 31.5593 75.9172 25.0368C65.6583 15.9856 46.899 21.0879 33.4708 36.3076Z" fill="url(#paint3_linear_1965_98)"/>
<mask id="mask1_1965_98" style="mask-type:alpha" maskUnits="userSpaceOnUse" x="20" y="20" width="61" height="63">
<path d="M33.4709 36.3076C20.0426 51.5274 16.1231 69.3346 26.3212 78.3323C36.5193 87.33 55.8214 81.6429 69.2496 66.4231C82.6779 51.2034 83.3102 31.5593 75.9173 25.0367C65.6583 15.9856 46.8991 21.0878 33.4709 36.3076Z" fill="url(#paint4_linear_1965_98)"/>
</mask>
<g mask="url(#mask1_1965_98)">
<path d="M35.0495 38.3607C22.2088 52.9145 18.4607 69.9426 28.2126 78.5466C37.9645 87.1506 56.422 81.7123 69.2627 67.1585C82.1034 52.6047 82.708 33.8202 75.6386 27.583C65.8285 18.9279 47.8901 23.8069 35.0495 38.3607Z" fill="url(#paint5_linear_1965_98)"/>
<path d="M36.4783 39.6056C24.7261 52.9257 21.2957 68.5104 30.221 76.385C39.1462 84.2596 56.0391 79.2824 67.7913 65.9623C79.5435 52.6422 80.0969 35.45 73.6267 29.7415C64.6482 21.8201 48.2304 26.2855 36.4783 39.6056Z" fill="url(#paint6_linear_1965_98)"/>
</g>
<g clip-path="url(#clip0_1965_98)">
<path d="M50.9284 57.6821L46.5438 74.8298C46.4033 75.3776 46.7733 75.7927 47.2855 75.6632C47.652 75.5703 47.9692 75.221 48.0434 74.8293L51.2996 57.682C51.3184 57.5848 51.2712 57.5045 51.1893 57.4872C51.0828 57.4662 50.9605 57.5577 50.9284 57.6821Z" fill="white"/>
<path d="M51.8129 57.7074L50.8191 73.5245C50.7925 73.9502 51.0784 74.2461 51.4773 74.2075C51.9515 74.1607 52.3786 73.6658 52.3735 73.1678L52.2118 57.6688C52.2116 57.5758 52.1445 57.5046 52.0518 57.4978C51.9337 57.4884 51.8205 57.5869 51.8129 57.7074Z" fill="white"/>
<path d="M52.8256 57.5325L54.5736 71.7068C54.6208 72.0862 54.9366 72.3025 55.3168 72.2125C55.8074 72.0964 56.1819 71.534 56.0826 71.0596L53.2302 57.3588C53.211 57.2662 53.1296 57.2158 53.0327 57.2393C52.9087 57.2682 52.8105 57.4077 52.8256 57.5325Z" fill="white"/>
<path d="M54.0997 57.4211L58.1011 69.7456C58.2029 70.0585 58.5106 70.2036 58.8516 70.1008C59.3717 69.9437 59.7126 69.3058 59.5183 68.8544L54.4817 57.1802C54.449 57.1053 54.3706 57.0739 54.2847 57.0982C54.1517 57.139 54.0601 57.2983 54.0997 57.4211Z" fill="white"/>
<path d="M55.2938 57.069L60.9864 67.5148C61.1256 67.7704 61.429 67.8565 61.7388 67.7302C62.251 67.5207 62.5225 66.8546 62.2555 66.4633L55.638 56.7829C55.5973 56.7224 55.5199 56.7049 55.4423 56.7372C55.3086 56.7923 55.2334 56.9603 55.2938 57.069Z" fill="white"/>
<path d="M56.5264 56.6849L63.5715 65.2393C63.7401 65.4446 64.0401 65.478 64.3224 65.3253C64.8103 65.0604 64.9956 64.3959 64.6704 64.0778L56.8249 56.3716C56.7781 56.3251 56.7018 56.3195 56.6305 56.3585C56.5042 56.4248 56.4509 56.5925 56.5264 56.6849Z" fill="white"/>
<path d="M58.0443 56.0851L65.6809 62.8125C65.8644 62.9734 66.1521 62.9659 66.4033 62.7934C66.8363 62.4944 66.9369 61.8793 66.5936 61.6367L58.2919 55.7669C58.2424 55.7314 58.169 55.7372 58.106 55.7806C57.9952 55.8567 57.9635 56.013 58.0443 56.0851Z" fill="white"/>
<path d="M59.0729 55.192L67.3509 59.7732C67.5465 59.8819 67.8181 59.827 68.0301 59.6379C68.4037 59.3033 68.4114 58.7407 68.0455 58.585L59.2605 54.8693C59.2085 54.8468 59.1407 54.8642 59.0877 54.9115C58.9925 54.9975 58.9842 55.1418 59.0729 55.192Z" fill="white"/>
<path d="M60.1061 53.9976L67.8365 56.4616C68.0079 56.5167 68.2204 56.4487 68.3791 56.2862C68.6912 55.9684 68.6417 55.4814 68.2895 55.4067L60.2306 53.709C60.1787 53.6977 60.1164 53.7249 60.0762 53.7781C60.0109 53.8626 60.0259 53.9724 60.1061 53.9976Z" fill="white"/>
<path d="M60.6949 52.7705L67.7121 53.6719C67.913 53.6974 68.1382 53.5517 68.2408 53.3301C68.3744 53.0427 68.2457 52.7598 67.9788 52.7513L60.769 52.5124C60.7045 52.5102 60.6371 52.567 60.6198 52.6394C60.6034 52.7069 60.6358 52.763 60.6949 52.7705Z" fill="white"/>
<path d="M60.9109 51.2616L66.1587 50.9473C66.321 50.938 66.4696 50.7623 66.4576 50.5934C66.4479 50.471 66.3562 50.3943 66.2366 50.4098L60.9843 51.0978C60.9843 51.0978 60.9234 51.089 60.8818 51.1783C60.8473 51.2582 60.9109 51.2616 60.9109 51.2616Z" fill="white"/>
<path d="M60.2901 48.7881L63.1514 47.5851C63.2634 47.5378 63.3299 47.4003 63.2878 47.3017C63.2551 47.225 63.1668 47.201 63.0802 47.2452L60.289 48.6944L60.2901 48.7881Z" fill="white"/>
<path d="M59.3402 47.634L61.8038 46.1138C61.8813 46.0664 61.9182 45.9643 61.881 45.8972C61.8495 45.8381 61.7713 45.8292 61.7047 45.8754L59.323 47.5559L59.3402 47.634Z" fill="white"/>
<path d="M58.6036 46.9977L60.5156 45.0552L60.3712 44.9016L58.5777 46.9558L58.6036 46.9977Z" fill="white"/>
<path d="M57.6685 46.1631L59.1253 44.3432L59.0007 44.249L57.6538 46.1483C57.6458 46.1589 57.6587 46.1761 57.6685 46.1631Z" fill="white"/>
<path d="M56.378 45.5115L57.818 43.7309L57.6934 43.6367L56.3514 45.497L56.378 45.5115Z" fill="white"/>
<path d="M55.1942 45.2137L56.1843 43.1601L56.0315 43.1338L55.1733 45.2109C55.1733 45.209 55.188 45.2276 55.1942 45.2137Z" fill="white"/>
<path d="M60.7453 49.7952L64.4066 48.6856C64.5133 48.6528 64.6074 48.7035 64.6313 48.8052C64.6648 48.9456 64.5507 49.1158 64.403 49.1455L60.7443 49.8669C60.7353 49.8693 60.7271 49.8687 60.7197 49.8632C60.706 49.8528 60.7057 49.8303 60.7191 49.8126C60.7263 49.8031 60.7362 49.7976 60.7453 49.7952Z" fill="white"/>
<path d="M52.7119 48.635L57.0965 31.4874C57.237 30.9395 56.867 30.5245 56.3548 30.654C55.9882 30.7468 55.6711 31.0961 55.5969 31.4878L52.3406 48.6351C52.3218 48.7324 52.3691 48.8127 52.451 48.8299C52.5575 48.8509 52.6807 48.7601 52.7119 48.635Z" fill="white"/>
<path d="M51.8274 48.6097L52.8211 32.7927C52.8478 32.3669 52.5619 32.0711 52.1629 32.1097C51.6887 32.1565 51.2617 32.6513 51.2668 33.1493L51.4285 48.6483C51.4287 48.7414 51.4958 48.8125 51.5885 48.8194C51.7075 48.8294 51.8198 48.7303 51.8274 48.6097Z" fill="white"/>
<path d="M50.8146 48.7847L49.0667 34.6103C49.0195 34.231 48.7037 34.0147 48.3235 34.1046C47.8329 34.2208 47.4584 34.7832 47.5576 35.2576L50.41 48.9584C50.4293 49.051 50.5107 49.1013 50.6076 49.0779C50.7316 49.0489 50.8289 48.9106 50.8146 48.7847Z" fill="white"/>
<path d="M49.5396 48.8972L45.5382 36.5727C45.4364 36.2598 45.1288 36.1147 44.7878 36.2176C44.2677 36.3746 43.9268 37.0125 44.1211 37.464L49.1576 49.1382C49.1903 49.213 49.2688 49.2444 49.3547 49.2201C49.4886 49.1782 49.5801 49.0189 49.5396 48.8972Z" fill="white"/>
<path d="M48.3474 49.2488L42.6548 38.8031C42.5156 38.5474 42.2122 38.4613 41.9024 38.5877C41.3902 38.7971 41.1186 39.4633 41.3857 39.8545L48.0032 49.535C48.0439 49.5954 48.1212 49.613 48.1989 49.5806C48.3317 49.5249 48.4068 49.3568 48.3474 49.2488Z" fill="white"/>
<path d="M47.1147 49.633L40.0697 41.0786C39.9011 40.8732 39.6011 40.8398 39.3188 40.9926C38.8309 41.2575 38.6456 41.9219 38.9708 42.24L46.8162 49.9462C46.8631 49.9928 46.9394 49.9984 47.0107 49.9593C47.136 49.8924 47.1894 49.7246 47.1147 49.633Z" fill="white"/>
<path d="M45.5951 50.2332L37.9584 43.5059C37.7749 43.345 37.4872 43.3525 37.2361 43.525C36.803 43.8239 36.7024 44.439 37.0458 44.6817L45.3475 50.5515C45.3969 50.587 45.4704 50.5812 45.5334 50.5377C45.6442 50.4616 45.6767 50.3042 45.5951 50.2332Z" fill="white"/>
<path d="M44.5665 51.1263L36.2885 46.5452C36.0929 46.4365 35.8212 46.4913 35.6093 46.6805C35.2357 47.0151 35.2279 47.5777 35.5938 47.7333L44.3788 51.449C44.4308 51.4716 44.4987 51.4541 44.5517 51.4068C44.6487 51.3203 44.656 51.1754 44.5665 51.1263Z" fill="white"/>
<path d="M43.5342 52.3195L35.8037 49.8556C35.6324 49.8005 35.4199 49.8684 35.2612 50.0309C34.9491 50.3488 34.9986 50.8357 35.3508 50.9105L43.4097 52.6082C43.4616 52.6195 43.5239 52.5922 43.5641 52.539C43.6293 52.4545 43.6144 52.3448 43.5342 52.3195Z" fill="white"/>
<path d="M42.9453 53.5467L35.9273 52.6464C35.7264 52.6209 35.5012 52.7667 35.3985 52.9882C35.2649 53.2756 35.3936 53.5586 35.6606 53.567L42.8704 53.8059C42.9349 53.8082 43.0023 53.7513 43.0196 53.6789C43.036 53.6115 43.0044 53.5542 42.9453 53.5467Z" fill="white"/>
<path d="M42.7293 55.0555L37.4816 55.3699C37.3192 55.3791 37.1707 55.5549 37.1827 55.7237C37.1923 55.8462 37.284 55.9229 37.4037 55.9074L42.656 55.2193C42.656 55.2193 42.7169 55.2282 42.7585 55.1389C42.7929 55.059 42.7293 55.0555 42.7293 55.0555Z" fill="white"/>
<path d="M43.3493 57.5302L40.4879 58.7332C40.3759 58.7805 40.3095 58.918 40.3516 59.0166C40.3843 59.0934 40.4726 59.1174 40.5592 59.0732L43.3504 57.624L43.3493 57.5302Z" fill="white"/>
<path d="M44.3 58.685L41.8365 60.2052C41.759 60.2526 41.7221 60.3548 41.7592 60.4218C41.7908 60.481 41.869 60.4899 41.9356 60.4436L44.3173 58.7631L44.3 58.685Z" fill="white"/>
<path d="M45.0358 59.3207L43.1247 61.2619L43.2691 61.4156L45.0626 59.3614L45.0358 59.3207Z" fill="white"/>
<path d="M45.9718 60.154L44.5149 61.974L44.6395 62.0681L45.9865 60.1689C45.9945 60.1582 45.9825 60.1417 45.9718 60.154Z" fill="white"/>
<path d="M47.2623 60.8057L45.8223 62.5863L45.9469 62.6804L47.2888 60.8201L47.2623 60.8057Z" fill="white"/>
<path d="M48.446 61.1035L47.4559 63.1571L47.6087 63.1834L48.4669 61.1063C48.467 61.1082 48.4522 61.0896 48.446 61.1035Z" fill="white"/>
<path d="M42.895 56.522L39.2337 57.6335C39.127 57.6662 39.0329 57.6155 39.009 57.5139C38.9755 57.3734 39.0896 57.2032 39.2372 57.1736L42.896 56.4521C42.905 56.4497 42.9132 56.4503 42.9205 56.4558C42.9343 56.4662 42.9345 56.4887 42.9211 56.5065C42.914 56.514 42.9041 56.5196 42.895 56.522Z" fill="white"/>
</g>
</g>
</g>
<defs>
<filter id="filter0_d_1965_98" x="15.7222" y="10.647" width="95.7141" height="97.7799" filterUnits="userSpaceOnUse" color-interpolation-filters="sRGB">
<feFlood flood-opacity="0" result="BackgroundImageFix"/>
<feColorMatrix in="SourceAlpha" type="matrix" values="0 0 0 0 0 0 0 0 0 0 0 0 0 0 0 0 0 0 127 0" result="hardAlpha"/>
<feOffset dx="9" dy="4"/>
<feGaussianBlur stdDeviation="5"/>
<feComposite in2="hardAlpha" operator="out"/>
<feColorMatrix type="matrix" values="0 0 0 0 0 0 0 0 0 0 0 0 0 0 0 0 0 0 0.4 0"/>
<feBlend mode="normal" in2="BackgroundImageFix" result="effect1_dropShadow_1965_98"/>
<feBlend mode="normal" in="SourceGraphic" in2="effect1_dropShadow_1965_98" result="shape"/>
</filter>
<linearGradient id="paint0_linear_1965_98" x1="87.0825" y1="28.6079" x2="31.5972" y2="91.4958" gradientUnits="userSpaceOnUse">
<stop stop-color="#5E12DF"/>
<stop offset="0.22615" stop-color="#D4BBFF" stop-opacity="0.941069"/>
<stop offset="0.47258" stop-color="#6C31D0"/>
<stop offset="0.788457" stop-color="#430BA4"/>
<stop offset="1" stop-color="#4F17AF"/>
</linearGradient>
<linearGradient id="paint1_linear_1965_98" x1="81.3463" y1="53.1953" x2="14.5137" y2="62.1536" gradientUnits="userSpaceOnUse">
<stop stop-color="#A37AFF"/>
<stop offset="0.545882" stop-color="#C5A8FF"/>
<stop offset="0.994707" stop-color="#8344FF"/>
</linearGradient>
<linearGradient id="paint2_linear_1965_98" x1="78.1942" y1="20.9517" x2="23.999" y2="82.3774" gradientUnits="userSpaceOnUse">
<stop stop-color="#C7AAFF"/>
<stop offset="0.575702" stop-color="#8445FF"/>
<stop offset="1" stop-color="#B088FF"/>
</linearGradient>
<linearGradient id="paint3_linear_1965_98" x1="40.4464" y1="29.5919" x2="49.6316" y2="77.2486" gradientUnits="userSpaceOnUse">
<stop offset="0.00339886" stop-color="#360092"/>
<stop offset="1" stop-color="#6D22EE"/>
</linearGradient>
<linearGradient id="paint4_linear_1965_98" x1="40.4465" y1="29.5919" x2="49.6317" y2="77.2486" gradientUnits="userSpaceOnUse">
<stop offset="0.00339886" stop-color="#5D12DE"/>
<stop offset="1" stop-color="#A673FF"/>
</linearGradient>
<linearGradient id="paint5_linear_1965_98" x1="41.7199" y1="31.9388" x2="50.5032" y2="77.5103" gradientUnits="userSpaceOnUse">
<stop offset="0.00339886" stop-color="#5D12DE"/>
<stop offset="1" stop-color="#A673FF"/>
</linearGradient>
<linearGradient id="paint6_linear_1965_98" x1="42.5832" y1="33.7281" x2="50.622" y2="75.4366" gradientUnits="userSpaceOnUse">
<stop offset="0.00339886" stop-color="#7220FF"/>
<stop offset="1" stop-color="#B991FF"/>
</linearGradient>
<clipPath id="clip0_1965_98">
<rect width="34.9816" height="41.8846" fill="white" transform="matrix(-0.797929 -0.602751 -0.602751 0.797929 78.3996 46.9907)"/>
</clipPath>
</defs>
</svg>
