<svg width="50" height="50" viewBox="0 0 50 50" fill="none" xmlns="http://www.w3.org/2000/svg">
<circle cx="25" cy="25" r="24.5" fill="#3B0DC7" stroke="white"/>
<g clip-path="url(#clip0_47_5522)">
<path d="M23.4059 28.074L16.0104 41.5053C15.7745 41.9346 15.1846 42.0236 14.8269 41.6846C14.5711 41.4419 14.5251 41.0553 14.7164 40.7614L23.0855 27.8898C23.1327 27.8167 23.2258 27.7874 23.3078 27.8167C23.4133 27.8557 23.4593 27.9764 23.4059 28.074Z" fill="white"/>
<path d="M22.6261 27.652L13.1716 38.5283C12.917 38.821 12.4774 38.8734 12.1582 38.6503C11.7794 38.3844 11.7335 37.8478 12.0626 37.5234L22.3069 27.4288C22.3678 27.3678 22.4721 27.3544 22.5565 27.3959C22.6646 27.4483 22.6981 27.5691 22.6261 27.652Z" fill="white"/>
<path d="M21.866 27.0349L11.1163 35.4732C10.8281 35.6988 10.4146 35.6842 10.1451 35.4366C9.79737 35.1171 9.84084 34.5622 10.2358 34.3L21.6301 26.7202C21.7071 26.669 21.8102 26.6763 21.8785 26.7398C21.9666 26.8202 21.9604 26.9605 21.866 27.0349Z" fill="white"/>
<path d="M20.839 26.33L9.35033 32.4365C9.05848 32.5913 8.69834 32.534 8.47107 32.2974C8.12458 31.9364 8.24629 31.3486 8.70827 31.1486L20.6664 25.9824C20.7434 25.9495 20.8316 25.9678 20.8899 26.0263C20.9781 26.119 20.9533 26.269 20.839 26.33Z" fill="white"/>
<path d="M20.0379 25.5067L8.31448 29.5411C8.02761 29.6399 7.70968 29.546 7.52464 29.3094C7.21914 28.9179 7.41908 28.346 7.90466 28.2216L19.9274 25.1482C20.0019 25.1287 20.0801 25.1555 20.1261 25.2153C20.2056 25.3177 20.1609 25.4653 20.0379 25.5067Z" fill="white"/>
<path d="M19.2246 24.6433L7.56704 26.7654C7.28761 26.8166 7.00694 26.6898 6.86289 26.4495C6.61451 26.0336 6.88772 25.5055 7.37579 25.458L19.1712 24.2896C19.242 24.2823 19.3116 24.3164 19.3476 24.3774C19.4134 24.4835 19.3501 24.6201 19.2246 24.6433Z" fill="white"/>
<path d="M18.3056 23.4969L7.3285 24.1262C7.06522 24.1408 6.82181 23.9932 6.71749 23.7554C6.53866 23.3444 6.85286 22.8907 7.30739 22.9017L18.2993 23.1651C18.3652 23.1664 18.4248 23.2066 18.4509 23.2664C18.4968 23.3712 18.4223 23.4895 18.3056 23.4969Z" fill="white"/>
<path d="M18.0001 22.4005L7.86873 21.3028C7.62905 21.2772 7.43035 21.1065 7.37074 20.8772C7.26642 20.4723 7.62656 20.0991 8.04384 20.1784L18.0485 22.0956C18.1081 22.1065 18.1553 22.1517 18.1702 22.209C18.1963 22.3126 18.1093 22.4114 18.0001 22.4005Z" fill="white"/>
<path d="M17.887 21.104L9.60853 18.888C9.42473 18.8393 9.28564 18.6893 9.25459 18.5039C9.19249 18.1404 9.55264 17.8453 9.90534 17.9709L17.9677 20.8528C18.0198 20.8711 18.0558 20.9199 18.0558 20.9748C18.0571 21.0626 17.9726 21.1272 17.887 21.104Z" fill="white"/>
<path d="M18.179 20.0064L11.5349 17.1184C11.3448 17.0355 11.2455 16.8282 11.3014 16.6318C11.3734 16.3769 11.669 16.255 11.9049 16.3818L18.2833 19.8003C18.3404 19.8308 18.3615 19.9015 18.3292 19.9576C18.2994 20.0101 18.2348 20.0308 18.179 20.0064Z" fill="white"/>
<path d="M18.9762 18.9088L14.652 16.1001C14.5179 16.0135 14.5042 15.8244 14.6247 15.7196C14.7128 15.6439 14.842 15.6391 14.9351 15.7086L19.0197 18.7649C19.0197 18.7649 19.0781 18.7893 19.0557 18.8685C19.0334 18.938 18.9762 18.9088 18.9762 18.9088Z" fill="white"/>
<path d="M21.1246 17.5928L19.4394 15.3842C19.3735 15.2976 19.4058 15.1744 19.5064 15.1305C19.5847 15.0963 19.6766 15.1244 19.7225 15.1964L21.1867 17.5319L21.1246 17.5928Z" fill="white"/>
<path d="M22.697 17.3062L21.5619 15.0866C21.5259 15.0171 21.5606 14.9317 21.6364 14.9061C21.7022 14.8829 21.7755 14.9158 21.8028 14.9793L22.7628 17.2636L22.697 17.3062Z" fill="white"/>
<path d="M23.7475 17.2538L23.3638 15.0305L23.5886 15.0012L23.7972 17.2392L23.7475 17.2538Z" fill="white"/>
<path d="M25.0986 17.1696L25.0278 15.2525H25.1967L25.121 17.1672C25.121 17.1782 25.0986 17.1831 25.0986 17.1696Z" fill="white"/>
<path d="M26.6374 17.3819L26.5554 15.4988H26.7243L26.6697 17.3855L26.6374 17.3819Z" fill="white"/>
<path d="M27.8532 17.7733L28.3375 15.9342L28.4865 15.9927L27.873 17.7819C27.8743 17.7807 27.8494 17.7855 27.8532 17.7733Z" fill="white"/>
<path d="M20.0753 18.0282L17.6387 15.4842C17.5679 15.4098 17.4537 15.3964 17.3667 15.4512C17.2463 15.5269 17.2339 15.6952 17.3419 15.7879L20.0294 18.0758C20.0356 18.0819 20.043 18.0856 20.0529 18.0856C20.0716 18.0856 20.0865 18.0709 20.0865 18.0526C20.0865 18.0429 20.0815 18.0343 20.0753 18.0282Z" fill="white"/>
<path d="M27.7651 21.2504L35.1605 7.81907C35.3965 7.38977 35.9864 7.30074 36.3441 7.63979C36.5999 7.88248 36.6458 8.26909 36.4546 8.56301L28.0855 21.4345C28.0383 21.5077 27.9452 21.537 27.8632 21.5077C27.7576 21.4687 27.7105 21.348 27.7651 21.2504Z" fill="white"/>
<path d="M28.5451 21.6724L37.9996 10.7961C38.2542 10.5034 38.6938 10.4509 39.013 10.6741C39.3917 10.94 39.4377 11.4766 39.1086 11.801L28.8643 21.8955C28.8034 21.9565 28.6991 21.9699 28.6146 21.9285C28.5054 21.876 28.4731 21.7553 28.5451 21.6724Z" fill="white"/>
<path d="M29.3051 22.2895L40.0549 13.8511C40.343 13.6255 40.7565 13.6402 41.026 13.8877C41.3737 14.2073 41.3303 14.7622 40.9354 15.0244L29.541 22.6041C29.464 22.6553 29.361 22.648 29.2927 22.5846C29.2045 22.5041 29.2107 22.3651 29.3051 22.2895Z" fill="white"/>
<path d="M30.332 22.9956L41.8207 16.8891C42.1126 16.7343 42.4727 16.7916 42.7 17.0282C43.0465 17.3892 42.9248 17.977 42.4628 18.177L30.5047 23.3432C30.4277 23.3761 30.3395 23.3578 30.2811 23.2993C30.1929 23.2054 30.2178 23.0554 30.332 22.9956Z" fill="white"/>
<path d="M31.1318 23.8176L42.8552 19.7832C43.1421 19.6844 43.46 19.7783 43.6451 20.0149C43.9506 20.4064 43.7506 20.9784 43.265 21.1028L31.2423 24.1762C31.1678 24.1957 31.0896 24.1689 31.0436 24.1091C30.9654 24.0067 31.0101 23.8591 31.1318 23.8176Z" fill="white"/>
<path d="M31.9452 24.6811L43.6028 22.559C43.8823 22.5078 44.1629 22.6346 44.307 22.8749C44.5554 23.2908 44.2821 23.8188 43.7941 23.8664L31.9986 25.0348C31.9278 25.0421 31.8583 25.0079 31.8223 24.947C31.7577 24.8409 31.821 24.7043 31.9452 24.6811Z" fill="white"/>
<path d="M32.8656 25.8287L43.8426 25.1994C44.1059 25.1848 44.3493 25.3323 44.4536 25.5702C44.6325 25.9812 44.3183 26.4349 43.8637 26.4239L32.8718 26.1604C32.806 26.1592 32.7464 26.119 32.7203 26.0592C32.6743 25.9543 32.7489 25.8348 32.8656 25.8287Z" fill="white"/>
<path d="M33.171 26.9251L43.3023 28.0228C43.542 28.0484 43.7407 28.2191 43.8003 28.4484C43.9046 28.8533 43.5445 29.2265 43.1272 29.1472L33.1226 27.23C33.063 27.219 33.0158 27.1739 33.0009 27.1166C32.9735 27.0117 33.0617 26.9129 33.171 26.9251Z" fill="white"/>
<path d="M33.2841 28.2203L41.5626 30.4363C41.7464 30.4851 41.8855 30.6351 41.9165 30.8205C41.9786 31.1839 41.6185 31.4791 41.2658 31.3535L33.2034 28.4716C33.1513 28.4533 33.1152 28.4045 33.1152 28.3496C33.114 28.2618 33.1985 28.1972 33.2841 28.2203Z" fill="white"/>
<path d="M32.9923 29.318L39.6364 32.2072C39.8264 32.2901 39.9258 32.4974 39.8699 32.6938C39.7979 32.9487 39.5023 33.0706 39.2664 32.9438L32.888 29.5253C32.8309 29.4948 32.8098 29.4241 32.8421 29.368C32.8719 29.3155 32.9364 29.2936 32.9923 29.318Z" fill="white"/>
<path d="M32.1949 30.4156L36.5192 33.2243C36.6533 33.3109 36.667 33.4999 36.5465 33.6048C36.4583 33.6804 36.3292 33.6853 36.236 33.6158L32.1515 30.5595C32.1515 30.5595 32.0931 30.5351 32.1155 30.4558C32.1378 30.3863 32.1949 30.4156 32.1949 30.4156Z" fill="white"/>
<path d="M30.0465 31.7327L31.7317 33.9414C31.7975 34.028 31.7652 34.1512 31.6646 34.1951C31.5864 34.2292 31.4945 34.2012 31.4486 34.1292L29.9844 31.7937L30.0465 31.7327Z" fill="white"/>
<path d="M28.473 32.0193L29.6081 34.239C29.6441 34.3085 29.6094 34.3939 29.5336 34.4195C29.4678 34.4427 29.3945 34.4097 29.3672 34.3463L28.4072 32.062L28.473 32.0193Z" fill="white"/>
<path d="M27.4237 32.0718L27.8074 34.2939L27.5827 34.3232L27.374 32.0852L27.4237 32.0718Z" fill="white"/>
<path d="M26.0725 32.1547L26.1433 34.0719H25.9744L26.0501 32.1572C26.0501 32.1462 26.0712 32.1413 26.0725 32.1547Z" fill="white"/>
<path d="M24.5337 31.9425L24.6157 33.8256H24.4468L24.5014 31.9389L24.5337 31.9425Z" fill="white"/>
<path d="M23.3179 31.551L22.8336 33.3902L22.6846 33.3316L23.2981 31.5425C23.2968 31.5437 23.3217 31.5388 23.3179 31.551Z" fill="white"/>
<path d="M31.0959 31.2961L33.5313 33.8414C33.602 33.9158 33.7163 33.9292 33.8032 33.8743C33.9237 33.7987 33.9361 33.6304 33.8281 33.5377L31.1406 31.2498C31.1344 31.2437 31.127 31.24 31.117 31.24C31.0984 31.24 31.0835 31.2547 31.0835 31.273C31.0847 31.2815 31.0897 31.29 31.0959 31.2961Z" fill="white"/>
</g>
<defs>
<clipPath id="clip0_47_5522">
<rect width="37.8378" height="34.4595" fill="white" transform="translate(6.6665 7.43245)"/>
</clipPath>
</defs>
</svg>
