<svg xmlns="http://www.w3.org/2000/svg" width="87" height="10" viewBox="0 0 87 10" fill="none">
  <path d="M86.1348 4.57333C86.5081 4.94667 86.717 5.39111 86.7614 5.90667H86.7747V7.2C86.7747 7.79556 86.5614 8.30667 86.1348 8.73333C85.717 9.15111 85.2103 9.36 84.6148 9.36H77.6547C77.0592 9.36 76.5481 9.15111 76.1214 8.73333C75.7036 8.30667 75.4948 7.79556 75.4948 7.2V2.16C75.4948 1.56444 75.7036 1.05778 76.1214 0.64C76.5481 0.213333 77.0592 0 77.6547 0H86.4281V1.45333H77.6547C77.4592 1.45333 77.2903 1.52444 77.1481 1.66667C77.0059 1.8 76.9348 1.96444 76.9348 2.16V7.2C76.9348 7.39556 77.0059 7.56445 77.1481 7.70667C77.2903 7.84889 77.4592 7.92 77.6547 7.92H84.6148C84.8103 7.92 84.9748 7.84889 85.1081 7.70667C85.2503 7.56445 85.3214 7.39556 85.3214 7.2V6.09333C85.3214 5.89778 85.2503 5.73333 85.1081 5.6C84.9748 5.45778 84.8103 5.38667 84.6148 5.38667H79.8948V3.93333H84.6148C85.2103 3.93333 85.717 4.14667 86.1348 4.57333Z" fill="white"/>
  <path d="M65.3868 1.52001C65.289 1.47556 64.8979 1.45778 64.2134 1.46667V9.34667H62.7734V0.0266724H63.2001C63.209 0.0266724 63.2179 0.0266724 63.2268 0.0266724H64.0668C64.6001 0.0266724 64.889 0.0266724 64.9334 0.0266724C65.4312 0.0355617 65.8223 0.102229 66.1068 0.226673C66.4001 0.342229 66.6668 0.595562 66.9068 0.986673L66.9201 1.01334L71.0001 7.13334C71.1957 7.47112 71.409 7.68445 71.6401 7.77334C71.8801 7.86223 72.2357 7.90223 72.7068 7.89334V0.0266724H74.1601V9.34667H72.5068C71.849 9.34667 71.3157 9.24445 70.9068 9.04001C70.5068 8.82667 70.1201 8.43556 69.7468 7.86667L65.7201 1.82667L65.7068 1.81334C65.609 1.66223 65.5023 1.56445 65.3868 1.52001Z" fill="white"/>
  <path d="M59.2763 9.36H52.3162C51.7207 9.36 51.2096 9.15111 50.7829 8.73333C50.3651 8.30667 50.1562 7.79556 50.1562 7.2V2.16C50.1562 1.56444 50.3651 1.05778 50.7829 0.64C51.2096 0.213333 51.7207 0 52.3162 0H59.2763C59.8718 0 60.3785 0.213333 60.7962 0.64C61.2229 1.05778 61.4362 1.56444 61.4362 2.16V7.2C61.4362 7.79556 61.2229 8.30667 60.7962 8.73333C60.3785 9.15111 59.8718 9.36 59.2763 9.36ZM51.5963 7.2C51.5963 7.39556 51.6674 7.56445 51.8096 7.70667C51.9518 7.84889 52.1207 7.92 52.3162 7.92H59.2763C59.4718 7.92 59.6362 7.84889 59.7696 7.70667C59.9118 7.56445 59.9829 7.39556 59.9829 7.2V2.16C59.9829 1.96444 59.9118 1.8 59.7696 1.66667C59.6362 1.52444 59.4718 1.45333 59.2763 1.45333H52.3162C52.1207 1.45333 51.9518 1.52444 51.8096 1.66667C51.6674 1.8 51.5963 1.96444 51.5963 2.16V7.2Z" fill="white"/>
  <path d="M39.1353 7.20001C39.1353 7.39556 39.2064 7.56445 39.3486 7.70667C39.4909 7.8489 39.6598 7.92001 39.8553 7.92001H48.8286V9.36001H39.8553C39.2598 9.36001 38.7486 9.15112 38.322 8.73334C37.9042 8.30667 37.6953 7.79556 37.6953 7.20001V0.0266724H39.1353V7.20001Z" fill="white"/>
  <path d="M26.6744 7.20001C26.6744 7.39556 26.7455 7.56445 26.8877 7.70667C27.0299 7.8489 27.1988 7.92001 27.3944 7.92001H36.3677V9.36001H27.3944C26.7988 9.36001 26.2877 9.15112 25.861 8.73334C25.4433 8.30667 25.2344 7.79556 25.2344 7.20001V0.0266724H26.6744V7.20001Z" fill="white"/>
  <path d="M21.7372 9.36H14.7772C14.1816 9.36 13.6705 9.15111 13.2439 8.73333C12.8261 8.30667 12.6172 7.79556 12.6172 7.2V2.16C12.6172 1.56444 12.8261 1.05778 13.2439 0.64C13.6705 0.213333 14.1816 0 14.7772 0H21.7372C22.3327 0 22.8394 0.213333 23.2572 0.64C23.6839 1.05778 23.8972 1.56444 23.8972 2.16V7.2C23.8972 7.79556 23.6839 8.30667 23.2572 8.73333C22.8394 9.15111 22.3327 9.36 21.7372 9.36ZM14.0572 7.2C14.0572 7.39556 14.1283 7.56445 14.2705 7.70667C14.4127 7.84889 14.5816 7.92 14.7772 7.92H21.7372C21.9327 7.92 22.0972 7.84889 22.2305 7.70667C22.3727 7.56445 22.4439 7.39556 22.4439 7.2V2.16C22.4439 1.96444 22.3727 1.8 22.2305 1.66667C22.0972 1.52444 21.9327 1.45333 21.7372 1.45333H14.7772C14.5816 1.45333 14.4127 1.52444 14.2705 1.66667C14.1283 1.8 14.0572 1.96444 14.0572 2.16V7.2Z" fill="white"/>
  <path d="M1.44 2.16V3.92C2.43556 3.92 3.95111 3.92 5.98667 3.92C8.03111 3.92 9.57778 3.92 10.6267 3.92C10.8044 3.92 10.9556 3.98222 11.08 4.10667C11.2133 4.23111 11.28 4.38222 11.28 4.56V7.18667C11.28 7.77333 11.0667 8.28 10.64 8.70667C10.2222 9.13333 9.71556 9.34667 9.12 9.34667H0.346667V7.89333H9.12C9.31556 7.89333 9.48 7.82667 9.61333 7.69333C9.75556 7.55111 9.82667 7.38222 9.82667 7.18667V5.36H0.64C0.462222 5.36 0.311111 5.29778 0.186667 5.17333C0.0622223 5.04889 0 4.89778 0 4.72V2.16C0 1.56444 0.208889 1.05778 0.626667 0.64C1.05333 0.213333 1.56444 0 2.16 0H10.9333V1.45333H2.16C1.96444 1.45333 1.79556 1.52444 1.65333 1.66667C1.51111 1.8 1.44 1.96444 1.44 2.16Z" fill="white"/>
</svg>