<?xml version="1.0" encoding="utf-8"?>
<!-- Generator: Adobe Illustrator 21.1.0, SVG Export Plug-In . SVG Version: 6.00 Build 0)  -->
<svg version="1.1" id="Icon_Set" xmlns="http://www.w3.org/2000/svg" xmlns:xlink="http://www.w3.org/1999/xlink" x="0px" y="0px"
	 viewBox="0 0 64 64" style="enable-background:new 0 0 64 64;" xml:space="preserve">
<style type="text/css">
	.st0{fill:#263238;}
	.st1{fill:#FFD740;}
	.st2{fill:#FF5252;}
	.st3{fill:#40C4FF;}
	.st4{fill:#4DB6AC;}
	.st5{fill:#FFFFFF;}
	.st6{fill:#FFD345;}
</style>
<g>
	<g>
		<path class="st0" d="M60,59.25H4c-0.276,0-0.5-0.224-0.5-0.5v-51c0-0.276,0.224-0.5,0.5-0.5s0.5,0.224,0.5,0.5v50.5H60
			c0.276,0,0.5,0.224,0.5,0.5S60.276,59.25,60,59.25z"/>
	</g>
	<g>
		<path class="st0" d="M12,61.75c-0.276,0-0.5-0.224-0.5-0.5v-2.5c0-0.276,0.224-0.5,0.5-0.5s0.5,0.224,0.5,0.5v2.5
			C12.5,61.526,12.276,61.75,12,61.75z"/>
	</g>
	<g>
		<path class="st0" d="M22,61.75c-0.276,0-0.5-0.224-0.5-0.5v-2.5c0-0.276,0.224-0.5,0.5-0.5s0.5,0.224,0.5,0.5v2.5
			C22.5,61.526,22.276,61.75,22,61.75z"/>
	</g>
	<g>
		<path class="st0" d="M32,61.75c-0.276,0-0.5-0.224-0.5-0.5v-2.5c0-0.276,0.224-0.5,0.5-0.5s0.5,0.224,0.5,0.5v2.5
			C32.5,61.526,32.276,61.75,32,61.75z"/>
	</g>
	<g>
		<path class="st0" d="M42,61.75c-0.276,0-0.5-0.224-0.5-0.5v-2.5c0-0.276,0.224-0.5,0.5-0.5s0.5,0.224,0.5,0.5v2.5
			C42.5,61.526,42.276,61.75,42,61.75z"/>
	</g>
	<g>
		<path class="st0" d="M52,61.75c-0.276,0-0.5-0.224-0.5-0.5v-2.5c0-0.276,0.224-0.5,0.5-0.5s0.5,0.224,0.5,0.5v2.5
			C52.5,61.526,52.276,61.75,52,61.75z"/>
	</g>
	<g>
		<path class="st0" d="M23,5.25h-4c-0.276,0-0.5-0.224-0.5-0.5s0.224-0.5,0.5-0.5h4c0.276,0,0.5,0.224,0.5,0.5S23.276,5.25,23,5.25z
			"/>
	</g>
	<g>
		<path class="st0" d="M21,7.25c-0.276,0-0.5-0.224-0.5-0.5v-4c0-0.276,0.224-0.5,0.5-0.5s0.5,0.224,0.5,0.5v4
			C21.5,7.026,21.276,7.25,21,7.25z"/>
	</g>
	<g>
		<path class="st0" d="M14,13.25h-4c-0.276,0-0.5-0.224-0.5-0.5s0.224-0.5,0.5-0.5h4c0.276,0,0.5,0.224,0.5,0.5
			S14.276,13.25,14,13.25z"/>
	</g>
	<g>
		<path class="st0" d="M12,15.25c-0.276,0-0.5-0.224-0.5-0.5v-4c0-0.276,0.224-0.5,0.5-0.5s0.5,0.224,0.5,0.5v4
			C12.5,15.026,12.276,15.25,12,15.25z"/>
	</g>
	<g>
		<circle class="st2" cx="24.5" cy="23" r="2.5"/>
		<path class="st0" d="M24.5,26c-1.654,0-3-1.346-3-3s1.346-3,3-3s3,1.346,3,3S26.154,26,24.5,26z M24.5,21c-1.103,0-2,0.897-2,2
			s0.897,2,2,2s2-0.897,2-2S25.603,21,24.5,21z"/>
	</g>
	<g>
		<circle class="st2" cx="29.5" cy="33" r="2.5"/>
		<path class="st0" d="M29.5,36c-1.654,0-3-1.346-3-3s1.346-3,3-3s3,1.346,3,3S31.154,36,29.5,36z M29.5,31c-1.103,0-2,0.897-2,2
			s0.897,2,2,2s2-0.897,2-2S30.603,31,29.5,31z"/>
	</g>
	<g>
		<circle class="st2" cx="41" cy="40" r="2.5"/>
		<path class="st0" d="M41,43c-1.654,0-3-1.346-3-3s1.346-3,3-3s3,1.346,3,3S42.654,43,41,43z M41,38c-1.103,0-2,0.897-2,2
			s0.897,2,2,2s2-0.897,2-2S42.103,38,41,38z"/>
	</g>
	<g>
		<circle class="st2" cx="17" cy="33" r="2.5"/>
		<path class="st0" d="M17,36c-1.654,0-3-1.346-3-3s1.346-3,3-3s3,1.346,3,3S18.654,36,17,36z M17,31c-1.103,0-2,0.897-2,2
			s0.897,2,2,2s2-0.897,2-2S18.103,31,17,31z"/>
	</g>
	<g>
		<circle class="st2" cx="37" cy="23" r="2.5"/>
		<path class="st0" d="M37,26c-1.654,0-3-1.346-3-3s1.346-3,3-3s3,1.346,3,3S38.654,26,37,26z M37,21c-1.103,0-2,0.897-2,2
			s0.897,2,2,2s2-0.897,2-2S38.103,21,37,21z"/>
	</g>
	<g>
		<circle class="st2" cx="44.5" cy="48" r="2.5"/>
		<path class="st0" d="M44.5,51c-1.654,0-3-1.346-3-3s1.346-3,3-3s3,1.346,3,3S46.154,51,44.5,51z M44.5,46c-1.103,0-2,0.897-2,2
			s0.897,2,2,2s2-0.897,2-2S45.603,46,44.5,46z"/>
	</g>
	<g>
		<circle class="st2" cx="52" cy="38" r="2.5"/>
		<path class="st0" d="M52,41c-1.654,0-3-1.346-3-3s1.346-3,3-3s3,1.346,3,3S53.654,41,52,41z M52,36c-1.103,0-2,0.897-2,2
			s0.897,2,2,2s2-0.897,2-2S53.103,36,52,36z"/>
	</g>
	<g>
		<circle class="st2" cx="32" cy="48" r="2.5"/>
		<path class="st0" d="M32,51c-1.654,0-3-1.346-3-3s1.346-3,3-3s3,1.346,3,3S33.654,51,32,51z M32,46c-1.103,0-2,0.897-2,2
			s0.897,2,2,2s2-0.897,2-2S33.103,46,32,46z"/>
	</g>
	<g>
		<path class="st0" d="M13.999,45.5c-0.248,0-0.464-0.185-0.495-0.438c-0.034-0.274,0.16-0.524,0.434-0.558l0.596-0.075
			c14.493-1.812,27.179-10.624,33.934-23.572l1.09-2.088c0.128-0.245,0.431-0.338,0.675-0.212c0.245,0.128,0.34,0.43,0.212,0.675
			l-1.09,2.088c-6.907,13.239-19.878,22.25-34.695,24.102l-0.596,0.075C14.041,45.499,14.021,45.5,13.999,45.5z"/>
	</g>
</g>
</svg>
