<?xml version="1.0" encoding="utf-8"?>
<!-- Generator: Adobe Illustrator 21.1.0, SVG Export Plug-In . SVG Version: 6.00 Build 0)  -->
<svg version="1.1" id="Icon_Set" xmlns="http://www.w3.org/2000/svg" xmlns:xlink="http://www.w3.org/1999/xlink" x="0px" y="0px"
	 viewBox="0 0 64 64" style="enable-background:new 0 0 64 64;" xml:space="preserve">
<style type="text/css">
	.st0{fill:#263238;}
	.st1{fill:#FFD740;}
	.st2{fill:#FF5252;}
	.st3{fill:#40C4FF;}
	.st4{fill:#4DB6AC;}
	.st5{fill:#FFFFFF;}
	.st6{fill:#FFD345;}
</style>
<g>
	<g>
		<rect x="17" y="21" class="st3" width="8" height="8"/>
		<path class="st0" d="M25,29.5h-8c-0.276,0-0.5-0.224-0.5-0.5v-8c0-0.276,0.224-0.5,0.5-0.5h8c0.276,0,0.5,0.224,0.5,0.5v8
			C25.5,29.276,25.276,29.5,25,29.5z M17.5,28.5h7v-7h-7V28.5z"/>
	</g>
	<g>
		<rect x="30" y="17" class="st1" width="8" height="8"/>
		<path class="st0" d="M38,25.5h-8c-0.276,0-0.5-0.224-0.5-0.5v-8c0-0.276,0.224-0.5,0.5-0.5h8c0.276,0,0.5,0.224,0.5,0.5v8
			C38.5,25.276,38.276,25.5,38,25.5z M30.5,24.5h7v-7h-7V24.5z"/>
	</g>
	<g>
		<rect x="47.5" y="22" class="st1" width="8" height="8"/>
		<path class="st0" d="M55.5,30.5h-8c-0.276,0-0.5-0.224-0.5-0.5v-8c0-0.276,0.224-0.5,0.5-0.5h8c0.276,0,0.5,0.224,0.5,0.5v8
			C56,30.276,55.776,30.5,55.5,30.5z M48,29.5h7v-7h-7V29.5z"/>
	</g>
	<g>
		<rect x="31" y="44" class="st1" width="8" height="8"/>
		<path class="st0" d="M39,52.5h-8c-0.276,0-0.5-0.224-0.5-0.5v-8c0-0.276,0.224-0.5,0.5-0.5h8c0.276,0,0.5,0.224,0.5,0.5v8
			C39.5,52.276,39.276,52.5,39,52.5z M31.5,51.5h7v-7h-7V51.5z"/>
	</g>
	<g>
		<path class="st0" d="M30,41.5h-8c-0.276,0-0.5-0.224-0.5-0.5v-8c0-0.276,0.224-0.5,0.5-0.5h8c0.276,0,0.5,0.224,0.5,0.5v8
			C30.5,41.276,30.276,41.5,30,41.5z M22.5,40.5h7v-7h-7V40.5z"/>
	</g>
	<g>
		<rect x="35" y="29" class="st2" width="8" height="8"/>
		<path class="st0" d="M43,37.5h-8c-0.276,0-0.5-0.224-0.5-0.5v-8c0-0.276,0.224-0.5,0.5-0.5h8c0.276,0,0.5,0.224,0.5,0.5v8
			C43.5,37.276,43.276,37.5,43,37.5z M35.5,36.5h7v-7h-7V36.5z"/>
	</g>
	<g>
		<rect x="43.5" y="39" class="st3" width="8" height="8"/>
		<path class="st0" d="M51.5,47.5h-8c-0.276,0-0.5-0.224-0.5-0.5v-8c0-0.276,0.224-0.5,0.5-0.5h8c0.276,0,0.5,0.224,0.5,0.5v8
			C52,47.276,51.776,47.5,51.5,47.5z M44,46.5h7v-7h-7V46.5z"/>
	</g>
	<g>
		<path class="st0" d="M9.5,54.188H9c-1.654,0-3-1.346-3-3v-43c0-1.654,1.346-3,3-3h31c1.654,0,3,1.346,3,3v0.5
			c0,0.276-0.224,0.5-0.5,0.5S42,8.964,42,8.688v-0.5c0-1.103-0.897-2-2-2H9c-1.103,0-2,0.897-2,2v43c0,1.103,0.897,2,2,2h0.5
			c0.276,0,0.5,0.224,0.5,0.5S9.776,54.188,9.5,54.188z"/>
	</g>
	<g>
		<path class="st0" d="M45,59.188H14c-1.654,0-3-1.346-3-3v-43c0-1.654,1.346-3,3-3h31c1.654,0,3,1.346,3,3v7
			c0,0.276-0.224,0.5-0.5,0.5s-0.5-0.224-0.5-0.5v-7c0-1.103-0.897-2-2-2H14c-1.103,0-2,0.897-2,2v43c0,1.103,0.897,2,2,2h31
			c1.103,0,2-0.897,2-2v-7c0-0.276,0.224-0.5,0.5-0.5s0.5,0.224,0.5,0.5v7C48,57.842,46.654,59.188,45,59.188z"/>
	</g>
	<g>
		<path class="st0" d="M47.5,37.5c-0.276,0-0.5-0.224-0.5-0.5v-5c0-0.276,0.224-0.5,0.5-0.5S48,31.724,48,32v5
			C48,37.276,47.776,37.5,47.5,37.5z"/>
	</g>
	<g>
		<path class="st0" d="M17.5,62.5h-2c-0.276,0-0.5-0.224-0.5-0.5s0.224-0.5,0.5-0.5h2c0.276,0,0.5,0.224,0.5,0.5
			S17.776,62.5,17.5,62.5z"/>
	</g>
	<g>
		<path class="st0" d="M39.5,62.5h-20c-0.276,0-0.5-0.224-0.5-0.5s0.224-0.5,0.5-0.5h20c0.276,0,0.5,0.224,0.5,0.5
			S39.776,62.5,39.5,62.5z"/>
	</g>
	<g>
		<path class="st0" d="M50.5,4.5h-4C46.224,4.5,46,4.276,46,4s0.224-0.5,0.5-0.5h4C50.776,3.5,51,3.724,51,4S50.776,4.5,50.5,4.5z"
			/>
	</g>
	<g>
		<path class="st0" d="M48.5,6.5C48.224,6.5,48,6.276,48,6V2c0-0.276,0.224-0.5,0.5-0.5S49,1.724,49,2v4
			C49,6.276,48.776,6.5,48.5,6.5z"/>
	</g>
	<g>
		<path class="st0" d="M57.5,11h-4c-0.276,0-0.5-0.224-0.5-0.5s0.224-0.5,0.5-0.5h4c0.276,0,0.5,0.224,0.5,0.5S57.776,11,57.5,11z"
			/>
	</g>
	<g>
		<path class="st0" d="M55.5,13c-0.276,0-0.5-0.224-0.5-0.5v-4C55,8.224,55.224,8,55.5,8S56,8.224,56,8.5v4
			C56,12.776,55.776,13,55.5,13z"/>
	</g>
</g>
</svg>
