<?xml version="1.0" encoding="utf-8"?>
<!-- Generator: Adobe Illustrator 21.1.0, SVG Export Plug-In . SVG Version: 6.00 Build 0)  -->
<svg version="1.1" id="Icon_Set" xmlns="http://www.w3.org/2000/svg" xmlns:xlink="http://www.w3.org/1999/xlink" x="0px" y="0px"
	 viewBox="0 0 64 64" style="enable-background:new 0 0 64 64;" xml:space="preserve">
<style type="text/css">
	.st0{fill:#263238;}
	.st1{fill:#FFD740;}
	.st2{fill:#FF5252;}
	.st3{fill:#40C4FF;}
	.st4{fill:#4DB6AC;}
	.st5{fill:#FFFFFF;}
	.st6{fill:#FFD345;}
</style>
<g>
	<g>
		<path class="st0" d="M60,56.75H4c-0.276,0-0.5-0.224-0.5-0.5v-51c0-0.276,0.224-0.5,0.5-0.5s0.5,0.224,0.5,0.5v50.5H60
			c0.276,0,0.5,0.224,0.5,0.5S60.276,56.75,60,56.75z"/>
	</g>
	<g>
		<path class="st0" d="M12,59.25c-0.276,0-0.5-0.224-0.5-0.5v-2.5c0-0.276,0.224-0.5,0.5-0.5s0.5,0.224,0.5,0.5v2.5
			C12.5,59.026,12.276,59.25,12,59.25z"/>
	</g>
	<g>
		<path class="st0" d="M22,59.25c-0.276,0-0.5-0.224-0.5-0.5v-2.5c0-0.276,0.224-0.5,0.5-0.5s0.5,0.224,0.5,0.5v2.5
			C22.5,59.026,22.276,59.25,22,59.25z"/>
	</g>
	<g>
		<path class="st0" d="M32,59.25c-0.276,0-0.5-0.224-0.5-0.5v-2.5c0-0.276,0.224-0.5,0.5-0.5s0.5,0.224,0.5,0.5v2.5
			C32.5,59.026,32.276,59.25,32,59.25z"/>
	</g>
	<g>
		<path class="st0" d="M42,59.25c-0.276,0-0.5-0.224-0.5-0.5v-2.5c0-0.276,0.224-0.5,0.5-0.5s0.5,0.224,0.5,0.5v2.5
			C42.5,59.026,42.276,59.25,42,59.25z"/>
	</g>
	<g>
		<path class="st0" d="M52,59.25c-0.276,0-0.5-0.224-0.5-0.5v-2.5c0-0.276,0.224-0.5,0.5-0.5s0.5,0.224,0.5,0.5v2.5
			C52.5,59.026,52.276,59.25,52,59.25z"/>
	</g>
	<g>
		<rect x="12" y="41.25" class="st1" width="5" height="5"/>
		<path class="st0" d="M17,46.75h-5c-0.276,0-0.5-0.224-0.5-0.5v-5c0-0.276,0.224-0.5,0.5-0.5h5c0.276,0,0.5,0.224,0.5,0.5v5
			C17.5,46.526,17.276,46.75,17,46.75z M12.5,45.75h4v-4h-4V45.75z"/>
	</g>
	<g>
		<rect x="26" y="42.25" class="st1" width="5" height="5"/>
		<path class="st0" d="M31,47.75h-5c-0.276,0-0.5-0.224-0.5-0.5v-5c0-0.276,0.224-0.5,0.5-0.5h5c0.276,0,0.5,0.224,0.5,0.5v5
			C31.5,47.526,31.276,47.75,31,47.75z M26.5,46.75h4v-4h-4V46.75z"/>
	</g>
	<g>
		<rect x="15" y="28.25" class="st1" width="5" height="5"/>
		<path class="st0" d="M20,33.75h-5c-0.276,0-0.5-0.224-0.5-0.5v-5c0-0.276,0.224-0.5,0.5-0.5h5c0.276,0,0.5,0.224,0.5,0.5v5
			C20.5,33.526,20.276,33.75,20,33.75z M15.5,32.75h4v-4h-4V32.75z"/>
	</g>
	<g>
		<rect x="25" y="31.25" class="st1" width="5" height="5"/>
		<path class="st0" d="M30,36.75h-5c-0.276,0-0.5-0.224-0.5-0.5v-5c0-0.276,0.224-0.5,0.5-0.5h5c0.276,0,0.5,0.224,0.5,0.5v5
			C30.5,36.526,30.276,36.75,30,36.75z M25.5,35.75h4v-4h-4V35.75z"/>
	</g>
	<g>
		<path class="st0" d="M18.414,13.269c-0.128,0-0.256-0.049-0.354-0.146l-1.414-1.414c-0.195-0.195-0.195-0.512,0-0.707
			s0.512-0.195,0.707,0l1.414,1.414c0.195,0.195,0.195,0.512,0,0.707C18.67,13.22,18.542,13.269,18.414,13.269z"/>
	</g>
	<g>
		<path class="st0" d="M46.172,41.026c-0.128,0-0.256-0.049-0.354-0.146L19.475,14.537c-0.195-0.195-0.195-0.512,0-0.707
			s0.512-0.195,0.707,0l26.343,26.343c0.195,0.195,0.195,0.512,0,0.707C46.428,40.977,46.3,41.026,46.172,41.026z"/>
	</g>
	<g>
		<path class="st0" d="M49,43.854c-0.128,0-0.256-0.049-0.354-0.146l-1.414-1.414c-0.195-0.195-0.195-0.512,0-0.707
			s0.512-0.195,0.707,0l1.414,1.414c0.195,0.195,0.195,0.512,0,0.707C49.256,43.806,49.128,43.854,49,43.854z"/>
	</g>
	<g>
		<circle class="st2" cx="30.5" cy="11.75" r="2.5"/>
		<path class="st0" d="M30.5,14.75c-1.654,0-3-1.346-3-3s1.346-3,3-3s3,1.346,3,3S32.154,14.75,30.5,14.75z M30.5,9.75
			c-1.103,0-2,0.897-2,2s0.897,2,2,2s2-0.897,2-2S31.603,9.75,30.5,9.75z"/>
	</g>
	<g>
		<circle class="st2" cx="47.5" cy="29.25" r="2.5"/>
		<path class="st0" d="M47.5,32.25c-1.654,0-3-1.346-3-3s1.346-3,3-3s3,1.346,3,3S49.154,32.25,47.5,32.25z M47.5,27.25
			c-1.103,0-2,0.897-2,2s0.897,2,2,2s2-0.897,2-2S48.603,27.25,47.5,27.25z"/>
	</g>
	<g>
		<circle class="st2" cx="47.5" cy="17.25" r="2.5"/>
		<path class="st0" d="M47.5,20.25c-1.654,0-3-1.346-3-3s1.346-3,3-3s3,1.346,3,3S49.154,20.25,47.5,20.25z M47.5,15.25
			c-1.103,0-2,0.897-2,2s0.897,2,2,2s2-0.897,2-2S48.603,15.25,47.5,15.25z"/>
	</g>
	<g>
		<circle class="st2" cx="38.5" cy="17.25" r="2.5"/>
		<path class="st0" d="M38.5,20.25c-1.654,0-3-1.346-3-3s1.346-3,3-3s3,1.346,3,3S40.154,20.25,38.5,20.25z M38.5,15.25
			c-1.103,0-2,0.897-2,2s0.897,2,2,2s2-0.897,2-2S39.603,15.25,38.5,15.25z"/>
	</g>
</g>
</svg>
