<?xml version="1.0" encoding="utf-8"?>
<!-- Generator: Adobe Illustrator 21.0.0, SVG Export Plug-In . SVG Version: 6.00 Build 0)  -->
<svg version="1.1" id="Icon_Set" xmlns="http://www.w3.org/2000/svg" xmlns:xlink="http://www.w3.org/1999/xlink" x="0px" y="0px"
	 viewBox="0 0 64 64" style="enable-background:new 0 0 64 64;" xml:space="preserve">
<style type="text/css">
	.st0{fill:#263238;}
	.st1{fill:#FF5252;}
	.st2{font-family:'AmericanTypewriter-Bold';}
	.st3{font-size:8px;}
	.st4{fill:#F5222D;}
</style>
<g>
	<path class="st0" d="M60,56.8H4c-0.3,0-0.5-0.2-0.5-0.5v-51C3.5,5,3.7,4.8,4,4.8S4.5,5,4.5,5.2v50.5H60c0.3,0,0.5,0.2,0.5,0.5
		S60.3,56.8,60,56.8z"/>
</g>
<g>
	<path class="st0" d="M12,59.2c-0.3,0-0.5-0.2-0.5-0.5v-2.5c0-0.3,0.2-0.5,0.5-0.5s0.5,0.2,0.5,0.5v2.5C12.5,59,12.3,59.2,12,59.2z"
		/>
</g>
<g>
	<path class="st0" d="M22,59.2c-0.3,0-0.5-0.2-0.5-0.5v-2.5c0-0.3,0.2-0.5,0.5-0.5s0.5,0.2,0.5,0.5v2.5C22.5,59,22.3,59.2,22,59.2z"
		/>
</g>
<g>
	<path class="st0" d="M32,59.2c-0.3,0-0.5-0.2-0.5-0.5v-2.5c0-0.3,0.2-0.5,0.5-0.5c0.3,0,0.5,0.2,0.5,0.5v2.5
		C32.5,59,32.3,59.2,32,59.2z"/>
</g>
<g>
	<path class="st0" d="M42,59.2c-0.3,0-0.5-0.2-0.5-0.5v-2.5c0-0.3,0.2-0.5,0.5-0.5s0.5,0.2,0.5,0.5v2.5C42.5,59,42.3,59.2,42,59.2z"
		/>
</g>
<g>
	<path class="st0" d="M52,59.2c-0.3,0-0.5-0.2-0.5-0.5v-2.5c0-0.3,0.2-0.5,0.5-0.5s0.5,0.2,0.5,0.5v2.5C52.5,59,52.3,59.2,52,59.2z"
		/>
</g>
<g>
	<path class="st0" d="M12.2,43.4c0-0.1,0.1-0.3,0.2-0.4L47,16.3c0.3-0.2,0.7-0.2,0.9,0c0.3,0.2,0.3,0.5,0,0.7L13.4,43.7
		c-0.3,0.2-0.7,0.2-0.9,0C12.3,43.6,12.2,43.5,12.2,43.4z"/>
</g>
<g>
	<circle class="st1" cx="19.7" cy="40.5" r="2.5"/>
	<path class="st0" d="M19.7,43.5c-1.7,0-3-1.3-3-3s1.3-3,3-3s3,1.3,3,3S21.4,43.5,19.7,43.5z M19.7,38.5c-1.1,0-2,0.9-2,2s0.9,2,2,2
		s2-0.9,2-2S20.8,38.5,19.7,38.5z"/>
</g>
<g>
	<circle class="st1" cx="25.2" cy="37.5" r="2.5"/>
	<path class="st0" d="M25.2,40.5c-1.7,0-3-1.3-3-3s1.3-3,3-3s3,1.3,3,3S26.9,40.5,25.2,40.5z M25.2,35.5c-1.1,0-2,0.9-2,2s0.9,2,2,2
		s2-0.9,2-2S26.3,35.5,25.2,35.5z"/>
</g>
<g>
	<circle class="st1" cx="31" cy="31" r="2.5"/>
	<path class="st0" d="M31,34c-1.7,0-3-1.3-3-3s1.3-3,3-3s3,1.3,3,3S32.7,34,31,34z M31,29c-1.1,0-2,0.9-2,2s0.9,2,2,2s2-0.9,2-2
		S32.1,29,31,29z"/>
</g>
<g>
	<circle class="st1" cx="26" cy="30.8" r="2.5"/>
	<path class="st0" d="M26,33.8c-1.7,0-3-1.3-3-3s1.3-3,3-3s3,1.3,3,3S27.7,33.8,26,33.8z M26,28.8c-1.1,0-2,0.9-2,2s0.9,2,2,2
		s2-0.9,2-2S27.1,28.8,26,28.8z"/>
</g>
<g>
	<circle class="st1" cx="31.8" cy="25.8" r="2.5"/>
	<path class="st0" d="M31.8,28.8c-1.7,0-3-1.3-3-3s1.3-3,3-3c1.7,0,3,1.3,3,3S33.4,28.8,31.8,28.8z M31.8,23.8c-1.1,0-2,0.9-2,2
		s0.9,2,2,2c1.1,0,2-0.9,2-2S32.9,23.8,31.8,23.8z"/>
</g>
<g>
	<circle class="st1" cx="35.7" cy="21.8" r="2.5"/>
	<path class="st0" d="M35.7,24.8c-1.7,0-3-1.3-3-3c0-1.7,1.3-3,3-3s3,1.3,3,3C38.7,23.4,37.4,24.8,35.7,24.8z M35.7,19.8
		c-1.1,0-2,0.9-2,2c0,1.1,0.9,2,2,2s2-0.9,2-2C37.7,20.7,36.8,19.8,35.7,19.8z"/>
</g>
<g>
	<circle class="st1" cx="41.2" cy="21.6" r="2.5"/>
	<path class="st0" d="M41.2,24.6c-1.7,0-3-1.3-3-3c0-1.7,1.3-3,3-3s3,1.3,3,3C44.2,23.3,42.8,24.6,41.2,24.6z M41.2,19.6
		c-1.1,0-2,0.9-2,2c0,1.1,0.9,2,2,2s2-0.9,2-2C43.2,20.5,42.3,19.6,41.2,19.6z"/>
</g>
<text transform="matrix(1 0 0 1 44.125 53.625)" class="st2 st3">Den</text>
<text transform="matrix(1 0 0 1 6.375 10.625)" class="st4 st2 st3">Por</text>
</svg>
