<?xml version="1.0" encoding="utf-8"?>
<!-- Generator: Adobe Illustrator 21.1.0, SVG Export Plug-In . SVG Version: 6.00 Build 0)  -->
<svg version="1.1" id="Icon_Set" xmlns="http://www.w3.org/2000/svg" xmlns:xlink="http://www.w3.org/1999/xlink" x="0px" y="0px"
	 viewBox="0 0 64 64" style="enable-background:new 0 0 64 64;" xml:space="preserve">
<style type="text/css">
	.st0{fill:#263238;}
	.st1{fill:#FFD740;}
	.st2{fill:#FF5252;}
	.st3{fill:#40C4FF;}
	.st4{fill:#4DB6AC;}
	.st5{fill:#FFFFFF;}
	.st6{fill:#FFD345;}
</style>
<g>
	<g>
		<path class="st1" d="M57.5,57h-12c-0.552,0-1-0.448-1-1V40c0-0.552,0.448-1,1-1h12c0.552,0,1,0.448,1,1v16
			C58.5,56.552,58.052,57,57.5,57z"/>
		<path class="st0" d="M57.5,57.5h-12c-0.827,0-1.5-0.673-1.5-1.5V40c0-0.827,0.673-1.5,1.5-1.5h12c0.827,0,1.5,0.673,1.5,1.5v16
			C59,56.827,58.327,57.5,57.5,57.5z M45.5,39.5c-0.276,0-0.5,0.224-0.5,0.5v16c0,0.276,0.224,0.5,0.5,0.5h12
			c0.276,0,0.5-0.224,0.5-0.5V40c0-0.276-0.224-0.5-0.5-0.5H45.5z"/>
	</g>
	<g>
		<path class="st0" d="M23,54.003h-1c-0.276,0-0.5-0.224-0.5-0.5s0.224-0.5,0.5-0.5h1c0.276,0,0.5,0.224,0.5,0.5
			S23.276,54.003,23,54.003z"/>
	</g>
	<g>
		<path class="st0" d="M20,54.003H9c-0.276,0-0.5-0.224-0.5-0.5s0.224-0.5,0.5-0.5h11c0.276,0,0.5,0.224,0.5,0.5
			S20.276,54.003,20,54.003z"/>
	</g>
	<g>
		<path class="st0" d="M21.5,9.5h-4C17.224,9.5,17,9.276,17,9s0.224-0.5,0.5-0.5h4C21.776,8.5,22,8.724,22,9S21.776,9.5,21.5,9.5z"
			/>
	</g>
	<g>
		<path class="st0" d="M19.5,11.5c-0.276,0-0.5-0.224-0.5-0.5V7c0-0.276,0.224-0.5,0.5-0.5S20,6.724,20,7v4
			C20,11.276,19.776,11.5,19.5,11.5z"/>
	</g>
	<g>
		<path class="st0" d="M14.5,16h-4c-0.276,0-0.5-0.224-0.5-0.5s0.224-0.5,0.5-0.5h4c0.276,0,0.5,0.224,0.5,0.5S14.776,16,14.5,16z"
			/>
	</g>
	<g>
		<path class="st0" d="M12.5,18c-0.276,0-0.5-0.224-0.5-0.5v-4c0-0.276,0.224-0.5,0.5-0.5s0.5,0.224,0.5,0.5v4
			C13,17.776,12.776,18,12.5,18z"/>
	</g>
	<g>
		<path class="st0" d="M55.25,50.5h-7.5c-0.276,0-0.5-0.224-0.5-0.5s0.224-0.5,0.5-0.5h7.5c0.276,0,0.5,0.224,0.5,0.5
			S55.526,50.5,55.25,50.5z"/>
	</g>
	<g>
		<path class="st0" d="M51.5,53.5h-3.75c-0.276,0-0.5-0.224-0.5-0.5s0.224-0.5,0.5-0.5h3.75c0.276,0,0.5,0.224,0.5,0.5
			S51.776,53.5,51.5,53.5z"/>
	</g>
	<g>
		<path class="st3" d="M25.52,31.5H6.48c-0.541,0-0.98-0.336-0.98-0.75v-4.5c0-0.414,0.439-0.75,0.98-0.75H25.52
			c0.541,0,0.98,0.336,0.98,0.75v4.5C26.5,31.164,26.061,31.5,25.52,31.5z"/>
		<path class="st0" d="M25.521,32H6.479C5.65,32,5,31.451,5,30.75v-4.5C5,25.549,5.65,25,6.479,25h19.041
			C26.35,25,27,25.549,27,26.25v4.5C27,31.451,26.35,32,25.521,32z M6.479,26C6.182,26,6,26.162,6,26.25v4.5
			C6,30.838,6.182,31,6.479,31h19.041C25.818,31,26,30.838,26,30.75v-4.5c0-0.088-0.182-0.25-0.479-0.25H6.479z"/>
	</g>
	<g>
		<path class="st0" d="M22.75,29h-5.5c-0.276,0-0.5-0.224-0.5-0.5s0.224-0.5,0.5-0.5h5.5c0.276,0,0.5,0.224,0.5,0.5
			S23.026,29,22.75,29z"/>
	</g>
	<g>
		<rect x="9.25" y="27.5" class="st5" width="4" height="2"/>
		<path class="st0" d="M13.25,30h-4c-0.276,0-0.5-0.224-0.5-0.5v-2c0-0.276,0.224-0.5,0.5-0.5h4c0.276,0,0.5,0.224,0.5,0.5v2
			C13.75,29.776,13.526,30,13.25,30z M9.75,29h3v-1h-3V29z"/>
	</g>
	<g>
		<path class="st3" d="M25.52,37.5H6.48c-0.541,0-0.98-0.336-0.98-0.75v-4.5c0-0.414,0.439-0.75,0.98-0.75H25.52
			c0.541,0,0.98,0.336,0.98,0.75v4.5C26.5,37.164,26.061,37.5,25.52,37.5z"/>
		<path class="st0" d="M25.521,38H6.479C5.65,38,5,37.451,5,36.75v-4.5C5,31.549,5.65,31,6.479,31h19.041
			C26.35,31,27,31.549,27,32.25v4.5C27,37.451,26.35,38,25.521,38z M6.479,32C6.182,32,6,32.162,6,32.25v4.5
			C6,36.838,6.182,37,6.479,37h19.041C25.818,37,26,36.838,26,36.75v-4.5c0-0.088-0.182-0.25-0.479-0.25H6.479z"/>
	</g>
	<g>
		<path class="st0" d="M22.75,35h-5.5c-0.276,0-0.5-0.224-0.5-0.5s0.224-0.5,0.5-0.5h5.5c0.276,0,0.5,0.224,0.5,0.5
			S23.026,35,22.75,35z"/>
	</g>
	<g>
		<rect x="9.25" y="33.5" class="st5" width="4" height="2"/>
		<path class="st0" d="M13.25,36h-4c-0.276,0-0.5-0.224-0.5-0.5v-2c0-0.276,0.224-0.5,0.5-0.5h4c0.276,0,0.5,0.224,0.5,0.5v2
			C13.75,35.776,13.526,36,13.25,36z M9.75,35h3v-1h-3V35z"/>
	</g>
	<g>
		<path class="st3" d="M25.52,43.5H6.48c-0.541,0-0.98-0.336-0.98-0.75v-4.5c0-0.414,0.439-0.75,0.98-0.75H25.52
			c0.541,0,0.98,0.336,0.98,0.75v4.5C26.5,43.164,26.061,43.5,25.52,43.5z"/>
		<path class="st0" d="M25.521,44H6.479C5.65,44,5,43.451,5,42.75v-4.5C5,37.549,5.65,37,6.479,37h19.041
			C26.35,37,27,37.549,27,38.25v4.5C27,43.451,26.35,44,25.521,44z M6.479,38C6.182,38,6,38.162,6,38.25v4.5
			C6,42.838,6.182,43,6.479,43h19.041C25.818,43,26,42.838,26,42.75v-4.5c0-0.088-0.182-0.25-0.479-0.25H6.479z"/>
	</g>
	<g>
		<path class="st0" d="M22.75,41h-5.5c-0.276,0-0.5-0.224-0.5-0.5s0.224-0.5,0.5-0.5h5.5c0.276,0,0.5,0.224,0.5,0.5
			S23.026,41,22.75,41z"/>
	</g>
	<g>
		<rect x="9.25" y="39.5" class="st5" width="4" height="2"/>
		<path class="st0" d="M13.25,42h-4c-0.276,0-0.5-0.224-0.5-0.5v-2c0-0.276,0.224-0.5,0.5-0.5h4c0.276,0,0.5,0.224,0.5,0.5v2
			C13.75,41.776,13.526,42,13.25,42z M9.75,41h3v-1h-3V41z"/>
	</g>
	<g>
		<path class="st0" d="M25,49H7c-0.276,0-0.5-0.224-0.5-0.5S6.724,48,7,48h18c0.276,0,0.5,0.224,0.5,0.5S25.276,49,25,49z"/>
	</g>
	<g>
		<path class="st0" d="M11,47c-0.276,0-0.5-0.224-0.5-0.5v-3c0-0.276,0.224-0.5,0.5-0.5s0.5,0.224,0.5,0.5v3
			C11.5,46.776,11.276,47,11,47z"/>
	</g>
	<g>
		<path class="st0" d="M21,47c-0.276,0-0.5-0.224-0.5-0.5v-3c0-0.276,0.224-0.5,0.5-0.5s0.5,0.224,0.5,0.5v3
			C21.5,46.776,21.276,47,21,47z"/>
	</g>
	<g>
		<path class="st1" d="M57.5,30h-12c-0.552,0-1-0.448-1-1V13c0-0.552,0.448-1,1-1h12c0.552,0,1,0.448,1,1v16
			C58.5,29.552,58.052,30,57.5,30z"/>
		<path class="st0" d="M57.5,30.5h-12c-0.827,0-1.5-0.673-1.5-1.5V13c0-0.827,0.673-1.5,1.5-1.5h12c0.827,0,1.5,0.673,1.5,1.5v16
			C59,29.827,58.327,30.5,57.5,30.5z M45.5,12.5c-0.276,0-0.5,0.224-0.5,0.5v16c0,0.276,0.224,0.5,0.5,0.5h12
			c0.276,0,0.5-0.224,0.5-0.5V13c0-0.276-0.224-0.5-0.5-0.5H45.5z"/>
	</g>
	<g>
		<line class="st5" x1="51" y1="20" x2="52" y2="15"/>
		<path class="st0" d="M51,20.5c-0.032,0-0.065-0.003-0.099-0.01c-0.271-0.054-0.446-0.317-0.392-0.588l1-5
			c0.054-0.271,0.314-0.448,0.588-0.392c0.271,0.054,0.446,0.317,0.392,0.588l-1,5C51.443,20.336,51.234,20.5,51,20.5z"/>
	</g>
	<g>
		<path class="st0" d="M55.25,23.5h-7.5c-0.276,0-0.5-0.224-0.5-0.5s0.224-0.5,0.5-0.5h7.5c0.276,0,0.5,0.224,0.5,0.5
			S55.526,23.5,55.25,23.5z"/>
	</g>
	<g>
		<path class="st0" d="M51.5,26.5h-3.75c-0.276,0-0.5-0.224-0.5-0.5s0.224-0.5,0.5-0.5h3.75c0.276,0,0.5,0.224,0.5,0.5
			S51.776,26.5,51.5,26.5z"/>
	</g>
	<g>
		<path class="st0" d="M42.5,48.5H37c-1.654,0-3-1.346-3-3v-22c0-1.654,1.346-3,3-3h5.5c0.276,0,0.5,0.224,0.5,0.5
			s-0.224,0.5-0.5,0.5H37c-1.103,0-2,0.897-2,2v22c0,1.103,0.897,2,2,2h5.5c0.276,0,0.5,0.224,0.5,0.5S42.776,48.5,42.5,48.5z"/>
	</g>
	<g>
		<path class="st0" d="M34.5,35h-6c-0.276,0-0.5-0.224-0.5-0.5s0.224-0.5,0.5-0.5h6c0.276,0,0.5,0.224,0.5,0.5S34.776,35,34.5,35z"
			/>
	</g>
	<g>
		<path class="st0" d="M49.25,20c-0.128,0-0.256-0.049-0.354-0.146l-2-2c-0.195-0.195-0.195-0.512,0-0.707l2-2
			c0.195-0.195,0.512-0.195,0.707,0s0.195,0.512,0,0.707L47.957,17.5l1.646,1.646c0.195,0.195,0.195,0.512,0,0.707
			C49.506,19.951,49.378,20,49.25,20z"/>
	</g>
	<g>
		<path class="st0" d="M53.75,20c-0.128,0-0.256-0.049-0.354-0.146c-0.195-0.195-0.195-0.512,0-0.707l1.646-1.646l-1.646-1.646
			c-0.195-0.195-0.195-0.512,0-0.707s0.512-0.195,0.707,0l2,2c0.195,0.195,0.195,0.512,0,0.707l-2,2
			C54.006,19.951,53.878,20,53.75,20z"/>
	</g>
	<g>
		<line class="st5" x1="51" y1="47" x2="52" y2="42"/>
		<path class="st0" d="M51,47.5c-0.032,0-0.065-0.003-0.099-0.01c-0.271-0.054-0.446-0.317-0.392-0.588l1-5
			c0.054-0.271,0.314-0.45,0.588-0.392c0.271,0.054,0.446,0.317,0.392,0.588l-1,5C51.443,47.336,51.234,47.5,51,47.5z"/>
	</g>
	<g>
		<path class="st0" d="M49.25,47c-0.128,0-0.256-0.049-0.354-0.146l-2-2c-0.195-0.195-0.195-0.512,0-0.707l2-2
			c0.195-0.195,0.512-0.195,0.707,0s0.195,0.512,0,0.707L47.957,44.5l1.646,1.646c0.195,0.195,0.195,0.512,0,0.707
			C49.506,46.951,49.378,47,49.25,47z"/>
	</g>
	<g>
		<path class="st0" d="M53.75,47c-0.128,0-0.256-0.049-0.354-0.146c-0.195-0.195-0.195-0.512,0-0.707l1.646-1.646l-1.646-1.646
			c-0.195-0.195-0.195-0.512,0-0.707s0.512-0.195,0.707,0l2,2c0.195,0.195,0.195,0.512,0,0.707l-2,2
			C54.006,46.951,53.878,47,53.75,47z"/>
	</g>
</g>
</svg>
