<?xml version="1.0" encoding="utf-8"?>
<!-- Generator: Adobe Illustrator 21.1.0, SVG Export Plug-In . SVG Version: 6.00 Build 0)  -->
<svg version="1.1" id="Icon_Set" xmlns="http://www.w3.org/2000/svg" xmlns:xlink="http://www.w3.org/1999/xlink" x="0px" y="0px"
	 viewBox="0 0 64 64" style="enable-background:new 0 0 64 64;" xml:space="preserve">
<style type="text/css">
	.st0{fill:#263238;}
	.st1{fill:#FFD740;}
	.st2{fill:#FF5252;}
	.st3{fill:#40C4FF;}
	.st4{fill:#4DB6AC;}
	.st5{fill:#FFFFFF;}
	.st6{fill:#FFD345;}
</style>
<g>
	<g>
		<path class="st2" d="M41,16H23c-0.552,0-1-0.448-1-1V9c0-0.552,0.448-1,1-1h18c0.552,0,1,0.448,1,1v6C42,15.552,41.552,16,41,16z"
			/>
		<path class="st0" d="M41,16.5H23c-0.827,0-1.5-0.673-1.5-1.5V9c0-0.827,0.673-1.5,1.5-1.5h18c0.827,0,1.5,0.673,1.5,1.5v6
			C42.5,15.827,41.827,16.5,41,16.5z M23,8.5c-0.275,0-0.5,0.224-0.5,0.5v6c0,0.276,0.225,0.5,0.5,0.5h18c0.275,0,0.5-0.224,0.5-0.5
			V9c0-0.276-0.225-0.5-0.5-0.5H23z"/>
	</g>
	<g>
		<path class="st1" d="M24,36H10c-0.552,0-1-0.448-1-1v-6c0-0.552,0.448-1,1-1h14c0.552,0,1,0.448,1,1v6C25,35.552,24.552,36,24,36z
			"/>
		<path class="st0" d="M24,36.5H10c-0.827,0-1.5-0.673-1.5-1.5v-6c0-0.827,0.673-1.5,1.5-1.5h14c0.827,0,1.5,0.673,1.5,1.5v6
			C25.5,35.827,24.827,36.5,24,36.5z M10,28.5c-0.275,0-0.5,0.224-0.5,0.5v6c0,0.276,0.225,0.5,0.5,0.5h14
			c0.275,0,0.5-0.224,0.5-0.5v-6c0-0.276-0.225-0.5-0.5-0.5H10z"/>
	</g>
	<g>
		<path class="st4" d="M13,56H5c-0.552,0-1-0.448-1-1v-6c0-0.552,0.448-1,1-1h8c0.552,0,1,0.448,1,1v6C14,55.552,13.552,56,13,56z"
			/>
		<path class="st0" d="M13,56.5H5c-0.827,0-1.5-0.673-1.5-1.5v-6c0-0.827,0.673-1.5,1.5-1.5h8c0.827,0,1.5,0.673,1.5,1.5v6
			C14.5,55.827,13.827,56.5,13,56.5z M5,48.5c-0.275,0-0.5,0.224-0.5,0.5v6c0,0.276,0.225,0.5,0.5,0.5h8c0.275,0,0.5-0.224,0.5-0.5
			v-6c0-0.276-0.225-0.5-0.5-0.5H5z"/>
	</g>
	<g>
		<path class="st4" d="M29,56h-8c-0.552,0-1-0.448-1-1v-6c0-0.552,0.448-1,1-1h8c0.552,0,1,0.448,1,1v6C30,55.552,29.552,56,29,56z"
			/>
		<path class="st0" d="M29,56.5h-8c-0.827,0-1.5-0.673-1.5-1.5v-6c0-0.827,0.673-1.5,1.5-1.5h8c0.827,0,1.5,0.673,1.5,1.5v6
			C30.5,55.827,29.827,56.5,29,56.5z M21,48.5c-0.275,0-0.5,0.224-0.5,0.5v6c0,0.276,0.225,0.5,0.5,0.5h8c0.275,0,0.5-0.224,0.5-0.5
			v-6c0-0.276-0.225-0.5-0.5-0.5H21z"/>
	</g>
	<g>
		<path class="st0" d="M32,22.5c-0.276,0-0.5-0.224-0.5-0.5v-6c0-0.276,0.224-0.5,0.5-0.5s0.5,0.224,0.5,0.5v6
			C32.5,22.276,32.276,22.5,32,22.5z"/>
	</g>
	<g>
		<path class="st0" d="M47,28.5c-0.276,0-0.5-0.224-0.5-0.5v-5.5h-29V28c0,0.276-0.224,0.5-0.5,0.5s-0.5-0.224-0.5-0.5v-6
			c0-0.276,0.224-0.5,0.5-0.5h30c0.276,0,0.5,0.224,0.5,0.5v6C47.5,28.276,47.276,28.5,47,28.5z"/>
	</g>
	<g>
		<path class="st0" d="M17,42.5c-0.276,0-0.5-0.224-0.5-0.5v-6c0-0.276,0.224-0.5,0.5-0.5s0.5,0.224,0.5,0.5v6
			C17.5,42.276,17.276,42.5,17,42.5z"/>
	</g>
	<g>
		<path class="st0" d="M25,48.5c-0.276,0-0.5-0.224-0.5-0.5v-5.5h-15V48c0,0.276-0.224,0.5-0.5,0.5S8.5,48.276,8.5,48v-6
			c0-0.276,0.224-0.5,0.5-0.5h16c0.276,0,0.5,0.224,0.5,0.5v6C25.5,48.276,25.276,48.5,25,48.5z"/>
	</g>
	<g>
		<path class="st1" d="M54,36H40c-0.552,0-1-0.448-1-1v-6c0-0.552,0.448-1,1-1h14c0.552,0,1,0.448,1,1v6C55,35.552,54.552,36,54,36z
			"/>
		<path class="st0" d="M54,36.5H40c-0.827,0-1.5-0.673-1.5-1.5v-6c0-0.827,0.673-1.5,1.5-1.5h14c0.827,0,1.5,0.673,1.5,1.5v6
			C55.5,35.827,54.827,36.5,54,36.5z M40,28.5c-0.275,0-0.5,0.224-0.5,0.5v6c0,0.276,0.225,0.5,0.5,0.5h14
			c0.275,0,0.5-0.224,0.5-0.5v-6c0-0.276-0.225-0.5-0.5-0.5H40z"/>
	</g>
	<g>
		<path class="st4" d="M43,56h-8c-0.552,0-1-0.448-1-1v-6c0-0.552,0.448-1,1-1h8c0.552,0,1,0.448,1,1v6C44,55.552,43.552,56,43,56z"
			/>
		<path class="st0" d="M43,56.5h-8c-0.827,0-1.5-0.673-1.5-1.5v-6c0-0.827,0.673-1.5,1.5-1.5h8c0.827,0,1.5,0.673,1.5,1.5v6
			C44.5,55.827,43.827,56.5,43,56.5z M35,48.5c-0.275,0-0.5,0.224-0.5,0.5v6c0,0.276,0.225,0.5,0.5,0.5h8c0.275,0,0.5-0.224,0.5-0.5
			v-6c0-0.276-0.225-0.5-0.5-0.5H35z"/>
	</g>
	<g>
		<path class="st4" d="M59,56h-8c-0.552,0-1-0.448-1-1v-6c0-0.552,0.448-1,1-1h8c0.552,0,1,0.448,1,1v6C60,55.552,59.552,56,59,56z"
			/>
		<path class="st0" d="M59,56.5h-8c-0.827,0-1.5-0.673-1.5-1.5v-6c0-0.827,0.673-1.5,1.5-1.5h8c0.827,0,1.5,0.673,1.5,1.5v6
			C60.5,55.827,59.827,56.5,59,56.5z M51,48.5c-0.275,0-0.5,0.224-0.5,0.5v6c0,0.276,0.225,0.5,0.5,0.5h8c0.275,0,0.5-0.224,0.5-0.5
			v-6c0-0.276-0.225-0.5-0.5-0.5H51z"/>
	</g>
	<g>
		<path class="st0" d="M47,42.5c-0.276,0-0.5-0.224-0.5-0.5v-6c0-0.276,0.224-0.5,0.5-0.5s0.5,0.224,0.5,0.5v6
			C47.5,42.276,47.276,42.5,47,42.5z"/>
	</g>
	<g>
		<path class="st0" d="M55,48.5c-0.276,0-0.5-0.224-0.5-0.5v-5.5h-15V48c0,0.276-0.224,0.5-0.5,0.5s-0.5-0.224-0.5-0.5v-6
			c0-0.276,0.224-0.5,0.5-0.5h16c0.276,0,0.5,0.224,0.5,0.5v6C55.5,48.276,55.276,48.5,55,48.5z"/>
	</g>
	<g>
		<path class="st0" d="M16.5,12.5h-1c-0.276,0-0.5-0.224-0.5-0.5s0.224-0.5,0.5-0.5h1c0.276,0,0.5,0.224,0.5,0.5
			S16.776,12.5,16.5,12.5z"/>
	</g>
	<g>
		<path class="st0" d="M13.5,12.5h-11C2.224,12.5,2,12.276,2,12s0.224-0.5,0.5-0.5h11c0.276,0,0.5,0.224,0.5,0.5
			S13.776,12.5,13.5,12.5z"/>
	</g>
	<g>
		<path class="st0" d="M48.5,12.5h-1c-0.276,0-0.5-0.224-0.5-0.5s0.224-0.5,0.5-0.5h1c0.276,0,0.5,0.224,0.5,0.5
			S48.776,12.5,48.5,12.5z"/>
	</g>
	<g>
		<path class="st0" d="M61.5,12.5h-11c-0.276,0-0.5-0.224-0.5-0.5s0.224-0.5,0.5-0.5h11c0.276,0,0.5,0.224,0.5,0.5
			S61.776,12.5,61.5,12.5z"/>
	</g>
</g>
</svg>
