<?xml version="1.0" encoding="utf-8"?>
<!-- Generator: Adobe Illustrator 21.1.0, SVG Export Plug-In . SVG Version: 6.00 Build 0)  -->
<svg version="1.1" id="Icon_Set" xmlns="http://www.w3.org/2000/svg" xmlns:xlink="http://www.w3.org/1999/xlink" x="0px" y="0px"
	 viewBox="0 0 64 64" style="enable-background:new 0 0 64 64;" xml:space="preserve">
<style type="text/css">
	.st0{fill:#263238;}
	.st1{fill:#FFD740;}
	.st2{fill:#FF5252;}
	.st3{fill:#40C4FF;}
	.st4{fill:#4DB6AC;}
	.st5{fill:#FFFFFF;}
	.st6{fill:#FFD345;}
</style>
<g>
	<g>
		<path class="st0" d="M52.375,43.75c-2.927,0-4.506-5.925-4.506-11.5s1.579-11.5,4.506-11.5s4.506,5.925,4.506,11.5
			S55.302,43.75,52.375,43.75z M52.375,21.75c-1.658,0-3.506,4.312-3.506,10.5s1.848,10.5,3.506,10.5s3.506-4.312,3.506-10.5
			S54.033,21.75,52.375,21.75z"/>
	</g>
	<g>
		<path class="st0" d="M59.407,39.267c-2.54,0-6.143-1.308-9.284-3.12c-4.171-2.404-7.265-5.448-7.884-7.755
			c-0.195-0.729-0.141-1.366,0.163-1.892c1.463-2.531,7.39-0.936,12.226,1.853l0,0c4.171,2.404,7.265,5.448,7.884,7.755
			c0.195,0.729,0.141,1.366-0.163,1.892C61.835,38.886,60.775,39.267,59.407,39.267z M45.354,26.25c-1.064,0-1.802,0.257-2.086,0.75
			c-0.167,0.288-0.188,0.669-0.063,1.133c0.544,2.032,3.525,4.904,7.417,7.148c5.367,3.094,10.033,3.653,10.86,2.219
			c0.167-0.288,0.188-0.669,0.063-1.133c-0.544-2.032-3.525-4.904-7.417-7.148l0,0C50.606,27.188,47.386,26.25,45.354,26.25z"/>
	</g>
	<g>
		<path class="st0" d="M45.343,39.267c-1.369,0-2.429-0.38-2.941-1.267c-0.304-0.525-0.358-1.162-0.163-1.892
			c0.619-2.307,3.713-5.351,7.884-7.755c4.834-2.788,10.761-4.386,12.226-1.853c0.304,0.525,0.358,1.162,0.163,1.892
			c-0.619,2.307-3.713,5.351-7.884,7.755C51.486,37.958,47.883,39.267,45.343,39.267z M50.622,29.219
			c-3.892,2.244-6.872,5.116-7.417,7.148c-0.125,0.464-0.104,0.845,0.063,1.133c0.829,1.434,5.494,0.875,10.86-2.219
			c3.892-2.244,6.872-5.116,7.417-7.148c0.125-0.464,0.104-0.845-0.063-1.133C60.654,25.567,55.989,26.126,50.622,29.219
			L50.622,29.219z M50.372,28.786h0.01H50.372z"/>
	</g>
	<g>
		<path class="st3" d="M21.895,26.75H2.855c-0.541,0-0.98-0.336-0.98-0.75v-4.5c0-0.414,0.439-0.75,0.98-0.75h19.041
			c0.541,0,0.98,0.336,0.98,0.75V26C22.875,26.414,22.436,26.75,21.895,26.75z"/>
		<path class="st0" d="M21.896,27.25H2.854c-0.83,0-1.479-0.549-1.479-1.25v-4.5c0-0.701,0.65-1.25,1.479-1.25h19.041
			c0.83,0,1.479,0.549,1.479,1.25V26C23.375,26.701,22.725,27.25,21.896,27.25z M2.854,21.25c-0.297,0-0.479,0.162-0.479,0.25V26
			c0,0.088,0.182,0.25,0.479,0.25h19.041c0.297,0,0.479-0.162,0.479-0.25v-4.5c0-0.088-0.182-0.25-0.479-0.25H2.854z"/>
	</g>
	<g>
		<path class="st0" d="M19.125,24.25h-5.5c-0.276,0-0.5-0.224-0.5-0.5s0.224-0.5,0.5-0.5h5.5c0.276,0,0.5,0.224,0.5,0.5
			S19.401,24.25,19.125,24.25z"/>
	</g>
	<g>
		<rect x="5.625" y="22.75" class="st5" width="4" height="2"/>
		<path class="st0" d="M9.625,25.25h-4c-0.276,0-0.5-0.224-0.5-0.5v-2c0-0.276,0.224-0.5,0.5-0.5h4c0.276,0,0.5,0.224,0.5,0.5v2
			C10.125,25.026,9.901,25.25,9.625,25.25z M6.125,24.25h3v-1h-3V24.25z"/>
	</g>
	<g>
		<path class="st3" d="M21.895,32.75H2.855c-0.541,0-0.98-0.336-0.98-0.75v-4.5c0-0.414,0.439-0.75,0.98-0.75h19.041
			c0.541,0,0.98,0.336,0.98,0.75V32C22.875,32.414,22.436,32.75,21.895,32.75z"/>
		<path class="st0" d="M21.896,33.25H2.854c-0.83,0-1.479-0.549-1.479-1.25v-4.5c0-0.701,0.65-1.25,1.479-1.25h19.041
			c0.83,0,1.479,0.549,1.479,1.25V32C23.375,32.701,22.725,33.25,21.896,33.25z M2.854,27.25c-0.297,0-0.479,0.162-0.479,0.25V32
			c0,0.088,0.182,0.25,0.479,0.25h19.041c0.297,0,0.479-0.162,0.479-0.25v-4.5c0-0.088-0.182-0.25-0.479-0.25H2.854z"/>
	</g>
	<g>
		<path class="st0" d="M19.125,30.25h-5.5c-0.276,0-0.5-0.224-0.5-0.5s0.224-0.5,0.5-0.5h5.5c0.276,0,0.5,0.224,0.5,0.5
			S19.401,30.25,19.125,30.25z"/>
	</g>
	<g>
		<rect x="5.625" y="28.75" class="st5" width="4" height="2"/>
		<path class="st0" d="M9.625,31.25h-4c-0.276,0-0.5-0.224-0.5-0.5v-2c0-0.276,0.224-0.5,0.5-0.5h4c0.276,0,0.5,0.224,0.5,0.5v2
			C10.125,31.026,9.901,31.25,9.625,31.25z M6.125,30.25h3v-1h-3V30.25z"/>
	</g>
	<g>
		<path class="st3" d="M21.895,38.75H2.855c-0.541,0-0.98-0.336-0.98-0.75v-4.5c0-0.414,0.439-0.75,0.98-0.75h19.041
			c0.541,0,0.98,0.336,0.98,0.75V38C22.875,38.414,22.436,38.75,21.895,38.75z"/>
		<path class="st0" d="M21.896,39.25H2.854c-0.83,0-1.479-0.549-1.479-1.25v-4.5c0-0.701,0.65-1.25,1.479-1.25h19.041
			c0.83,0,1.479,0.549,1.479,1.25V38C23.375,38.701,22.725,39.25,21.896,39.25z M2.854,33.25c-0.297,0-0.479,0.162-0.479,0.25V38
			c0,0.088,0.182,0.25,0.479,0.25h19.041c0.297,0,0.479-0.162,0.479-0.25v-4.5c0-0.088-0.182-0.25-0.479-0.25H2.854z"/>
	</g>
	<g>
		<path class="st0" d="M19.125,36.25h-5.5c-0.276,0-0.5-0.224-0.5-0.5s0.224-0.5,0.5-0.5h5.5c0.276,0,0.5,0.224,0.5,0.5
			S19.401,36.25,19.125,36.25z"/>
	</g>
	<g>
		<rect x="5.625" y="34.75" class="st5" width="4" height="2"/>
		<path class="st0" d="M9.625,37.25h-4c-0.276,0-0.5-0.224-0.5-0.5v-2c0-0.276,0.224-0.5,0.5-0.5h4c0.276,0,0.5,0.224,0.5,0.5v2
			C10.125,37.026,9.901,37.25,9.625,37.25z M6.125,36.25h3v-1h-3V36.25z"/>
	</g>
	<g>
		<path class="st0" d="M21.375,44.25h-18c-0.276,0-0.5-0.224-0.5-0.5s0.224-0.5,0.5-0.5h18c0.276,0,0.5,0.224,0.5,0.5
			S21.651,44.25,21.375,44.25z"/>
	</g>
	<g>
		<path class="st0" d="M7.375,42.25c-0.276,0-0.5-0.224-0.5-0.5v-3c0-0.276,0.224-0.5,0.5-0.5s0.5,0.224,0.5,0.5v3
			C7.875,42.026,7.651,42.25,7.375,42.25z"/>
	</g>
	<g>
		<path class="st0" d="M17.375,42.25c-0.276,0-0.5-0.224-0.5-0.5v-3c0-0.276,0.224-0.5,0.5-0.5s0.5,0.224,0.5,0.5v3
			C17.875,42.026,17.651,42.25,17.375,42.25z"/>
	</g>
	<g>
		<path class="st0" d="M52.375,19.75c-0.276,0-0.5-0.224-0.5-0.5v-4.5c0-1.103-0.897-2-2-2h-35c-1.103,0-2,0.897-2,2v4
			c0,0.276-0.224,0.5-0.5,0.5s-0.5-0.224-0.5-0.5v-4c0-1.654,1.346-3,3-3h35c1.654,0,3,1.346,3,3v4.5
			C52.875,19.527,52.651,19.75,52.375,19.75z"/>
	</g>
	<g>
		<path class="st0" d="M49.875,52.75h-35c-1.654,0-3-1.346-3-3v-4c0-0.276,0.224-0.5,0.5-0.5s0.5,0.224,0.5,0.5v4
			c0,1.103,0.897,2,2,2h35c1.103,0,2-0.897,2-2v-4.5c0-0.276,0.224-0.5,0.5-0.5s0.5,0.224,0.5,0.5v4.5
			C52.875,51.404,51.529,52.75,49.875,52.75z"/>
	</g>
	<g>
		<circle class="st1" cx="32.375" cy="12.25" r="7.5"/>
	</g>
	<g>
		<path class="st0" d="M30.875,15.75c-0.128,0-0.256-0.049-0.354-0.146c-0.195-0.195-0.195-0.512,0-0.707l2.646-2.646l-2.646-2.646
			c-0.195-0.195-0.195-0.512,0-0.707s0.512-0.195,0.707,0l3,3c0.195,0.195,0.195,0.512,0,0.707l-3,3
			C31.131,15.701,31.003,15.75,30.875,15.75z"/>
	</g>
	<g>
		<circle class="st1" cx="32.375" cy="52.25" r="7.5"/>
	</g>
	<g>
		<path class="st0" d="M33.875,55.75c-0.128,0-0.256-0.049-0.354-0.146l-3-3c-0.195-0.195-0.195-0.512,0-0.707l3-3
			c0.195-0.195,0.512-0.195,0.707,0s0.195,0.512,0,0.707l-2.646,2.646l2.646,2.646c0.195,0.195,0.195,0.512,0,0.707
			C34.131,55.701,34.003,55.75,33.875,55.75z"/>
	</g>
	<g>
		<path class="st0" d="M54.375,6.75h-4c-0.276,0-0.5-0.224-0.5-0.5s0.224-0.5,0.5-0.5h4c0.276,0,0.5,0.224,0.5,0.5
			S54.651,6.75,54.375,6.75z"/>
	</g>
	<g>
		<path class="st0" d="M52.375,8.75c-0.276,0-0.5-0.224-0.5-0.5v-4c0-0.276,0.224-0.5,0.5-0.5s0.5,0.224,0.5,0.5v4
			C52.875,8.526,52.651,8.75,52.375,8.75z"/>
	</g>
	<g>
		<path class="st0" d="M61.375,13.25h-4c-0.276,0-0.5-0.224-0.5-0.5s0.224-0.5,0.5-0.5h4c0.276,0,0.5,0.224,0.5,0.5
			S61.651,13.25,61.375,13.25z"/>
	</g>
	<g>
		<path class="st0" d="M59.375,15.25c-0.276,0-0.5-0.224-0.5-0.5v-4c0-0.276,0.224-0.5,0.5-0.5s0.5,0.224,0.5,0.5v4
			C59.875,15.026,59.651,15.25,59.375,15.25z"/>
	</g>
</g>
</svg>
