<?xml version="1.0" encoding="utf-8"?>
<!-- Generator: Adobe Illustrator 21.0.0, SVG Export Plug-In . SVG Version: 6.00 Build 0)  -->
<svg version="1.1" id="Icon_Set" xmlns="http://www.w3.org/2000/svg" xmlns:xlink="http://www.w3.org/1999/xlink" x="0px" y="0px"
	 viewBox="0 0 64 64" style="enable-background:new 0 0 64 64;" xml:space="preserve">
<style type="text/css">
	.st0{fill:#263238;}
	.st1{fill:#FFD740;}
	.st2{fill:#FF5252;}
	.st3{fill:#40C4FF;}
	.st4{font-family:'AmericanTypewriter-Bold';}
	.st5{font-size:8px;}
	.st6{fill:#F5222D;}
</style>
<g>
	<path class="st0" d="M60,56.8H4c-0.3,0-0.5-0.2-0.5-0.5v-51C3.5,5,3.7,4.8,4,4.8S4.5,5,4.5,5.2v50.5H60c0.3,0,0.5,0.2,0.5,0.5
		S60.3,56.8,60,56.8z"/>
</g>
<g>
	<path class="st0" d="M12,59.2c-0.3,0-0.5-0.2-0.5-0.5v-2.5c0-0.3,0.2-0.5,0.5-0.5s0.5,0.2,0.5,0.5v2.5C12.5,59,12.3,59.2,12,59.2z"
		/>
</g>
<g>
	<path class="st0" d="M22,59.2c-0.3,0-0.5-0.2-0.5-0.5v-2.5c0-0.3,0.2-0.5,0.5-0.5s0.5,0.2,0.5,0.5v2.5C22.5,59,22.3,59.2,22,59.2z"
		/>
</g>
<g>
	<path class="st0" d="M32,59.2c-0.3,0-0.5-0.2-0.5-0.5v-2.5c0-0.3,0.2-0.5,0.5-0.5c0.3,0,0.5,0.2,0.5,0.5v2.5
		C32.5,59,32.3,59.2,32,59.2z"/>
</g>
<g>
	<path class="st0" d="M42,59.2c-0.3,0-0.5-0.2-0.5-0.5v-2.5c0-0.3,0.2-0.5,0.5-0.5s0.5,0.2,0.5,0.5v2.5C42.5,59,42.3,59.2,42,59.2z"
		/>
</g>
<g>
	<path class="st0" d="M52,59.2c-0.3,0-0.5-0.2-0.5-0.5v-2.5c0-0.3,0.2-0.5,0.5-0.5s0.5,0.2,0.5,0.5v2.5C52.5,59,52.3,59.2,52,59.2z"
		/>
</g>
<g>
	<rect x="10.8" y="25.9" class="st1" width="5" height="5"/>
	<path class="st0" d="M15.8,31.4h-5c-0.3,0-0.5-0.2-0.5-0.5v-5c0-0.3,0.2-0.5,0.5-0.5h5c0.3,0,0.5,0.2,0.5,0.5v5
		C16.2,31.1,16,31.4,15.8,31.4z M11.2,30.4h4v-4h-4V30.4z"/>
</g>
<rect x="23" y="25.9" class="st1" width="5" height="5"/>
<path class="st0" d="M28,31.4h-5c-0.3,0-0.5-0.2-0.5-0.5v-5c0-0.3,0.2-0.5,0.5-0.5h5c0.3,0,0.5,0.2,0.5,0.5v5
	C28.5,31.1,28.3,31.4,28,31.4z M23.5,30.4h4v-4h-4V30.4z"/>
<g>
	<rect x="18.6" y="16.9" class="st1" width="5" height="5"/>
	<path class="st0" d="M23.6,22.4h-5c-0.3,0-0.5-0.2-0.5-0.5v-5c0-0.3,0.2-0.5,0.5-0.5h5c0.3,0,0.5,0.2,0.5,0.5v5
		C24.1,22.1,23.9,22.4,23.6,22.4z M19.1,21.4h4v-4h-4V21.4z"/>
</g>
<g>
	<path class="st0" d="M55.8,29.9c-0.1,0.1-0.2,0.2-0.4,0.2l-46.1,8c-0.3,0.1-0.7-0.1-0.8-0.4c-0.1-0.3,0.1-0.5,0.5-0.6l46.1-8
		c0.3-0.1,0.7,0.1,0.8,0.4C55.9,29.7,55.9,29.8,55.8,29.9z"/>
</g>
<g>
	<circle class="st2" cx="38.8" cy="18.9" r="2.5"/>
	<path class="st0" d="M38.8,21.9c-1.7,0-3-1.3-3-3s1.3-3,3-3s3,1.3,3,3S40.4,21.9,38.8,21.9z M38.8,16.9c-1.1,0-2,0.9-2,2s0.9,2,2,2
		s2-0.9,2-2S39.9,16.9,38.8,16.9z"/>
</g>
<g>
	<circle class="st2" cx="49.8" cy="22.5" r="2.5"/>
	<path class="st0" d="M49.8,25.5c-1.7,0-3-1.3-3-3s1.3-3,3-3s3,1.3,3,3S51.4,25.5,49.8,25.5z M49.8,20.5c-1.1,0-2,0.9-2,2s0.9,2,2,2
		s2-0.9,2-2S50.9,20.5,49.8,20.5z"/>
</g>
<g>
	<circle class="st2" cx="41.2" cy="27.4" r="2.5"/>
	<path class="st0" d="M41.2,30.4c-1.7,0-3-1.3-3-3s1.3-3,3-3s3,1.3,3,3C44.2,29,42.9,30.4,41.2,30.4z M41.2,25.4c-1.1,0-2,0.9-2,2
		s0.9,2,2,2s2-0.9,2-2S42.4,25.4,41.2,25.4z"/>
</g>
<g>
	<path class="st0" d="M31.9,14.9c0.1,0.1,0.1,0.2,0.1,0.2l-0.1,18.7c0,0.1-0.2,0.2-0.5,0.1c-0.3-0.1-0.5-0.3-0.5-0.4l0.1-18.7
		c0-0.1,0.2-0.2,0.5-0.1C31.7,14.8,31.8,14.9,31.9,14.9z"/>
</g>
<g>
	<polygon class="st3" points="42.1,34.7 38.9,39.7 45.3,39.7 	"/>
	<path class="st0" d="M45.3,40h-6.4c-0.1,0-0.2-0.1-0.3-0.2c-0.1-0.1-0.1-0.2,0-0.3l3.2-5c0.1-0.2,0.4-0.2,0.5,0l3.2,5
		c0.1,0.1,0.1,0.2,0,0.3C45.5,39.9,45.4,40,45.3,40z M39.7,39.3h4.8l-2.4-3.7L39.7,39.3z"/>
</g>
<g>
	<polygon class="st3" points="37.1,42.8 33.9,47.8 40.3,47.8 	"/>
	<path class="st0" d="M40.3,48.1h-6.4c-0.1,0-0.2-0.1-0.3-0.2c-0.1-0.1-0.1-0.2,0-0.3l3.2-5c0.1-0.2,0.4-0.2,0.5,0l3.2,5
		c0.1,0.1,0.1,0.2,0,0.3C40.5,48,40.4,48.1,40.3,48.1z M34.7,47.4h4.8l-2.4-3.7L34.7,47.4z"/>
</g>
<g>
	<polygon class="st3" points="29,37.2 25.8,42.2 32.2,42.2 	"/>
	<path class="st0" d="M32.2,42.5h-6.4c-0.1,0-0.2-0.1-0.3-0.2c-0.1-0.1-0.1-0.2,0-0.3l3.2-5c0.1-0.2,0.4-0.2,0.5,0l3.2,5
		c0.1,0.1,0.1,0.2,0,0.3C32.4,42.4,32.3,42.5,32.2,42.5z M26.6,41.8h4.8L29,38.1L26.6,41.8z"/>
</g>
<g>
	<polygon class="st3" points="18.6,40.3 15.4,45.3 21.8,45.3 	"/>
	<path class="st0" d="M21.8,45.6h-6.4c-0.1,0-0.2-0.1-0.3-0.2c-0.1-0.1-0.1-0.2,0-0.3l3.2-5c0.1-0.2,0.4-0.2,0.5,0l3.2,5
		c0.1,0.1,0.1,0.2,0,0.3C22,45.5,21.9,45.6,21.8,45.6z M16.2,44.9H21l-2.4-3.7L16.2,44.9z"/>
</g>
<g>
	<polygon class="st3" points="49.7,40.3 46.5,45.3 53,45.3 	"/>
	<path class="st0" d="M53,45.6h-6.4c-0.1,0-0.2-0.1-0.3-0.2c-0.1-0.1-0.1-0.2,0-0.3l3.2-5c0.1-0.2,0.4-0.2,0.5,0l3.2,5
		c0.1,0.1,0.1,0.2,0,0.3C53.2,45.5,53.1,45.6,53,45.6z M47.3,44.9h4.8l-2.4-3.7L47.3,44.9z"/>
</g>
<text transform="matrix(1 0 0 1 46.3076 54.625)" class="st4 st5">Por</text>
<text transform="matrix(1 0 0 1 6.125 10.5)" class="st6 st4 st5">Rt</text>
</svg>
