<?xml version="1.0" encoding="utf-8"?>
<!-- Generator: Adobe Illustrator 21.1.0, SVG Export Plug-In . SVG Version: 6.00 Build 0)  -->
<svg version="1.1" id="Icon_Set" xmlns="http://www.w3.org/2000/svg" xmlns:xlink="http://www.w3.org/1999/xlink" x="0px" y="0px"
	 viewBox="0 0 64 64" style="enable-background:new 0 0 64 64;" xml:space="preserve">
<style type="text/css">
	.st0{fill:#263238;}
	.st1{fill:#FFD740;}
	.st2{fill:#FF5252;}
	.st3{fill:#40C4FF;}
	.st4{fill:#4DB6AC;}
	.st5{fill:#FFFFFF;}
	.st6{fill:#FFD345;}
</style>
<g>
	<g>
		<path class="st0" d="M44,61.5c-0.276,0-0.5-0.224-0.5-0.5v-9.75c0-1.777-1.049-3.392-2.673-4.112l-5.667-2.519
			c-0.776,0.932-1.929,1.477-3.156,1.477c-0.002,0-0.004,0-0.005,0c-1.231-0.001-2.385-0.55-3.16-1.485l-5.671,2.525
			c-1.62,0.723-2.668,2.336-2.668,4.11V61c0,0.276-0.224,0.5-0.5,0.5s-0.5-0.224-0.5-0.5v-9.754c0-2.169,1.28-4.141,3.262-5.024
			l6.035-2.688c0.24-0.108,0.531-0.007,0.65,0.233c0.557,0.825,1.498,1.328,2.553,1.329c0.001,0,0.002,0,0.004,0
			c1.053,0,1.993-0.5,2.581-1.374c0.137-0.2,0.398-0.275,0.618-0.178l6.03,2.68c1.984,0.881,3.267,2.854,3.267,5.026V61
			C44.5,61.276,44.276,61.5,44,61.5z"/>
	</g>
	<g>
		<path class="st0" d="M32,43.495c-4.687,0-8.5-3.813-8.5-8.5s3.813-8.5,8.5-8.5s8.5,3.813,8.5,8.5S36.687,43.495,32,43.495z
			 M32,27.495c-4.136,0-7.5,3.364-7.5,7.5s3.364,7.5,7.5,7.5s7.5-3.364,7.5-7.5S36.136,27.495,32,27.495z"/>
	</g>
	<g>
		<path class="st0" d="M24.755,35.495H24c-0.276,0-0.5-0.224-0.5-0.5c0-4.687,3.813-8.5,8.5-8.5c2.526,0,4.905,1.115,6.527,3.059
			c0.085,0.102,0.126,0.233,0.114,0.366c-0.013,0.132-0.076,0.254-0.179,0.339l-0.597,0.495
			C34.191,33.812,29.535,35.495,24.755,35.495z M24.517,34.495h0.238c4.547,0,8.977-1.602,12.473-4.511l0,0l0.198-0.164
			c-1.414-1.483-3.364-2.325-5.426-2.325C28.032,27.495,24.774,30.592,24.517,34.495z"/>
	</g>
	<g>
		<path class="st0" d="M25,61.5c-0.276,0-0.5-0.224-0.5-0.5v-7c0-0.276,0.224-0.5,0.5-0.5s0.5,0.224,0.5,0.5v7
			C25.5,61.276,25.276,61.5,25,61.5z"/>
	</g>
	<g>
		<path class="st0" d="M39,61.5c-0.276,0-0.5-0.224-0.5-0.5v-7c0-0.276,0.224-0.5,0.5-0.5s0.5,0.224,0.5,0.5v7
			C39.5,61.276,39.276,61.5,39,61.5z"/>
	</g>
	<g>
		<path class="st0" d="M32.004,46.096c-0.001,0-0.003,0-0.004,0c-1.373-0.001-2.648-0.683-3.413-1.823
			c-0.056-0.082-0.087-0.182-0.087-0.281v-1.579c0-0.341,0.382-0.589,0.697-0.464c1.8,0.728,3.817,0.725,5.615-0.003
			c0.152-0.064,0.328-0.045,0.467,0.048c0.138,0.093,0.221,0.249,0.221,0.415v1.593c0,0.1-0.029,0.196-0.085,0.279
			C34.649,45.417,33.374,46.096,32.004,46.096z M29.5,43.833c0.592,0.805,1.495,1.262,2.501,1.263c0.001,0,0.002,0,0.003,0
			c1.003,0,1.904-0.454,2.496-1.253v-0.726c-1.621,0.502-3.379,0.502-5,0V43.833z"/>
	</g>
	<g>
		<path class="st1" d="M37.001,11.995c0-3.115-2.848-5.565-6.083-4.886c-1.908,0.4-3.437,1.958-3.816,3.87
			c-0.336,1.696,0.191,3.263,1.214,4.372c0.725,0.786,1.185,1.778,1.185,2.848v0.297h5V18.2c0-1.075,0.47-2.068,1.196-2.861
			C36.505,14.456,37.001,13.287,37.001,11.995z"/>
		<path class="st0" d="M34.501,18.995h-5c-0.276,0-0.5-0.224-0.5-0.5v-0.297c0-0.881-0.374-1.771-1.053-2.509
			c-1.198-1.299-1.685-3.052-1.337-4.808c0.418-2.11,2.107-3.823,4.204-4.262c1.661-0.349,3.356,0.052,4.65,1.104
			c1.293,1.05,2.035,2.607,2.035,4.271c0,1.362-0.51,2.67-1.435,3.682c-0.486,0.53-1.065,1.398-1.065,2.523v0.295
			C35.001,18.771,34.777,18.995,34.501,18.995z M29.996,17.995h4.01c0.052-1.071,0.506-2.103,1.322-2.994
			c0.757-0.826,1.173-1.894,1.173-3.006c0-1.362-0.607-2.636-1.665-3.495c-1.06-0.859-2.45-1.187-3.815-0.901
			c-1.71,0.358-3.087,1.755-3.429,3.478c-0.285,1.439,0.112,2.874,1.091,3.936C29.482,15.879,29.943,16.931,29.996,17.995z"/>
	</g>
	<g>
		<path class="st0" d="M32.001,23.995c-1.654,0-3-1.346-3-3v-2.5c0-0.276,0.224-0.5,0.5-0.5h5c0.276,0,0.5,0.224,0.5,0.5v2.5
			C35.001,22.649,33.655,23.995,32.001,23.995z M30.001,18.995v2c0,1.103,0.897,2,2,2s2-0.897,2-2v-2H30.001z"/>
	</g>
	<g>
		<path class="st0" d="M34.501,21.495h-5c-0.276,0-0.5-0.224-0.5-0.5s0.224-0.5,0.5-0.5h5c0.276,0,0.5,0.224,0.5,0.5
			S34.777,21.495,34.501,21.495z"/>
	</g>
	<g>
		<path class="st0" d="M32.001,18.995c-0.276,0-0.5-0.224-0.5-0.5v-5c0-0.276,0.224-0.5,0.5-0.5s0.5,0.224,0.5,0.5v5
			C32.501,18.771,32.277,18.995,32.001,18.995z"/>
	</g>
	<g>
		<circle class="st2" cx="10.5" cy="29" r="10"/>
		<path class="st0" d="M10.5,39.5C4.71,39.5,0,34.79,0,29s4.71-10.5,10.5-10.5S21,23.21,21,29S16.29,39.5,10.5,39.5z M10.5,19.5
			C5.262,19.5,1,23.762,1,29s4.262,9.5,9.5,9.5S20,34.238,20,29S15.738,19.5,10.5,19.5z"/>
	</g>
	<g>
		<path class="st0" d="M10.5,31.5c-0.276,0-0.5-0.224-0.5-0.5v-1.5c0-0.276,0.224-0.5,0.5-0.5c1.379,0,2.5-1.121,2.5-2.5
			S11.879,24,10.5,24S8,25.121,8,26.5C8,26.776,7.776,27,7.5,27S7,26.776,7,26.5c0-1.93,1.57-3.5,3.5-3.5s3.5,1.57,3.5,3.5
			c0,1.76-1.306,3.221-3,3.465V31C11,31.276,10.776,31.5,10.5,31.5z"/>
	</g>
	<g>
		<circle class="st0" cx="10.5" cy="33.75" r="0.75"/>
	</g>
	<g>
		<ellipse transform="matrix(0.7071 -0.7071 0.7071 0.7071 -4.8363 46.3241)" class="st4" cx="53.5" cy="29" rx="10" ry="10"/>
		<path class="st0" d="M53.5,39.495c-2.688,0-5.378-1.023-7.425-3.07c-4.094-4.094-4.094-10.756,0-14.85s10.756-4.094,14.85,0
			s4.094,10.756,0,14.85C58.878,38.472,56.188,39.495,53.5,39.495z M53.5,19.504c-2.433,0-4.865,0.926-6.718,2.778
			c-3.704,3.704-3.704,9.731,0,13.436c3.705,3.705,9.73,3.705,13.436,0c3.704-3.704,3.704-9.731,0-13.436
			C58.365,20.43,55.933,19.504,53.5,19.504z"/>
	</g>
	<g>
		<path class="st0" d="M51.732,33.035c-0.128,0-0.256-0.049-0.354-0.146l-3.536-3.535c-0.195-0.195-0.195-0.512,0-0.707
			s0.512-0.195,0.707,0l3.183,3.182l6.718-6.717c0.195-0.195,0.512-0.195,0.707,0s0.195,0.512,0,0.707l-7.071,7.07
			C51.988,32.986,51.86,33.035,51.732,33.035z"/>
	</g>
	<g>
		<path class="st0" d="M11.25,16.995c-0.276,0-0.5-0.224-0.5-0.5v-2.5c0-0.827,0.673-1.5,1.5-1.5h11c0.276,0,0.5,0.224,0.5,0.5
			s-0.224,0.5-0.5,0.5h-11c-0.275,0-0.5,0.225-0.5,0.5v2.5C11.75,16.771,11.526,16.995,11.25,16.995z"/>
	</g>
	<g>
		<path class="st0" d="M53.5,16.995c-0.276,0-0.5-0.224-0.5-0.5v-2.5c0-0.275-0.225-0.5-0.5-0.5h-11c-0.276,0-0.5-0.224-0.5-0.5
			s0.224-0.5,0.5-0.5h11c0.827,0,1.5,0.673,1.5,1.5v2.5C54,16.771,53.776,16.995,53.5,16.995z"/>
	</g>
	<g>
		<path class="st0" d="M12,5.5H8C7.724,5.5,7.5,5.276,7.5,5S7.724,4.5,8,4.5h4c0.276,0,0.5,0.224,0.5,0.5S12.276,5.5,12,5.5z"/>
	</g>
	<g>
		<path class="st0" d="M10,7.5C9.724,7.5,9.5,7.276,9.5,7V3c0-0.276,0.224-0.5,0.5-0.5s0.5,0.224,0.5,0.5v4
			C10.5,7.276,10.276,7.5,10,7.5z"/>
	</g>
	<g>
		<path class="st0" d="M5,12H1c-0.276,0-0.5-0.224-0.5-0.5S0.724,11,1,11h4c0.276,0,0.5,0.224,0.5,0.5S5.276,12,5,12z"/>
	</g>
	<g>
		<path class="st0" d="M3,14c-0.276,0-0.5-0.224-0.5-0.5v-4C2.5,9.224,2.724,9,3,9s0.5,0.224,0.5,0.5v4C3.5,13.776,3.276,14,3,14z"
			/>
	</g>
	<g>
		<path class="st0" d="M61,53.5h-1c-0.276,0-0.5-0.224-0.5-0.5s0.224-0.5,0.5-0.5h1c0.276,0,0.5,0.224,0.5,0.5S61.276,53.5,61,53.5z
			"/>
	</g>
	<g>
		<path class="st0" d="M58,53.5H47c-0.276,0-0.5-0.224-0.5-0.5s0.224-0.5,0.5-0.5h11c0.276,0,0.5,0.224,0.5,0.5S58.276,53.5,58,53.5
			z"/>
	</g>
	<g>
		<path class="st0" d="M4,53.5H3c-0.276,0-0.5-0.224-0.5-0.5s0.224-0.5,0.5-0.5h1c0.276,0,0.5,0.224,0.5,0.5S4.276,53.5,4,53.5z"/>
	</g>
	<g>
		<path class="st0" d="M17,53.5H6c-0.276,0-0.5-0.224-0.5-0.5s0.224-0.5,0.5-0.5h11c0.276,0,0.5,0.224,0.5,0.5S17.276,53.5,17,53.5z
			"/>
	</g>
</g>
</svg>
